<?xml version="1.0" encoding="UTF-8"?>
<svg width="80px" height="80px" viewBox="0 0 80 80" version="1.1" xmlns="http://www.w3.org/2000/svg" xmlns:xlink="http://www.w3.org/1999/xlink">
    <!-- Generator: Sketch 55.2 (78181) - https://sketchapp.com -->
    <title>abbey-road-studios</title>
    <desc>Created with Sketch.</desc>
    <g id="Home" stroke="none" stroke-width="1" fill="none" fill-rule="evenodd">
        <g id="Home-2" transform="translate(-201.000000, -2876.000000)" fill="#999999" fill-rule="nonzero">
            <path d="M273.716418,2932.59701 C273.477612,2930.68657 271.925373,2930.32836 270.970149,2930.32836 C269.537313,2930.32836 268.223881,2931.28358 268.223881,2932.71642 C268.223881,2933.67164 268.940299,2934.26866 269.895522,2934.62687 C271.208955,2935.10448 271.80597,2935.22388 271.80597,2935.8209 C271.80597,2936.1791 271.447761,2936.41791 271.089552,2936.41791 C270.970149,2936.41791 270.373134,2936.41791 270.253731,2935.8209 L268.104478,2935.8209 C268.343284,2937.73134 269.895522,2938.20896 270.970149,2938.20896 C272.522388,2938.20896 273.835821,2937.25373 273.835821,2935.8209 C273.835821,2934.26866 272.522388,2933.91045 271.328358,2933.55224 C270.731343,2933.43284 270.253731,2933.19403 270.253731,2932.83582 C270.253731,2932.59701 270.373134,2932.35821 270.850746,2932.35821 C271.447761,2932.35821 271.447761,2932.71642 271.567164,2932.95522 L273.716418,2932.95522 L273.716418,2932.59701 Z M262.492537,2934.14925 C262.492537,2933.07463 263.328358,2932.35821 264.164179,2932.35821 C265.119403,2932.35821 265.835821,2933.07463 265.835821,2934.14925 C265.835821,2935.22388 265,2935.9403 264.164179,2935.9403 C263.208955,2936.0597 262.492537,2935.22388 262.492537,2934.14925 L262.492537,2934.14925 Z M260.343284,2934.14925 C260.343284,2935.9403 261.537313,2937.97015 264.164179,2937.97015 C266.791045,2937.97015 267.985075,2935.9403 267.985075,2934.14925 C267.985075,2932.35821 266.791045,2930.32836 264.164179,2930.32836 C261.537313,2930.44776 260.343284,2932.47761 260.343284,2934.14925 L260.343284,2934.14925 Z M259.746269,2928.29851 L257.597015,2928.29851 L257.597015,2929.97015 L259.746269,2929.97015 L259.746269,2928.29851 Z M259.746269,2930.68657 L257.597015,2930.68657 L257.597015,2937.85075 L259.746269,2937.85075 L259.746269,2930.68657 Z M233.238806,2918.98507 L234.19403,2918.98507 C235.149254,2918.98507 235.865672,2919.46269 235.865672,2920.41791 C235.865672,2920.89552 235.626866,2921.85075 234.19403,2921.85075 L233.238806,2921.85075 L233.238806,2918.98507 Z M230.731343,2926.98507 L233.238806,2926.98507 L233.238806,2923.64179 L233.238806,2923.64179 L235.626866,2926.98507 L238.61194,2926.98507 L235.865672,2923.52239 C237.776119,2923.16418 238.373134,2921.49254 238.373134,2920.29851 C238.373134,2919.22388 238.014925,2918.14925 237.059701,2917.55224 C236.343284,2917.07463 235.746269,2916.83582 233.955224,2916.83582 L230.731343,2916.83582 L230.731343,2926.98507 L230.731343,2926.98507 Z M249.477612,2923.16418 C249.477612,2922.32836 250.074627,2921.13433 251.38806,2921.13433 C252.701493,2921.13433 253.298507,2922.20896 253.298507,2923.04478 C253.298507,2923.76119 252.820896,2924.95522 251.38806,2924.95522 C249.955224,2925.07463 249.477612,2923.8806 249.477612,2923.16418 L249.477612,2923.16418 Z M255.567164,2919.34328 L253.298507,2919.34328 L253.298507,2920.1791 L253.298507,2920.1791 C253.059701,2919.70149 252.343284,2919.10448 251.029851,2919.10448 C249,2919.10448 247.208955,2920.65672 247.208955,2923.16418 C247.208955,2925.31343 248.641791,2927.22388 251.029851,2927.22388 C251.985075,2927.22388 252.940299,2926.86567 253.298507,2926.14925 L253.298507,2926.14925 L253.298507,2926.98507 L255.567164,2926.98507 L255.567164,2919.34328 Z M258.313433,2923.16418 C258.313433,2922.32836 258.910448,2921.25373 260.223881,2921.25373 C261.537313,2921.25373 262.134328,2922.20896 262.134328,2923.16418 C262.134328,2924 261.656716,2925.19403 260.223881,2925.19403 C259.149254,2925.07463 258.313433,2924.35821 258.313433,2923.16418 L258.313433,2923.16418 Z M264.283582,2916.71642 L262.014925,2916.71642 L262.014925,2919.9403 C261.776119,2919.70149 261.059701,2918.98507 259.746269,2918.98507 C257.835821,2918.98507 255.925373,2920.41791 255.925373,2923.04478 C255.925373,2925.31343 257.477612,2927.10448 259.746269,2927.10448 C261.298507,2927.10448 261.895522,2926.38806 262.014925,2926.02985 L262.014925,2926.02985 L262.014925,2926.86567 L264.283582,2926.86567 L264.283582,2916.71642 Z M240.761194,2923.16418 C240.761194,2922.08955 241.597015,2921.25373 242.552239,2921.25373 C243.507463,2921.25373 244.343284,2922.08955 244.343284,2923.16418 C244.343284,2924.23881 243.507463,2925.07463 242.552239,2925.07463 C241.597015,2925.07463 240.761194,2924.23881 240.761194,2923.16418 M238.373134,2923.16418 C238.373134,2925.07463 239.686567,2927.22388 242.552239,2927.22388 C245.298507,2927.22388 246.731343,2925.07463 246.731343,2923.16418 C246.731343,2921.25373 245.41791,2919.10448 242.552239,2919.10448 C239.80597,2919.10448 238.373134,2921.25373 238.373134,2923.16418 M271.567164,2908.23881 L270.134328,2912.65672 L270.014925,2912.65672 L268.462687,2908.23881 L266.074627,2908.23881 L268.940299,2915.52239 L267.746269,2918.50746 L270.134328,2918.50746 L273.955224,2908.23881 L271.567164,2908.23881 Z M260.820896,2911.22388 C260.940299,2910.74627 261.41791,2909.91045 262.61194,2909.91045 C263.80597,2909.91045 264.283582,2910.74627 264.402985,2911.22388 L260.820896,2911.22388 Z M263.925373,2913.49254 C263.567164,2913.85075 263.208955,2914.20896 262.492537,2914.20896 C261.537313,2914.20896 260.820896,2913.61194 260.701493,2912.77612 L266.432836,2912.77612 C266.432836,2912.53731 266.432836,2912.41791 266.432836,2912.1791 C266.432836,2909.79104 264.761194,2908 262.373134,2908 C259.985075,2908 258.313433,2910.02985 258.313433,2912.1791 C258.313433,2914.44776 260.223881,2916.23881 262.373134,2916.23881 C263.208955,2916.23881 263.925373,2916 264.522388,2915.52239 C265.119403,2915.04478 265.716418,2914.44776 266.074627,2913.61194 L263.925373,2913.61194 L263.925373,2913.49254 Z M251.985075,2912.0597 C251.985075,2911.10448 252.701493,2910.14925 253.895522,2910.14925 C255.089552,2910.14925 255.80597,2911.10448 255.80597,2912.0597 C255.80597,2913.01493 255.089552,2913.97015 253.895522,2913.97015 C252.701493,2913.97015 251.985075,2913.13433 251.985075,2912.0597 L251.985075,2912.0597 Z M249.716418,2915.8806 L251.865672,2915.8806 L251.865672,2915.04478 L251.865672,2915.04478 C252.104478,2915.64179 252.940299,2916.1194 254.014925,2916.1194 C255.925373,2916.1194 257.835821,2914.68657 257.835821,2911.9403 C257.835821,2909.07463 255.686567,2907.8806 254.014925,2907.8806 C253.656716,2907.8806 252.58209,2907.8806 251.746269,2908.71642 L251.746269,2905.49254 L249.477612,2905.49254 L249.477612,2915.8806 L249.716418,2915.8806 Z M243.149254,2912.0597 C243.149254,2911.10448 243.865672,2910.14925 245.059701,2910.14925 C246.253731,2910.14925 246.970149,2911.10448 246.970149,2912.0597 C246.970149,2913.01493 246.253731,2913.97015 245.059701,2913.97015 C243.865672,2913.97015 243.149254,2913.13433 243.149254,2912.0597 L243.149254,2912.0597 Z M240.880597,2915.8806 L243.029851,2915.8806 L243.029851,2915.04478 L243.029851,2915.04478 C243.268657,2915.64179 244.104478,2916.1194 245.179104,2916.1194 C247.089552,2916.1194 249.119403,2914.68657 249.119403,2911.9403 C249.119403,2909.07463 246.970149,2907.8806 245.298507,2907.8806 C244.940299,2907.8806 243.865672,2907.8806 243.029851,2908.71642 L243.029851,2905.49254 L240.761194,2905.49254 L240.761194,2915.8806 L240.880597,2915.8806 Z M236.58209,2912.65672 L236.462687,2912.65672 L234.671642,2912.65672 L234.552239,2912.65672 L235.507463,2910.50746 L236.58209,2912.65672 Z M240.761194,2915.8806 L235.507463,2905.61194 L230.253731,2915.8806 L233,2915.8806 L233.716418,2914.44776 L237.298507,2914.44776 L238.014925,2915.8806 L240.761194,2915.8806 Z M201,2876 L201,2929.37313 L227.626866,2956 L227.626866,2902.62687 L281,2902.62687 L254.373134,2876 L201,2876 Z M248.641791,2930.68657 L246.492537,2930.68657 L246.492537,2934.50746 C246.492537,2935.58209 245.895522,2935.9403 245.298507,2935.9403 C244.104478,2935.9403 244.104478,2934.98507 244.104478,2934.50746 L244.104478,2930.56716 L241.955224,2930.56716 L241.955224,2934.86567 C241.955224,2935.8209 242.074627,2936.29851 242.552239,2937.01493 C243.149254,2937.85075 244.223881,2937.97015 244.701493,2937.97015 C245.298507,2937.97015 246.134328,2937.85075 246.61194,2937.01493 L246.61194,2937.01493 L246.61194,2937.73134 L248.641791,2937.73134 L248.641791,2930.68657 L248.641791,2930.68657 Z M240.402985,2928.29851 L238.253731,2928.29851 L238.253731,2930.68657 L237.179104,2930.68657 L237.179104,2932.35821 L238.253731,2932.35821 L238.253731,2937.85075 L240.402985,2937.85075 L240.402985,2932.35821 L241.477612,2932.35821 L241.477612,2930.68657 L240.402985,2930.68657 L240.402985,2928.29851 Z M236.940299,2931.04478 C236.940299,2930.44776 236.820896,2929.85075 236.343284,2929.13433 C235.746269,2928.41791 234.671642,2928.0597 233.716418,2928.0597 C232.164179,2928.0597 230.373134,2929.13433 230.373134,2930.80597 C230.373134,2932.59701 232.044776,2933.31343 232.641791,2933.55224 C234.074627,2934.14925 234.552239,2934.26866 234.552239,2934.98507 C234.552239,2935.46269 234.19403,2935.9403 233.597015,2935.9403 C233.238806,2935.9403 232.641791,2935.70149 232.641791,2934.62687 L230.253731,2934.62687 L230.253731,2934.98507 C230.253731,2936.1791 230.970149,2937.97015 233.716418,2937.97015 C236.223881,2937.97015 237.059701,2936.41791 237.059701,2935.10448 C237.059701,2934.02985 236.58209,2933.19403 234.791045,2932.35821 C233.119403,2931.64179 232.880597,2931.52239 232.880597,2930.92537 C232.880597,2930.44776 233.238806,2930.20896 233.716418,2930.20896 C234.432836,2930.20896 234.552239,2930.80597 234.552239,2931.16418 L236.940299,2931.16418 L236.940299,2931.04478 Z M251.38806,2934.14925 C251.38806,2933.31343 251.985075,2932.35821 253.179104,2932.35821 C254.373134,2932.35821 254.970149,2933.31343 254.970149,2934.14925 C254.970149,2934.86567 254.492537,2935.9403 253.179104,2935.9403 C252.104478,2936.0597 251.38806,2935.22388 251.38806,2934.14925 L251.38806,2934.14925 Z M257,2928.29851 L254.850746,2928.29851 L254.850746,2931.28358 C254.61194,2931.04478 254.014925,2930.44776 252.701493,2930.44776 C250.910448,2930.44776 249.119403,2931.8806 249.119403,2934.26866 C249.119403,2936.41791 250.552239,2938.08955 252.701493,2938.08955 C254.134328,2938.08955 254.61194,2937.37313 254.850746,2937.13433 L254.850746,2937.13433 L254.850746,2937.85075 L256.880597,2937.85075 L256.880597,2928.29851 L257,2928.29851 Z" id="abbey-road-studios"></path>
        </g>
    </g>
</svg>