<?xml version="1.0" encoding="UTF-8"?>
<svg width="160px" height="32px" viewBox="0 0 160 32" version="1.1" xmlns="http://www.w3.org/2000/svg" xmlns:xlink="http://www.w3.org/1999/xlink">
    <!-- Generator: Sketch 54.1 (76490) - https://sketchapp.com -->
    <title>Logo</title>
    <desc>Created with Sketch.</desc>
    <g id="Home" stroke="none" stroke-width="1" fill="none" fill-rule="evenodd">
        <g id="Home-2" transform="translate(-140.000000, -81.000000)" fill="#FFFFFF">
            <g id="Group-2" transform="translate(140.000000, 81.000000)">
                <path d="M157.055065,19.8994258 C155.423396,19.8994258 154.110415,21.1730347 154.110415,22.8440758 C154.110415,24.5151169 155.423396,25.7890111 157.055065,25.7890111 C158.686163,25.7890111 160,24.5151169 160,22.8440758 C160,21.1730347 158.686163,19.8994258 157.055065,19.8994258 M6.88444956,22.2476423 C5.13380793,22.2476423 4.3777453,21.1731774 4.3777453,19.8196826 C4.3777453,17.9098399 5.96947112,16.7152609 8.51611831,16.7152609 L12.137801,16.7152609 L12.137801,17.1537773 C12.137801,20.6154029 9.43166736,22.2476423 6.88444956,22.2476423 M8.27731664,5.21512033 C4.41711761,5.21512033 1.5520682,7.36405004 0.716119701,10.7463604 L4.49671817,11.542366 C5.17346555,9.75178143 6.60570496,8.87646061 8.23737371,8.87646061 C10.3472164,8.87646061 12.137801,9.87132492 12.137801,12.3785998 L12.137801,13.2536353 L8.67503412,13.2536353 C3.5417968,13.2536353 0,15.6815949 0,19.8196826 C0,23.9982839 2.8256771,25.9081266 6.16832986,25.9081266 C8.8285291,25.9081266 10.8179724,24.9209656 12.137801,23.2781699 L12.137801,25.590295 L12.7740348,25.590295 L16.2758887,25.590295 L16.2758887,18.7295259 L16.2758887,13.1340918 C16.2758887,7.24450655 12.9335212,5.21512033 8.27731664,5.21512033 M27.7374558,22.2476423 C24.7528629,22.2476423 22.6036479,19.7004244 22.6036479,15.5620514 C22.6036479,11.4228225 24.7528629,8.87646061 27.7374558,8.87646061 C30.7214781,8.87646061 33.2153436,11.4228225 33.2153436,15.5620514 C33.2153436,19.7004244 30.7214781,22.2476423 27.7374558,22.2476423 L27.7374558,22.2476423 Z M32.9765419,7.76176752 C32.0615635,6.44850099 29.5942315,5.21512033 27.6042176,5.21512033 C21.5953742,5.21512033 18.5708383,9.35349334 18.5708383,15.5620514 C18.5708383,21.9688977 21.5953742,25.9081266 27.5243318,25.9081266 C30.1514354,25.9081266 32.3003651,24.4359443 32.9765419,23.2818789 L32.9765419,25.590295 L37.1154855,25.590295 L37.1154855,-5.5067062e-14 L32.9765419,-5.5067062e-14 L32.9765419,7.76176752 Z M46.1543712,22.2476423 C44.4037296,22.2476423 43.647667,21.1731774 43.647667,19.8196826 C43.647667,17.9098399 45.2393928,16.7152609 47.78604,16.7152609 L51.4077226,16.7152609 L51.4077226,17.1537773 C51.4077226,20.6154029 48.701589,22.2476423 46.1543712,22.2476423 M47.5472383,5.21512033 C43.6870393,5.21512033 40.8219899,7.36405004 39.9860414,10.7463604 L43.7666398,11.542366 C44.4433872,9.75178143 45.8756266,8.87646061 47.5075807,8.87646061 C49.6171381,8.87646061 51.4077226,9.87132492 51.4077226,12.3785998 L51.4077226,13.2536353 L47.9449558,13.2536353 C42.8120038,13.2536353 39.2699217,15.6815949 39.2699217,19.8196826 C39.2699217,23.9982839 42.0955988,25.9081266 45.4382515,25.9081266 C48.0984508,25.9081266 50.0878941,24.9209656 51.4077226,23.2781699 L51.4077226,25.590295 L52.0439565,25.590295 L55.5460957,25.590295 L55.5460957,18.7295259 L55.5460957,13.1340918 C55.5460957,7.24450655 52.2034429,5.21512033 47.5472383,5.21512033 M67.4212719,22.2476423 C64.4372496,22.2476423 61.9433841,19.7004244 61.9433841,15.5620514 C61.9433841,11.4228225 64.4372496,8.87646061 67.4212719,8.87646061 C70.4064354,8.87646061 72.5553651,11.4228225 72.5553651,15.5620514 C72.5553651,19.7004244 70.4064354,22.2476423 67.4212719,22.2476423 M67.6343959,5.21512033 C73.5633535,5.21512033 76.5878893,9.1546346 76.5878893,15.5620514 C76.5878893,21.7703242 73.5633535,25.9081266 67.5545101,25.9081266 C65.0871781,25.9081266 63.0977348,24.6753166 62.1821858,23.36205 L62.1821858,31.1235323 L58.0432421,31.1235323 L58.0432421,5.53323724 L62.1821858,5.53323724 L62.1821858,7.84079746 C62.8583625,6.68758797 65.0072923,5.21512033 67.6343959,5.21512033 Z M78.7700002,9.19500549 L78.7700002,5.53309459 L78.7700002,0.00727531967 L82.9083732,0.000142653327 L82.9083732,5.53309459 L88.1217817,5.53309459 L88.1217817,9.19500549 L82.9083732,9.19500549 L82.9083732,18.9847327 C82.9083732,21.25235 83.7443217,22.2477849 85.5748492,22.2477849 C86.2909689,22.2477849 86.7688576,22.1276708 87.4849773,21.6900104 L88.5594421,25.1924349 C87.4849773,25.7094105 86.45017,25.9082693 85.3360476,25.9082693 C81.5554491,25.9082693 78.7700002,23.6800243 78.7700002,18.7450751 L78.7700002,9.19500549 Z M96.3617802,22.2476423 C94.6111386,22.2476423 93.855076,21.1731774 93.855076,19.8196826 C93.855076,17.9098399 95.4468018,16.7152609 97.9940196,16.7152609 L101.615132,16.7152609 L101.615132,17.1537773 C101.615132,20.6154029 98.9089981,22.2476423 96.3617802,22.2476423 M97.7546473,5.21512033 C93.8950189,5.21512033 91.0299695,7.36405004 90.1934504,10.7463604 L93.9746195,11.542366 C94.6507962,9.75178143 96.083321,8.87646061 97.7155603,8.87646061 C99.8239765,8.87646061 101.615132,9.87132492 101.615132,12.3785998 L101.615132,13.2536353 L98.1529354,13.2536353 C93.0194128,13.2536353 89.477616,15.6815949 89.477616,19.8196826 C89.477616,23.9982839 92.3030078,25.9081266 95.6456605,25.9081266 C98.3058598,25.9081266 100.295874,24.9209656 101.615132,23.2781699 L101.615132,25.590295 L102.251651,25.590295 L105.754075,25.590295 L105.754075,18.7295259 L105.754075,13.1340918 C105.754075,7.24450655 102.411137,5.21512033 97.7546473,5.21512033 M117.510136,22.2476423 C114.525828,22.2476423 112.032248,19.7004244 112.032248,15.5620514 C112.032248,11.4228225 114.525828,8.87646061 117.510136,8.87646061 C120.495299,8.87646061 122.644229,11.4228225 122.644229,15.5620514 C122.644229,19.7004244 120.495299,22.2476423 117.510136,22.2476423 M117.643374,5.21512033 C123.652218,5.21512033 126.676753,9.35349334 126.676753,15.5620514 C126.676753,21.9688977 123.652218,25.9081266 117.722689,25.9081266 C115.096156,25.9081266 112.947227,24.4359443 112.27105,23.2818789 L112.27105,25.590295 L108.132106,25.590295 L108.132106,-5.5067062e-14 L112.27105,-5.5067062e-14 L112.27105,7.76176752 C113.186599,6.44850099 115.65336,5.21512033 117.643374,5.21512033 Z M128.831104,25.590295 L128.831104,0.000285306654 L132.969477,0.000285306654 L132.969477,25.590295 L128.831104,25.590295 Z M139.542143,13.2536638 C139.980089,10.746389 141.691644,8.87648914 144.43715,8.87648914 C147.422313,8.87648914 148.934153,11.0245629 149.292498,13.2536638 L139.542143,13.2536638 Z M144.43715,5.21514886 C137.831159,5.21514886 135.085083,10.7869025 135.085083,15.56208 C135.085083,20.3369721 137.831159,25.9081552 144.43715,25.9081552 C149.013468,25.9081552 151.281942,24.0382553 153.232013,20.2576569 L149.690216,18.8653604 C148.655694,21.0536624 146.586079,22.2476708 144.43715,22.2476708 C141.174383,22.2476708 139.462828,19.6610807 139.462828,16.7152895 L153.670244,16.7152895 L153.670244,14.9247049 C153.670244,10.4279867 150.844567,5.21514886 144.43715,5.21514886 L144.43715,5.21514886 Z" id="Logo"></path>
            </g>
        </g>
    </g>
</svg>