<?xml version="1.0" encoding="UTF-8"?>
<svg width="110px" height="52px" viewBox="0 0 110 52" version="1.1" xmlns="http://www.w3.org/2000/svg" xmlns:xlink="http://www.w3.org/1999/xlink">
    <title>boss-design</title>
    <g id="Home" stroke="none" stroke-width="1" fill="none" fill-rule="evenodd">
        <g id="Home-2" transform="translate(-981.000000, -2903.000000)" fill="#999999" fill-rule="nonzero">
            <path d="M1078.02999,2943.92653 C1078.32107,2943.9589 1078.61216,2944.02366 1078.87091,2944.1208 C1079.35202,2944.26245 1079.83313,2944.55285 1080.24923,2944.92691 L1080.42339,2945.09215 L1080.52042,2945.18929 C1081.17724,2945.87671 1081.53091,2946.72967 1081.58144,2947.67176 L1081.58775,2947.90909 L1081.58775,2950.62889 C1081.58775,2951.98879 1081.23197,2953.05729 1080.55276,2953.83437 C1079.87355,2954.61146 1078.90325,2955 1077.70655,2955 C1076.80094,2955 1076.05704,2954.80573 1075.41018,2954.35243 C1074.82211,2953.94034 1074.42116,2953.42121 1074.23162,2952.77072 L1074.18113,2952.57161 L1074.14879,2952.47447 L1075.44252,2952.47447 L1075.47486,2952.53923 C1075.60424,2952.96015 1075.86298,2953.31631 1076.2511,2953.54296 C1076.63922,2953.76961 1077.09203,2953.89913 1077.64187,2953.89913 C1078.51513,2953.89913 1079.22669,2953.57534 1079.74418,2952.99253 C1080.19699,2952.47447 1080.42339,2951.72976 1080.48808,2950.85554 C1080.48808,2950.88792 1080.45573,2950.9203 1080.42339,2950.95268 C1079.84121,2951.53549 1079.162,2951.92403 1078.38576,2952.08593 C1078.23483,2952.10751 1078.08389,2952.1291 1077.93296,2952.14109 L1077.70655,2952.15068 L1077.60952,2952.15068 C1076.96266,2952.15068 1076.38048,2952.02117 1075.83064,2951.76214 C1075.44252,2951.56787 1075.08674,2951.30884 1074.76331,2950.98506 C1074.21347,2950.43462 1073.8577,2949.75467 1073.69598,2949.00996 C1073.64746,2948.79141 1073.61714,2948.55464 1073.60501,2948.31332 L1073.59895,2948.07098 L1073.59895,2948.00623 C1073.59895,2946.8406 1073.98707,2945.86924 1074.76331,2945.09215 C1075.24846,2944.63885 1075.76595,2944.31507 1076.34813,2944.1208 C1076.65863,2944.01719 1076.98982,2943.95502 1077.32516,2943.9343 L1077.57718,2943.92653 L1078.02999,2943.92653 Z M1051.37908,2942.17808 L1051.37908,2947.94147 C1051.37908,2950.24035 1049.56786,2952.08593 1047.33617,2952.08593 C1045.10448,2952.08593 1043.29325,2950.24035 1043.29325,2947.94147 C1043.29325,2945.64259 1045.10448,2943.79701 1047.33617,2943.79701 C1048.35729,2943.79701 1049.29475,2944.18787 1050.01907,2944.86588 L1050.18238,2945.0274 L1050.18238,2942.17808 L1051.37908,2942.17808 Z M1057.13619,2943.79701 C1058.3329,2943.79701 1059.33554,2944.18555 1060.07944,2944.99502 C1060.79099,2945.80448 1061.17911,2946.87298 1061.17911,2948.2005 L1061.17911,2948.2005 L1061.14677,2948.2005 L1061.14677,2948.23288 L1054.2253,2948.23288 C1054.28998,2949.00996 1054.58107,2949.65753 1055.09857,2950.14321 C1055.6484,2950.66127 1056.32761,2950.9203 1057.10385,2950.9203 C1057.65369,2950.9203 1058.17118,2950.79078 1058.62399,2950.49938 C1059.07679,2950.20797 1059.40023,2949.78705 1059.65897,2949.26899 L1059.65897,2949.26899 L1059.69132,2949.23661 L1060.95271,2949.23661 L1060.92036,2949.33375 C1060.56459,2950.20797 1060.04709,2950.88792 1059.40023,2951.34122 C1058.75336,2951.8269 1057.97712,2952.05355 1057.13619,2952.05355 C1055.97184,2952.05355 1055.00154,2951.63263 1054.2253,2950.85554 C1053.44906,2950.07846 1053.06094,2949.07472 1053.06094,2947.90909 C1053.06094,2946.74346 1053.44906,2945.73973 1054.2253,2944.96264 C1055.00154,2944.18555 1055.97184,2943.79701 1057.13619,2943.79701 Z M1065.80421,2943.86177 C1066.93622,2943.86177 1067.97121,2944.15318 1068.68276,2944.73599 L1067.90652,2945.51308 C1067.32434,2945.05978 1066.61279,2944.8655 1065.77186,2944.8655 C1064.6075,2944.8655 1063.99298,2945.38356 1063.99298,2946.19303 C1063.99298,2946.87298 1064.3811,2947.2939 1065.38374,2947.35866 L1066.67748,2947.45579 C1068.06824,2947.58531 1069.03854,2948.13574 1069.03854,2949.62516 C1069.03854,2951.14695 1067.71246,2952.05355 1065.77186,2952.05355 C1064.41344,2952.05355 1063.37846,2951.72976 1062.50519,2950.88792 L1063.28143,2950.11083 C1063.92829,2950.79078 1064.76922,2951.04981 1065.77186,2951.04981 C1067.09794,2951.04981 1067.90652,2950.56413 1067.90652,2949.62516 C1067.90652,2948.91283 1067.48606,2948.52428 1066.58045,2948.45953 L1065.25437,2948.33001 C1063.70189,2948.2005 1062.86096,2947.48817 1062.86096,2946.19303 C1062.86096,2944.73599 1064.09001,2943.86177 1065.80421,2943.86177 Z M1071.88475,2944.21793 L1071.88475,2952.05355 L1070.75274,2952.05355 L1070.75274,2944.21793 L1071.88475,2944.21793 Z M1086.76268,2944.05604 C1087.65213,2944.05604 1088.35133,2944.3009 1088.8852,2944.79063 L1089.02672,2944.93026 L1089.05906,2944.96264 C1089.56308,2945.52657 1089.8225,2946.30815 1089.91206,2947.30739 L1089.93233,2947.58531 L1089.93233,2952.05355 L1088.83266,2952.05355 L1088.83266,2947.68244 C1088.83266,2946.77584 1088.6386,2946.12827 1088.31516,2945.73973 C1088.08876,2945.48474 1087.78807,2945.30413 1087.39142,2945.21958 L1087.21549,2945.18929 L1087.14242,2945.16651 L1087.06216,2945.15811 L1087.06216,2945.15811 L1086.98909,2945.15691 L1086.30988,2945.15691 C1086.01879,2945.18929 1085.76004,2945.25405 1085.53364,2945.38356 C1085.2102,2945.54545 1084.9838,2945.7721 1084.78974,2946.06351 C1084.61994,2946.40349 1084.52442,2946.86741 1084.5032,2947.4119 L1084.49865,2947.65006 L1084.49865,2952.02117 L1083.30195,2952.02117 L1083.30195,2947.55293 C1083.30195,2946.45205 1083.59304,2945.57783 1084.14287,2944.96264 C1084.20756,2944.89788 1084.30459,2944.80075 1084.40162,2944.73599 C1084.90147,2944.3239 1085.53497,2944.09912 1086.32643,2944.06166 L1086.56862,2944.05604 L1086.76268,2944.05604 Z M1077.51249,2944.99502 C1077.25375,2944.99502 1076.995,2945.0274 1076.7686,2945.09215 C1076.34813,2945.22167 1075.96001,2945.44832 1075.63658,2945.80448 C1075.08674,2946.35492 1074.79565,2947.06725 1074.79565,2947.90909 C1074.79565,2948.78331 1075.08674,2949.52802 1075.63658,2950.11083 C1076.0247,2950.53176 1076.50985,2950.79078 1077.02734,2950.9203 C1077.2214,2950.95268 1077.41546,2950.98506 1077.60952,2950.98506 C1078.02999,2950.98506 1078.38576,2950.88792 1078.70919,2950.75841 C1079.03263,2950.62889 1079.32372,2950.40224 1079.61481,2950.11083 C1079.74418,2950.0137 1079.84121,2949.88418 1079.87355,2949.78705 C1080.22933,2949.26899 1080.39105,2948.6538 1080.39105,2947.94147 C1080.39105,2947.61768 1080.3587,2947.32628 1080.29402,2947.06725 C1080.16464,2946.61395 1079.93824,2946.2254 1079.61481,2945.86924 C1079.51778,2945.7721 1079.42075,2945.70735 1079.32372,2945.61021 C1078.80622,2945.18929 1078.1917,2944.99502 1077.51249,2944.99502 Z M1047.33617,2944.93026 C1045.719,2944.93026 1044.39292,2946.29016 1044.39292,2947.94147 C1044.39292,2949.59278 1045.719,2950.95268 1047.33617,2950.95268 C1048.95333,2950.95268 1050.27941,2949.59278 1050.27941,2947.94147 C1050.27941,2946.29016 1048.95333,2944.93026 1047.33617,2944.93026 Z M1057.03916,2944.8655 C1056.32761,2944.8655 1055.71309,2945.09215 1055.1956,2945.54545 C1054.71045,2945.99875 1054.41936,2946.58157 1054.32233,2947.32628 L1054.32233,2947.32628 L1059.95006,2947.32628 C1059.756,2946.51681 1059.43257,2945.934 1058.94742,2945.51308 C1058.46227,2945.09215 1057.8154,2944.8655 1057.03916,2944.8655 Z M1071.88475,2942.37235 L1071.88475,2943.47323 L1070.75274,2943.47323 L1070.75274,2942.37235 L1071.88475,2942.37235 Z M1053.64312,2908.79577 C1057.42728,2908.79577 1061.01739,2909.89664 1063.50783,2911.80697 L1063.50783,2911.80697 L1064.12235,2912.29265 L1061.2438,2915.17435 L1060.75865,2914.81818 C1058.7857,2913.39352 1056.3923,2912.64882 1053.61077,2912.64882 C1051.28205,2912.64882 1047.40085,2913.23163 1047.40085,2917.18182 C1047.40085,2918.96264 1048.01538,2920.64633 1052.2847,2921.03487 L1052.2847,2921.03487 L1056.65104,2921.42341 C1060.62927,2921.77958 1065.15734,2922.94521 1065.22203,2929.09714 C1065.22203,2934.40722 1060.7263,2937.80697 1053.74015,2937.80697 C1048.8563,2937.80697 1045.23385,2936.54421 1042.35529,2933.75965 L1042.35529,2933.75965 L1041.8378,2933.27397 L1044.78104,2930.32752 L1045.26619,2930.84558 C1047.27148,2932.98257 1049.92363,2933.95392 1053.61077,2933.95392 C1058.5593,2933.95392 1061.04974,2932.33499 1061.04974,2929.12951 C1061.04974,2927.44583 1060.4999,2925.66501 1056.52167,2925.27646 L1056.52167,2925.27646 L1052.02595,2924.88792 C1044.78104,2924.30511 1043.26091,2920.35492 1043.26091,2917.14944 C1043.26091,2912.066 1047.33617,2908.79577 1053.64312,2908.79577 Z M1079.48543,2908.79577 C1083.23726,2908.79577 1086.85971,2909.89664 1089.35015,2911.80697 L1089.35015,2911.80697 L1089.96467,2912.29265 L1087.08612,2915.17435 L1086.60097,2914.81818 C1084.62802,2913.39352 1082.23462,2912.64882 1079.45309,2912.64882 C1077.12437,2912.64882 1073.24317,2913.23163 1073.24317,2917.18182 C1073.24317,2918.96264 1073.8577,2920.64633 1078.12702,2921.03487 L1078.12702,2921.03487 L1082.49336,2921.42341 C1086.47159,2921.77958 1091.032,2922.94521 1090.99983,2929.09714 C1090.99983,2934.40722 1086.50394,2937.80697 1079.51778,2937.80697 C1074.63394,2937.80697 1071.01148,2936.54421 1068.13293,2933.75965 L1068.13293,2933.75965 L1067.61543,2933.27397 L1070.55868,2930.32752 L1071.04383,2930.84558 C1073.04911,2932.98257 1075.70127,2933.95392 1079.3884,2933.95392 C1084.33693,2933.95392 1086.82737,2932.33499 1086.82737,2929.12951 C1086.82737,2926.70112 1085.50129,2925.60025 1082.2993,2925.27646 L1082.2993,2925.27646 L1077.83593,2924.88792 C1070.62336,2924.30511 1069.10323,2920.35492 1069.10323,2917.14944 C1069.10323,2912.066 1073.17849,2908.79577 1079.48543,2908.79577 Z M1026.313,2908.73101 C1034.30181,2908.73101 1040.80281,2915.2391 1040.77059,2923.23661 C1040.77059,2931.23412 1034.30181,2937.74222 1026.313,2937.74222 C1018.35654,2937.74222 1011.85554,2931.23412 1011.85554,2923.23661 C1011.85554,2915.2391 1018.3242,2908.73101 1026.313,2908.73101 Z M985.269319,2903 L985.269319,2912.9726 C987.953816,2910.2528 991.608612,2908.73101 995.489811,2908.73101 C1003.44627,2908.73101 1009.94728,2915.2391 1009.97962,2923.23661 C1009.97962,2931.23412 1003.47861,2937.74222 995.489811,2937.74222 C987.501009,2937.74222 981,2931.23412 981,2923.23661 C981,2923.23661 981.032343,2922.42715 981.032343,2922.42715 L981.032343,2922.42715 L981.032343,2903 L985.269319,2903 Z M1026.313,2912.6812 C1020.4912,2912.6812 1015.76908,2917.40847 1015.76908,2923.23661 C1015.76908,2929.06476 1020.52355,2933.79203 1026.313,2933.79203 C1032.1348,2933.79203 1036.85693,2929.06476 1036.85693,2923.23661 C1036.85693,2917.40847 1032.1348,2912.6812 1026.313,2912.6812 Z M995.457468,2912.6812 C989.635669,2912.6812 984.913543,2917.40847 984.913543,2923.23661 C984.913543,2929.06476 989.635669,2933.79203 995.457468,2933.79203 C1001.27927,2933.79203 1006.00139,2929.06476 1006.00139,2923.23661 C1006.00139,2917.44085 1001.27927,2912.6812 995.457468,2912.6812 Z" id="boss-design"></path>
        </g>
    </g>
</svg>