<?xml version="1.0" encoding="UTF-8"?>
<svg width="140px" height="24px" viewBox="0 0 140 24" version="1.1" xmlns="http://www.w3.org/2000/svg" xmlns:xlink="http://www.w3.org/1999/xlink">
    <!-- Generator: Sketch 54.1 (76490) - https://sketchapp.com -->
    <title>Centrick</title>
    <desc>Created with Sketch.</desc>
    <g id="Home" stroke="none" stroke-width="1" fill="none" fill-rule="evenodd">
        <g id="Home-2" transform="translate(-171.000000, -2476.000000)" fill="#999999">
            <path d="M284.259548,2499.35452 L280.0831,2499.35452 L272.42122,2491.78898 L272.42122,2499.35452 L269.296937,2499.35452 L269.296937,2476 L272.42122,2476 L272.42122,2489.8153 L278.866467,2483.89472 L283.273047,2483.89472 L275.545038,2490.86805 L284.259548,2499.35452 Z M186.126925,2496.06514 C184.844473,2498.20318 182.082269,2499.68332 179.254091,2499.68332 C174.485897,2499.68332 171,2496.19666 171,2491.6244 C171,2487.0523 174.419924,2483.56548 179.056791,2483.56548 C181.753332,2483.56548 184.186909,2484.91426 185.633829,2486.92078 L183.331734,2488.86147 C182.476715,2487.67735 181.029794,2486.52592 179.056791,2486.52592 C176.261445,2486.52592 174.123973,2488.69711 174.123973,2491.6244 C174.123973,2494.65068 176.294586,2496.72288 179.254091,2496.72288 C181.292913,2496.72288 182.739833,2495.6376 183.726335,2494.32166 L186.126925,2496.06514 Z M190.977632,2489.651 L199.396037,2489.651 C198.935618,2487.67732 197.159761,2486.29585 195.318239,2486.29585 C193.312559,2486.29585 191.50387,2487.64432 190.977632,2489.651 Z M190.714514,2492.28226 C190.878982,2494.881 193.016609,2496.95335 195.71315,2496.95335 C198.01478,2496.95335 199.264401,2495.83476 200.152407,2494.84816 L202.191228,2496.78869 C201.040258,2498.26898 198.837123,2499.68345 195.680008,2499.68345 C191.174933,2499.68345 187.689191,2496.26262 187.689191,2491.62437 C187.689191,2486.98659 190.845996,2483.56545 195.219744,2483.56545 C199.527519,2483.56545 202.651802,2487.05227 202.651802,2491.62437 C202.651802,2491.7562 202.651802,2491.98623 202.618816,2492.28226 L190.714514,2492.28226 Z M208.424726,2485.37485 C209.246914,2484.58528 210.825316,2483.56553 213.061593,2483.56553 C215.330546,2483.56553 217.369523,2484.61828 218.684652,2486.29593 C219.671463,2487.54588 220.197701,2489.12455 220.197701,2491.78896 L220.197701,2499.3545 L217.073572,2499.3545 L217.073572,2491.62445 C217.073572,2489.65092 216.711804,2488.73 216.152734,2488.03895 C215.429352,2487.11803 214.245395,2486.52597 212.962788,2486.52597 C210.924121,2486.52597 209.444214,2487.61156 208.523531,2488.73 L208.523531,2499.3545 L205.399403,2499.3545 L205.399403,2483.8947 L208.424726,2483.8947 L208.424726,2485.37485 Z M231.030061,2499.35452 C230.43816,2499.55187 229.48449,2499.68339 228.596639,2499.68339 C226.656312,2499.68339 225.209547,2498.99265 224.22289,2497.87422 C223.302052,2496.85461 222.97327,2495.44015 222.97327,2493.7625 L222.97327,2486.6905 L222.97327,2483.89472 L222.97327,2479.61834 L226.097398,2479.61834 L226.097398,2483.89472 L231.030061,2483.89472 L231.030061,2486.6905 L226.097398,2486.6905 L226.097398,2493.92701 C226.097398,2494.74942 226.163216,2495.44015 226.557817,2495.90069 C226.985404,2496.42691 227.873256,2496.72294 228.695134,2496.72294 C229.155708,2496.72294 229.944754,2496.65726 230.405328,2496.52575 L231.030061,2499.35452 Z M242.694908,2486.65767 C242.332984,2486.55884 241.971215,2486.526 241.478274,2486.526 C239.866575,2486.526 238.156845,2487.64443 237.301826,2489.12458 L237.301826,2499.35453 L234.177543,2499.35453 L234.177543,2483.89474 L237.203021,2483.89474 L237.203021,2485.67091 C237.95939,2484.61815 239.570779,2483.56556 241.839888,2483.56556 C242.16867,2483.56556 242.694908,2483.59855 243.056522,2483.66439 L242.694908,2486.65767 Z M247.650351,2476.2408 C248.841277,2476.2408 249.810279,2477.20991 249.810279,2478.4013 C249.810279,2479.59254 248.841277,2480.5618 247.650351,2480.5618 C246.459425,2480.5618 245.490579,2479.59254 245.490579,2478.4013 C245.490579,2477.20991 246.459425,2476.2408 247.650351,2476.2408 Z M245.98352,2499.35444 L245.98352,2483.89464 L249.107803,2483.89464 L249.107803,2499.35444 L245.98352,2499.35444 Z M267.111085,2496.06514 C265.828633,2498.20318 263.066428,2499.68332 260.238096,2499.68332 C255.470056,2499.68332 251.984159,2496.19666 251.984159,2491.6244 C251.984159,2487.0523 255.404083,2483.56548 260.041105,2483.56548 C262.737646,2483.56548 265.171068,2484.91426 266.617834,2486.92078 L264.315894,2488.86147 C263.461029,2487.67735 262.013953,2486.52592 260.041105,2486.52592 C257.245604,2486.52592 255.108133,2488.69711 255.108133,2491.6244 C255.108133,2494.65068 257.278746,2496.72288 260.238096,2496.72288 C262.277072,2496.72288 263.723993,2495.6376 264.710494,2494.32166 L267.111085,2496.06514 Z M298.049044,2477.5545 C297.619753,2477.51236 297.229798,2477.36505 296.880419,2477.11131 C296.775884,2477.03525 296.684203,2476.9454 296.604911,2476.84285 C296.551946,2476.77454 296.509977,2476.70018 296.482566,2476.61808 C296.416283,2476.41903 296.481327,2476.24073 296.660818,2476.13291 C296.781924,2476.06026 296.915729,2476.0268 297.055418,2476.0158 C297.33232,2475.99411 297.600704,2476.03718 297.863359,2476.12346 C298.119044,2476.20773 298.3563,2476.32763 298.568157,2476.4954 C298.677184,2476.58199 298.77475,2476.67989 298.848776,2476.79901 C298.89632,2476.87523 298.930391,2476.9564 298.944329,2477.04625 C298.964926,2477.17838 298.92017,2477.28589 298.827095,2477.37651 C298.754462,2477.44715 298.665259,2477.48851 298.568777,2477.51639 C298.398423,2477.56565 298.224973,2477.57309 298.049044,2477.5545 Z M301.175572,2476.03583 C301.542916,2476.09795 301.876964,2476.23922 302.178954,2476.45687 C302.297582,2476.54238 302.402582,2476.64214 302.490237,2476.75925 C302.55621,2476.84739 302.605922,2476.94282 302.621099,2477.0545 C302.636276,2477.16557 302.597405,2477.25495 302.518268,2477.32947 C302.46933,2477.37547 302.41048,2477.40583 302.346675,2477.42504 C302.299596,2477.43929 302.250967,2477.45138 302.202184,2477.45726 C302.064198,2477.47415 301.927451,2477.47167 301.788845,2477.44952 C301.545239,2477.41048 301.315417,2477.33334 301.095506,2477.22444 C300.914312,2477.13459 300.746436,2477.02414 300.599468,2476.88426 C300.525287,2476.81347 300.457765,2476.73648 300.406194,2476.64725 C300.371349,2476.58684 300.343628,2476.52348 300.330929,2476.45455 C300.308318,2476.33031 300.343163,2476.22699 300.440574,2476.14489 C300.492145,2476.10136 300.550685,2476.07223 300.614645,2476.05364 C300.700441,2476.02839 300.788096,2476.01399 300.877763,2476.01321 C300.877763,2476.01321 301.034953,2476.00934 301.175572,2476.03583 Z M293.757855,2488.5503 C294.314136,2488.60607 294.803825,2488.81551 295.215461,2489.1958 C295.508469,2489.46627 295.714752,2489.79282 295.807053,2490.18396 C295.897804,2490.56813 295.858159,2490.93867 295.669841,2491.28845 C295.523337,2491.56032 295.309311,2491.76665 295.04201,2491.91862 C294.788494,2492.06299 294.514999,2492.1437 294.224778,2492.16817 C294.08323,2492.18026 293.941062,2492.18614 293.799824,2492.16926 C293.113144,2492.08762 292.539673,2491.79609 292.110072,2491.24508 C291.913856,2490.9932 291.785007,2490.70832 291.741799,2490.39061 C291.666998,2489.83914 291.839675,2489.37457 292.253324,2489.00325 C292.529606,2488.75509 292.861176,2488.62404 293.224494,2488.56781 C293.401197,2488.54054 293.579139,2488.53373 293.757855,2488.5503 Z M301.82832,2489.57006 C301.795644,2489.9152 301.598343,2490.21665 301.238743,2490.40935 C301.040358,2490.51562 300.825868,2490.56178 300.60193,2490.57185 C300.187816,2490.59044 299.805295,2490.47952 299.443527,2490.28852 C299.14835,2490.13269 298.891581,2489.92712 298.679723,2489.66843 C298.48041,2489.42491 298.333131,2489.15429 298.267778,2488.8437 C298.219924,2488.61645 298.224415,2488.38997 298.301848,2488.17016 C298.407158,2487.87103 298.611737,2487.65989 298.899015,2487.52931 C299.106536,2487.43481 299.325518,2487.39562 299.553327,2487.39655 C300.034498,2487.39825 300.464409,2487.5561 300.861177,2487.81867 C301.094716,2487.97343 301.295269,2488.16319 301.462835,2488.38719 C301.624825,2488.60359 301.744228,2488.84029 301.804161,2489.10611 C301.834205,2489.23964 301.841174,2489.37364 301.82832,2489.57006 Z M291.626315,2486.18804 C291.255718,2486.15613 290.908042,2486.04924 290.585919,2485.86366 C290.343088,2485.72362 290.13185,2485.54625 289.970634,2485.31374 C289.87539,2485.17664 289.802448,2485.02886 289.766364,2484.86574 C289.689241,2484.51674 289.766209,2484.2046 290.001607,2483.93382 C290.131695,2483.78433 290.291518,2483.67466 290.470544,2483.5924 C290.688751,2483.49202 290.919348,2483.43827 291.158462,2483.42138 C291.296913,2483.41178 291.435674,2483.40698 291.57366,2483.42278 C292.049101,2483.477 292.485361,2483.63206 292.862152,2483.93459 C293.036532,2484.07448 293.182416,2484.23914 293.289894,2484.43649 C293.388079,2484.61681 293.443212,2484.80967 293.43965,2485.01492 C293.436088,2485.22513 293.367947,2485.4166 293.244518,2485.58715 C293.101421,2485.78481 292.912174,2485.925 292.691179,2486.02383 C292.447109,2486.13335 292.19003,2486.18509 291.923039,2486.19485 C291.82377,2486.19857 291.725275,2486.19563 291.626315,2486.18804 Z M304.699241,2486.45291 C304.963444,2486.46887 305.210612,2486.54911 305.446938,2486.66235 C305.837048,2486.84917 306.170166,2487.1091 306.434989,2487.453 C306.593417,2487.65887 306.715917,2487.88318 306.778948,2488.13785 C306.818594,2488.29802 306.821846,2488.45943 306.78793,2488.61899 C306.737908,2488.856 306.598838,2489.02934 306.383728,2489.14025 C306.231803,2489.21879 306.068883,2489.2538 305.89791,2489.26031 C305.54915,2489.27347 305.225479,2489.17867 304.91621,2489.02903 C304.523622,2488.83927 304.192053,2488.5719 303.929863,2488.22165 C303.780107,2488.02182 303.664731,2487.80479 303.605417,2487.55973 C303.567165,2487.40281 303.562674,2487.24511 303.595506,2487.0885 C303.644289,2486.85536 303.779487,2486.68233 303.987938,2486.56894 C304.1665,2486.47181 304.360238,2486.43882 304.5611,2486.44192 C304.60725,2486.44269 304.653246,2486.44904 304.699241,2486.45291 Z M297.615308,2485.29519 C297.051748,2485.23695 296.559891,2485.02085 296.152436,2484.6232 C295.990136,2484.46473 295.862836,2484.2807 295.784163,2484.06585 C295.732283,2483.92442 295.710137,2483.77958 295.725469,2483.62839 C295.745601,2483.42887 295.830468,2483.26249 295.974804,2483.12571 C296.125025,2482.98335 296.305755,2482.89893 296.505533,2482.85276 C296.786926,2482.78786 297.068009,2482.79824 297.349402,2482.85633 C297.593782,2482.90698 297.823759,2482.99466 298.041657,2483.11533 C298.30493,2483.26095 298.533669,2483.44761 298.713469,2483.6902 C298.840769,2483.86214 298.934928,2484.05036 298.961566,2484.26568 C299.003844,2484.60369 298.887384,2484.87524 298.610173,2485.07399 C298.443071,2485.19389 298.251811,2485.2543 298.050174,2485.28451 C297.905993,2485.30604 297.761193,2485.31007 297.615308,2485.29519 Z M289.762167,2479.33337 C290.196569,2479.37907 290.58513,2479.49385 290.936058,2479.72203 C291.089531,2479.82179 291.224575,2479.94169 291.336234,2480.08746 C291.421875,2480.19899 291.48568,2480.32214 291.514485,2480.45955 C291.57256,2480.73575 291.48568,2480.96672 291.284198,2481.15818 C291.14234,2481.29295 290.971987,2481.37908 290.78785,2481.43763 C290.575683,2481.50517 290.357475,2481.53151 290.134622,2481.53306 C289.978361,2481.5343 289.824888,2481.51927 289.672345,2481.49046 C289.249713,2481.41084 288.862856,2481.25329 288.539339,2480.96145 C288.423189,2480.85673 288.326397,2480.73606 288.257946,2480.59432 C288.204052,2480.48278 288.17215,2480.36598 288.173853,2480.24128 C288.177106,2480.01945 288.271574,2479.841 288.432481,2479.69399 C288.569073,2479.56914 288.729515,2479.48595 288.903895,2479.42941 C289.118851,2479.35955 289.339846,2479.32671 289.566261,2479.33089 C289.638739,2479.33228 289.711526,2479.32469 289.762167,2479.33337 Z M309.515692,2485.80675 C309.985248,2486.01123 310.378455,2486.31469 310.686795,2486.72504 C310.812547,2486.89265 310.912126,2487.0742 310.969272,2487.27744 C310.993431,2487.36388 311.00675,2487.45125 310.996528,2487.5414 C310.992192,2487.5775 310.989869,2487.61375 310.987391,2487.64999 C310.975002,2487.84735 310.865666,2487.97933 310.699804,2488.07103 C310.563366,2488.14647 310.413455,2488.16832 310.259982,2488.16661 C310.005071,2488.16413 309.763634,2488.09969 309.531488,2487.99978 C309.073702,2487.8032 308.687464,2487.51166 308.379125,2487.11944 C308.249811,2486.95492 308.147754,2486.77446 308.080232,2486.57509 C308.040586,2486.45798 308.019679,2486.337 308.028506,2486.21477 C308.046161,2485.97358 308.165873,2485.79916 308.391049,2485.70296 C308.501779,2485.65556 308.618858,2485.63619 308.738416,2485.63588 C308.838924,2485.63495 309.188768,2485.65447 309.515692,2485.80675 Z M302.618528,2484.54947 C302.373529,2484.52577 302.139216,2484.4604 301.914349,2484.36157 C301.624283,2484.23408 301.364417,2484.0612 301.142957,2483.83379 C300.984529,2483.6713 300.857848,2483.48804 300.780879,2483.27241 C300.731941,2483.13547 300.717383,2482.9959 300.743401,2482.85338 C300.77329,2482.68918 300.862494,2482.56216 300.997073,2482.46611 C301.103776,2482.39021 301.223953,2482.34451 301.351563,2482.32112 C301.54143,2482.28642 301.730522,2482.28627 301.921937,2482.32019 C302.403418,2482.40585 302.821404,2482.61637 303.179456,2482.94648 C303.338194,2483.09287 303.472154,2483.26033 303.564455,2483.45752 C303.634145,2483.60608 303.67503,2483.76052 303.659853,2483.92689 C303.640649,2484.13617 303.538127,2484.29263 303.363747,2484.40494 C303.247752,2484.47976 303.118593,2484.5188 302.983704,2484.53832 C302.862753,2484.55597 302.740873,2484.56171 302.618528,2484.54947 Z M294.933712,2479.09631 C295.408689,2479.13984 295.837825,2479.30172 296.212292,2479.60038 C296.36081,2479.71889 296.484239,2479.85939 296.574216,2480.02839 C296.629504,2480.13218 296.66342,2480.24263 296.66822,2480.35897 C296.675654,2480.54067 296.606429,2480.69372 296.475721,2480.81904 C296.355854,2480.93414 296.209505,2481.00075 296.05185,2481.04443 C295.881962,2481.09152 295.707891,2481.10686 295.532427,2481.09896 C295.094154,2481.07913 294.690881,2480.94792 294.321369,2480.71216 C294.158604,2480.60821 294.015971,2480.4815 293.897808,2480.32845 C293.801326,2480.20406 293.728384,2480.0682 293.704379,2479.91082 C293.671238,2479.69271 293.73241,2479.50651 293.897343,2479.35656 C294.006989,2479.25664 294.135529,2479.19127 294.276767,2479.15053 C294.491722,2479.08826 294.711014,2479.0723 294.933712,2479.09631 Z M288.55831,2477.78263 C288.218842,2477.75769 287.8961,2477.67048 287.592096,2477.51712 C287.399287,2477.41984 287.223823,2477.29839 287.084133,2477.13016 C287.035195,2477.07114 286.99431,2477.00716 286.964421,2476.9373 C286.870262,2476.71842 286.902474,2476.49488 287.094509,2476.31457 C287.19223,2476.22271 287.307916,2476.15966 287.432274,2476.11335 C287.625702,2476.04147 287.82641,2476.00956 288.032383,2476.00197 C288.184617,2475.99624 288.335921,2476.00352 288.486142,2476.02505 C288.862623,2476.07927 289.217268,2476.19545 289.535055,2476.41077 C289.647798,2476.48714 289.747687,2476.57729 289.832245,2476.68449 C289.873129,2476.73669 289.908284,2476.79231 289.935231,2476.85288 C290.038063,2477.08369 289.990518,2477.31249 289.803904,2477.4832 C289.692245,2477.58528 289.560453,2477.65204 289.418286,2477.69945 C289.254591,2477.75413 289.085941,2477.78 288.914039,2477.79069 C288.794792,2477.79812 288.676783,2477.79146 288.55831,2477.78263 Z M306.862839,2483.90745 C306.599256,2483.88778 306.353018,2483.80614 306.116691,2483.69213 C305.85001,2483.56356 305.609657,2483.39641 305.401206,2483.18527 C305.275299,2483.05778 305.166273,2482.91728 305.086362,2482.75571 C305.031849,2482.64526 304.9953,2482.53017 304.990654,2482.40547 C304.982446,2482.19061 305.078619,2482.03834 305.265388,2481.9409 C305.378441,2481.88172 305.501715,2481.86174 305.628241,2481.85508 C305.846293,2481.84362 306.055518,2481.88746 306.259323,2481.95701 C306.679012,2482.10014 307.044962,2482.32941 307.344475,2482.65921 C307.47193,2482.79955 307.576001,2482.95508 307.641509,2483.13493 C307.673567,2483.22292 307.69277,2483.31385 307.689363,2483.40633 C307.682549,2483.59655 307.592262,2483.73922 307.422373,2483.8269 C307.290581,2483.89506 307.147949,2483.91907 307.00098,2483.9183 C306.95483,2483.91814 306.908835,2483.91117 306.862839,2483.90745 Z M299.384925,2478.88596 C299.894746,2478.94374 300.344789,2479.13738 300.725142,2479.48453 C300.852907,2479.60102 300.958991,2479.73579 301.02961,2479.8955 C301.071579,2479.99015 301.094345,2480.08789 301.089079,2480.19307 C301.080097,2480.36595 300.996934,2480.49236 300.856624,2480.58546 C300.770363,2480.64262 300.674811,2480.67933 300.573992,2480.70009 C300.354391,2480.74501 300.135564,2480.73835 299.915808,2480.69544 C299.644482,2480.64215 299.389881,2480.5458 299.151076,2480.40747 C298.935037,2480.28215 298.742847,2480.12832 298.590923,2479.92787 C298.51256,2479.82439 298.449375,2479.71302 298.418091,2479.58584 C298.357848,2479.34093 298.446122,2479.13103 298.6634,2479.00323 C298.782183,2478.93336 298.913201,2478.90254 299.048399,2478.88534 C299.160678,2478.87109 299.272337,2478.87868 299.384925,2478.88596 Z M293.646088,2477.66326 C293.238943,2477.62128 292.859364,2477.49983 292.516954,2477.2715 C292.395383,2477.19048 292.285428,2477.0963 292.193747,2476.98167 C292.141711,2476.91676 292.100362,2476.84581 292.068769,2476.76882 C292.041203,2476.70066 292.029743,2476.63003 292.032995,2476.55582 C292.038415,2476.42973 292.09107,2476.32749 292.182132,2476.24276 C292.27118,2476.15988 292.377419,2476.10814 292.49171,2476.07189 C292.618237,2476.03162 292.74848,2476.0138 292.881045,2476.00699 C293.003545,2476.00079 293.12558,2476.00544 293.246531,2476.02217 C293.648411,2476.07762 294.021949,2476.2093 294.35197,2476.44971 C294.49739,2476.55567 294.622368,2476.68176 294.706306,2476.84411 C294.744713,2476.91862 294.769956,2476.99762 294.773982,2477.0805 C294.780797,2477.21697 294.726438,2477.33083 294.629027,2477.42501 C294.528828,2477.52214 294.405864,2477.57713 294.274382,2477.61431 C294.156529,2477.64746 294.036197,2477.66419 293.913388,2477.66884 C293.82372,2477.67224 293.735136,2477.66977 293.646088,2477.66326 Z M304.167351,2480.40229 C303.886888,2480.38138 303.625782,2480.2937 303.375208,2480.17024 C303.205628,2480.0869 303.047819,2479.98482 302.903483,2479.86306 C302.766116,2479.74734 302.64594,2479.61676 302.556117,2479.45999 C302.512909,2479.38501 302.480077,2479.30555 302.467069,2479.21988 C302.448485,2479.10107 302.467224,2478.98938 302.545586,2478.89334 C302.601338,2478.82502 302.673506,2478.77932 302.755431,2478.74943 C302.839523,2478.7186 302.926868,2478.70357 303.016226,2478.6966 C303.213372,2478.68111 303.404632,2478.71364 303.592641,2478.7674 C303.946511,2478.86902 304.265072,2479.03756 304.541664,2479.28216 C304.658589,2479.38563 304.761266,2479.50104 304.839473,2479.6372 C304.877416,2479.7035 304.907615,2479.77306 304.925734,2479.8471 C304.979163,2480.06382 304.886553,2480.25048 304.681974,2480.34126 C304.558855,2480.39594 304.428457,2480.41128 304.295581,2480.41236 C304.252993,2480.41267 304.210095,2480.40586 304.167351,2480.40229 Z" id="Centrick"></path>
        </g>
    </g>
</svg>