<?xml version="1.0" encoding="UTF-8"?>
<svg width="125px" height="64px" viewBox="0 0 125 64" version="1.1" xmlns="http://www.w3.org/2000/svg" xmlns:xlink="http://www.w3.org/1999/xlink">
    <!-- Generator: Sketch 54.1 (76490) - https://sketchapp.com -->
    <title>davidson</title>
    <desc>Created with Sketch.</desc>
    <g id="Home" stroke="none" stroke-width="1" fill="none" fill-rule="evenodd">
        <g id="Home-2" transform="translate(-976.000000, -2456.000000)" fill="#999999">
            <path d="M1033.23476,2475.70627 L1024.63667,2475.70627 L1024.63667,2471.33146 L1033.23476,2467.13951 L1033.23476,2475.70627 Z M1033.23476,2456 L1036.67913,2456 L1036.67913,2479.10902 L1033.23476,2479.10902 L1024.63667,2479.08284 L1021.19231,2479.08284 L1021.19231,2469.24992 L1033.23476,2463.37873 L1033.23476,2456 Z M1042.86696,2463.37873 L1054.90941,2469.24992 L1054.90941,2479.08284 L1051.46466,2479.08284 L1051.46466,2471.33146 L1042.86696,2467.13951 L1042.86696,2479.10902 L1039.4226,2479.10902 L1039.4226,2456 L1042.86696,2456 L1042.86696,2463.37873 Z M1087.59221,2487.99145 L1090.09799,2487.99145 L1098.33989,2499.02643 L1098.33989,2487.99145 L1101,2487.99145 L1101,2503.95083 L1098.73611,2503.95083 L1090.25231,2492.59689 L1090.25231,2503.95083 L1087.59221,2503.95083 L1087.59221,2487.99145 Z M981.736497,2501.39738 C984.967593,2501.39738 987.077546,2499.14028 987.077546,2496.01676 L987.077546,2495.97114 C987.077546,2492.84761 984.967593,2490.54489 981.736497,2490.54489 L978.703318,2490.54489 L978.703318,2501.39738 L981.736497,2501.39738 Z M976,2487.99125 L981.736497,2487.99125 C986.572145,2487.99125 989.912809,2491.43413 989.912809,2495.92551 L989.912809,2495.97114 C989.912809,2500.46253 986.572145,2503.95103 981.736497,2503.95103 L976,2503.95103 L976,2487.99125 Z M1002.1341,2497.61274 L999.474383,2491.22883 L996.837037,2497.61274 L1002.1341,2497.61274 Z M998.265664,2487.87719 L1000.77106,2487.87719 L1007.54074,2503.95103 L1004.68349,2503.95103 L1003.12292,2500.09795 L995.84784,2500.09795 L994.265278,2503.95103 L991.495988,2503.95103 L998.265664,2487.87719 Z M1007.8929,2487.99145 L1010.8821,2487.99145 L1015.51983,2500.25743 L1020.13557,2487.99145 L1023.0588,2487.99145 L1016.66258,2504.06488 L1014.28912,2504.06488 L1007.8929,2487.99145 Z M1026.29047,2503.95079 L1026.29047,2487.99141 L1028.99379,2487.99141 L1028.99379,2503.95079 L1026.29047,2503.95079 Z M1040.40108,2501.39738 C1043.63218,2501.39738 1045.74213,2499.14028 1045.74213,2496.01676 L1045.74213,2495.97114 C1045.74213,2492.84761 1043.63218,2490.54489 1040.40108,2490.54489 L1037.3679,2490.54489 L1037.3679,2501.39738 L1040.40108,2501.39738 Z M1034.66458,2487.99125 L1040.40108,2487.99125 C1045.23634,2487.99125 1048.57739,2491.43413 1048.57739,2495.92551 L1048.57739,2495.97114 C1048.57739,2500.46253 1045.23634,2503.95103 1040.40108,2503.95103 L1034.66458,2503.95103 L1034.66458,2487.99125 Z M1051.54529,2501.62541 L1053.17184,2499.61923 C1054.64406,2500.94148 1056.11705,2501.69385 1058.02909,2501.69385 C1059.69961,2501.69385 1060.75478,2500.89586 1060.75478,2499.68767 L1060.75478,2499.64165 C1060.75478,2498.50189 1060.13904,2497.88639 1057.28179,2497.20246 C1054.0071,2496.38166 1052.16065,2495.37837 1052.16065,2492.43733 L1052.16065,2492.39171 C1052.16065,2489.65558 1054.35856,2487.76346 1057.41373,2487.76346 C1059.65525,2487.76346 1061.43611,2488.4702 1062.99668,2489.76963 L1061.54606,2491.89027 C1060.16103,2490.81855 1058.776,2490.24827 1057.37014,2490.24827 C1055.78758,2490.24827 1054.86435,2491.09228 1054.86435,2492.14079 L1054.86435,2492.18681 C1054.86435,2493.41781 1055.56767,2493.96488 1058.51289,2494.69443 C1061.76559,2495.51523 1063.4581,2496.72342 1063.4581,2499.36831 L1063.4581,2499.41393 C1063.4581,2502.40059 1061.1946,2504.17906 1057.96312,2504.17906 C1055.61127,2504.17906 1053.39136,2503.33545 1051.54529,2501.62541 Z M1079.89911,2496.01684 L1079.89911,2495.97122 C1079.89911,2492.87051 1077.72319,2490.29405 1074.66802,2490.29405 C1071.61285,2490.29405 1069.4809,2492.82488 1069.4809,2495.92559 L1069.4809,2495.97122 C1069.4809,2499.07193 1071.65683,2501.64838 1074.712,2501.64838 C1077.76755,2501.64838 1079.89911,2499.11755 1079.89911,2496.01684 Z M1066.64564,2496.01684 L1066.64564,2495.97122 C1066.64564,2491.47983 1069.9863,2487.71799 1074.712,2487.71799 C1079.43769,2487.71799 1082.73476,2491.43421 1082.73476,2495.92559 L1082.73476,2495.97122 C1082.73476,2500.46261 1079.39333,2504.22444 1074.66802,2504.22444 C1069.94232,2504.22444 1066.64564,2500.50823 1066.64564,2496.01684 Z M1061.97935,2518.70006 L1062.97513,2517.45797 C1063.66441,2518.05065 1064.38663,2518.42632 1065.26208,2518.42632 C1065.95168,2518.42632 1066.3674,2518.14168 1066.3674,2517.67433 L1066.3674,2517.65158 C1066.3674,2517.20667 1066.10461,2516.97909 1064.82451,2516.63707 C1063.2813,2516.22646 1062.28553,2515.78188 1062.28553,2514.19777 L1062.28553,2514.1747 C1062.28553,2512.72714 1063.40162,2511.76938 1064.96667,2511.76938 C1066.08307,2511.76938 1067.03546,2512.13447 1067.81214,2512.78388 L1066.93668,2514.1061 C1066.25786,2513.61632 1065.59042,2513.3195 1064.94513,2513.3195 C1064.29954,2513.3195 1063.96013,2513.62754 1063.96013,2514.01507 L1063.96013,2514.03783 C1063.96013,2514.56223 1064.28816,2514.73339 1065.61257,2515.08663 C1067.16624,2515.50814 1068.042,2516.08959 1068.042,2517.48041 L1068.042,2517.50349 C1068.042,2519.08759 1066.88191,2519.97676 1065.22946,2519.97676 C1064.06968,2519.97676 1062.8985,2519.55525 1061.97935,2518.70006 Z M1009.65385,2511.88362 L1011.33922,2511.88362 L1011.33922,2515.04124 L1014.44716,2515.04124 L1014.44716,2511.88362 L1016.13223,2511.88362 L1016.13223,2519.8631 L1014.44716,2519.8631 L1014.44716,2516.65996 L1011.33922,2516.65996 L1011.33922,2519.8631 L1009.65385,2519.8631 L1009.65385,2511.88362 Z M1028.59651,2515.89615 L1028.59651,2515.87339 C1028.59651,2514.50565 1027.63336,2513.3655 1026.27632,2513.3655 C1024.91929,2513.3655 1023.97829,2514.48257 1023.97829,2515.85031 L1023.97829,2515.87339 C1023.97829,2517.24113 1024.94144,2518.38096 1026.29848,2518.38096 C1027.6552,2518.38096 1028.59651,2517.26388 1028.59651,2515.89615 Z M1022.2166,2515.89615 L1022.2166,2515.87339 C1022.2166,2513.60494 1023.9349,2511.74678 1026.29848,2511.74678 C1028.66206,2511.74678 1030.3582,2513.58186 1030.3582,2515.85031 L1030.3582,2515.87339 C1030.3582,2518.14152 1028.64021,2520 1026.27632,2520 C1023.91274,2520 1022.2166,2518.1646 1022.2166,2515.89615 Z M1036.42482,2511.88362 L1038.24158,2511.88362 L1040.25498,2515.2576 L1042.26868,2511.88362 L1044.08514,2511.88362 L1044.08514,2519.8631 L1042.41116,2519.8631 L1042.41116,2514.65371 L1040.25498,2518.06199 L1040.21128,2518.06199 L1038.07757,2514.68769 L1038.07757,2519.8631 L1036.42482,2519.8631 L1036.42482,2511.88362 Z M1050.56555,2511.88362 L1056.34326,2511.88362 L1056.34326,2513.44528 L1052.23953,2513.44528 L1052.23953,2515.064 L1055.85091,2515.064 L1055.85091,2516.62566 L1052.23953,2516.62566 L1052.23953,2518.30111 L1056.39834,2518.30111 L1056.39834,2519.8631 L1050.56555,2519.8631 L1050.56555,2511.88362 Z" id="davidson"></path>
        </g>
    </g>
</svg>