<?xml version="1.0" encoding="UTF-8"?>
<svg width="130px" height="72px" viewBox="0 0 130 72" version="1.1" xmlns="http://www.w3.org/2000/svg" xmlns:xlink="http://www.w3.org/1999/xlink">
    <!-- Generator: Sketch 54.1 (76490) - https://sketchapp.com -->
    <title>drmartens</title>
    <desc>Created with Sketch.</desc>
    <g id="Home" stroke="none" stroke-width="1" fill="none" fill-rule="evenodd">
        <g id="Home-2" transform="translate(-578.000000, -2674.000000)" fill="#999999">
            <path d="M664.159414,2736.34671 C663.732154,2736.82086 663.37933,2736.65041 663.208625,2736.50526 L663.452029,2736.24846 C663.524479,2736.30974 663.696425,2736.3936 663.916258,2736.15094 C664.038084,2736.02962 664.135594,2735.85866 663.988956,2735.72493 C663.891446,2735.63932 663.769372,2735.71153 663.611072,2735.82293 L663.452029,2735.93111 C663.208625,2736.10306 662.977378,2736.25987 662.697005,2736.00505 C662.550615,2735.87007 662.35609,2735.55447 662.74638,2735.12771 C663.110866,2734.72575 663.463938,2734.86073 663.636132,2734.99397 L663.391488,2735.26219 C663.330451,2735.21355 663.172151,2735.11555 662.953559,2735.35895 C662.855552,2735.45671 662.782109,2735.61551 662.903687,2735.72493 C663.001198,2735.82293 663.099204,2735.74924 663.160241,2735.71153 L663.538126,2735.45671 C663.732154,2735.32322 663.963897,2735.22522 664.196383,2735.43165 C664.598335,2735.78571 664.268586,2736.22464 664.159414,2736.34671 L664.159414,2736.34671 Z M662.052145,2738.25945 L660.942809,2736.88165 L661.954139,2736.05294 L662.148911,2736.29733 L661.417707,2736.89356 L661.660863,2737.18709 L662.332271,2736.63825 L662.526796,2736.88165 L661.856628,2737.42999 L662.136754,2737.78356 L662.903687,2737.16153 L663.099204,2737.40667 L662.052145,2738.25945 Z M660.625713,2739.36681 L659.566745,2737.95402 L659.857787,2737.73444 L660.73563,2738.89265 L661.431105,2738.35572 L661.625134,2738.61228 L660.625713,2739.36681 Z M659.201266,2740.3171 C659.006494,2740.43917 658.432844,2740.68332 657.982261,2739.97643 C657.545077,2739.27029 658.019479,2738.86858 658.213508,2738.73386 C658.409273,2738.61228 658.993343,2738.36863 659.432513,2739.07452 C659.871186,2739.78191 659.395543,2740.19577 659.201266,2740.3171 L659.201266,2740.3171 Z M657.227734,2741.40088 C656.654829,2741.6944 656.386613,2741.41453 656.288606,2741.21876 L656.606198,2741.05996 C656.654829,2741.14631 656.776903,2741.2927 657.06869,2741.14631 C657.227734,2741.05996 657.372883,2740.93863 657.288027,2740.76793 C657.227734,2740.6466 657.092757,2740.67166 656.910391,2740.71905 L656.715866,2740.76793 C656.435492,2740.84063 656.155367,2740.90142 655.984661,2740.5605 C655.886655,2740.37789 655.826114,2740.02482 656.337734,2739.77049 C656.825286,2739.51344 657.117817,2739.77049 657.215576,2739.96403 L656.898481,2740.12307 C656.849353,2740.06054 656.740181,2739.90373 656.45956,2740.05037 C656.326072,2740.11091 656.204246,2740.23249 656.276697,2740.37789 C656.337734,2740.49971 656.45956,2740.47589 656.532258,2740.46448 L656.959022,2740.35432 C657.203418,2740.30544 657.44707,2740.28038 657.59222,2740.5739 C657.836864,2741.0483 657.372883,2741.32868 657.227734,2741.40088 L657.227734,2741.40088 Z M653.670462,2743.79001 C653.206233,2743.97213 652.439548,2744.16665 651.928176,2743.75279 C651.428218,2743.33893 651.610833,2742.53503 652.086475,2741.96163 C652.086475,2741.96163 651.514066,2741.70656 651.489255,2741.2927 C651.465683,2740.87785 651.781538,2740.36623 652.708012,2740.30544 C652.708012,2740.30544 652.902288,2740.03697 653.024114,2739.90373 C653.145444,2739.77049 653.256849,2739.71988 653.390089,2739.8427 C653.523576,2739.95236 653.572456,2740.05037 653.438968,2740.11091 C653.317638,2740.1722 653.243203,2740.3305 653.243203,2740.3305 C653.243203,2740.3305 653.719093,2740.5605 653.719093,2740.98727 C653.719093,2741.41453 653.231293,2741.79092 652.549464,2742.01051 C652.549464,2742.01051 652.427886,2742.18121 652.696102,2742.13357 C652.976724,2742.0966 653.670462,2741.81648 654.242375,2742.29088 C654.815032,2742.76553 654.132955,2743.59424 653.670462,2743.79001 L653.670462,2743.79001 Z M650.563774,2744.19147 C650.100041,2744.10586 650.24643,2743.97213 650.27149,2743.71706 C650.283648,2743.50939 650.332279,2742.29088 649.601323,2742.37673 C649.174311,2742.41221 649.223687,2743.2176 649.430866,2743.66719 C649.637052,2744.11877 649.819419,2744.46018 649.30904,2744.49591 C649.30904,2744.49591 649.004102,2744.6289 648.809826,2744.13092 C648.626962,2743.63097 648.394476,2742.7298 648.394476,2742.4003 C648.394476,2742.4003 648.394476,2742.0708 648.749285,2742.03606 C649.101861,2741.98644 649.125432,2742.03606 649.137094,2742.13357 C649.137094,2742.13357 649.589413,2741.77926 649.991365,2741.79092 C650.416888,2741.80308 651.026266,2741.97502 651.001454,2743.74088 C651.001454,2743.89918 651.061995,2744.27731 650.563774,2744.19147 L650.563774,2744.19147 Z M647.578911,2744.89935 C647.298785,2744.99537 646.957871,2744.94649 646.897082,2744.55794 C646.836541,2744.15474 646.738286,2743.16823 646.749948,2742.82756 C646.749948,2742.82756 646.665588,2742.43727 647.079449,2742.46134 C647.506708,2742.47449 647.469243,2742.59606 647.469243,2742.91192 C647.469243,2743.24092 647.591069,2744.09371 647.736218,2744.35026 C647.894765,2744.60557 647.871194,2744.80109 647.578911,2744.89935 L647.578911,2744.89935 Z M646.701565,2741.90109 C646.701565,2741.7671 646.859864,2741.64577 647.067291,2741.63411 C647.273477,2741.62096 647.445671,2741.71847 647.457333,2741.8532 C647.457333,2741.97502 647.298785,2742.0966 647.090862,2742.10851 C646.885172,2742.12042 646.713226,2742.02266 646.701565,2741.90109 L646.701565,2741.90109 Z M646.092186,2744.80109 C645.970608,2744.93458 645.105916,2745.32487 644.557327,2744.87404 C644.008985,2744.42321 643.911971,2743.58209 644.362802,2743.03474 C644.813881,2742.49831 645.617536,2742.36358 646.031397,2742.64395 C646.031397,2742.64395 646.385462,2742.81515 646.178035,2743.03474 C645.970608,2743.24092 645.836873,2743.18038 645.764422,2743.08238 C645.678573,2742.98462 645.129736,2742.86354 644.935459,2743.36275 C644.727784,2743.85055 644.874422,2744.07014 645.081601,2744.30163 C645.288283,2744.53288 645.703385,2744.48375 645.958947,2744.27731 C645.958947,2744.27731 646.166125,2744.05798 646.263636,2744.20387 C646.360154,2744.35026 646.202847,2744.67951 646.092186,2744.80109 L646.092186,2744.80109 Z M643.448734,2744.75246 C643.400351,2744.89935 643.36363,2745.27549 642.901137,2745.05641 C642.486284,2744.86188 642.656741,2744.76437 642.74259,2744.52097 C642.815785,2744.33835 643.204834,2743.18038 642.486284,2743.05905 C642.060264,2742.97271 641.877649,2743.75279 641.962506,2744.25225 C642.035949,2744.7403 642.108896,2745.11719 641.609682,2745.00728 C641.609682,2745.00728 641.292835,2745.05641 641.256609,2744.52097 C641.20773,2743.98404 641.231549,2743.05905 641.32906,2742.75461 C641.32906,2742.75461 641.389849,2742.43727 641.755079,2742.48516 C642.108896,2742.54694 642.108896,2742.59606 642.096738,2742.69258 C642.096738,2742.69258 642.620764,2742.47449 643.010557,2742.59606 C643.424419,2742.7298 643.961098,2743.05905 643.448734,2744.75246 L643.448734,2744.75246 Z M640.317978,2744.76437 C640.317978,2744.76437 640.1964,2745.06832 639.855486,2744.95964 C639.502165,2744.84923 639.502165,2744.80109 639.53839,2744.70333 C639.53839,2744.70333 638.941914,2744.92242 638.612909,2744.69167 C638.295814,2744.44678 637.80851,2744.04508 638.502993,2742.49831 C638.502993,2742.49831 638.636729,2741.99884 639.051086,2742.2549 C639.453534,2742.49831 639.270423,2742.571 639.136191,2742.80225 C639.038928,2742.98462 638.685608,2744.1798 639.19698,2744.30163 C639.721502,2744.42321 639.940838,2743.70366 639.927936,2743.2042 C639.916026,2742.70424 639.855486,2742.30279 640.330136,2742.48516 C640.330136,2742.48516 640.671547,2742.48516 640.635073,2743.02184 C640.598848,2743.54512 640.451962,2744.47184 640.317978,2744.76437 L640.317978,2744.76437 Z M637.857637,2743.14341 C637.857637,2743.29005 637.734819,2744.30163 636.492491,2744.30163 C635.249914,2744.30163 635.238005,2743.30196 635.262568,2742.96105 C635.262568,2742.96105 635.372237,2741.65743 636.675354,2741.74229 C637.967306,2741.84005 637.857637,2743.00993 637.857637,2743.14341 L637.857637,2743.14341 Z M634.251238,2741.73013 C634.251238,2741.73013 634.787422,2742.33951 634.714723,2742.81515 C634.653934,2743.29005 634.081029,2743.91109 633.27663,2743.91109 C632.472975,2743.91109 632.192601,2743.52105 632.167789,2742.89976 C632.131564,2742.27897 632.229323,2740.86569 632.351397,2740.54859 C632.472975,2740.24465 632.643184,2740.13473 633.142894,2740.13473 C633.642604,2740.13473 635.00651,2740.19577 635.00651,2741.01282 C635.00651,2741.2066 634.628626,2741.55967 634.251238,2741.73013 L634.251238,2741.73013 Z M629.171265,2741.6088 L628.84226,2741.45001 L629.207739,2740.74461 L628.586202,2740.42701 L628.233626,2741.1344 L627.904373,2740.96221 L628.696119,2739.39187 L629.025372,2739.56257 L628.733336,2740.1583 L629.341971,2740.46448 L629.646412,2739.86676 L629.975665,2740.03697 L629.171265,2741.6088 Z M627.380844,2739.01373 L626.61267,2740.24465 L626.296319,2740.05037 L627.075658,2738.81822 L626.61267,2738.53834 L626.783623,2738.27112 L628.002132,2739.02614 L627.843832,2739.29386 L627.380844,2739.01373 Z M624.907601,2739.11174 L624.615566,2738.88025 L625.687685,2737.46696 L625.97972,2737.69821 L624.907601,2739.11174 Z M623.238261,2737.78356 C623.676934,2737.01539 623.774941,2736.8695 623.957308,2736.57771 L623.94515,2736.5658 C623.676934,2736.78538 623.567018,2736.85783 622.824648,2737.40667 L622.568342,2737.17394 L623.372245,2735.52916 L623.676934,2735.79762 C623.189878,2736.66356 623.128345,2736.77174 623.019421,2736.94393 C623.165315,2736.83277 623.311456,2736.7112 624.067224,2736.15094 L624.35926,2736.40725 C623.859301,2737.2717 623.811166,2737.35754 623.689092,2737.55157 C623.822828,2737.45406 623.94515,2737.35754 624.773617,2736.78538 L625.053743,2737.04045 L623.494567,2738.01456 L623.238261,2737.78356 Z M642.687507,2741.36714 C629.825057,2741.36714 618.766922,2733.16732 614.282929,2721.60898 L610.459923,2721.89481 C613.925639,2735.61476 627.073921,2745.88661 642.687507,2745.88661 C660.033951,2745.88661 674.343428,2733.20305 675.701131,2717.16072 L672.396196,2717.41082 C669.180335,2731.1129 657.068442,2741.36714 642.687507,2741.36714 L642.687507,2741.36714 Z M633.337493,2741.86372 C632.887159,2741.8399 632.7894,2741.88903 632.7894,2742.37658 C632.7894,2742.87629 633.04521,2743.20405 633.252389,2743.18048 C633.446913,2743.14326 633.836955,2742.85098 633.873925,2742.32795 C633.910398,2741.80318 633.337493,2741.86372 633.337493,2741.86372 M633.166664,2740.57393 C632.838155,2740.57393 632.850809,2740.95156 632.850809,2740.95156 C632.813592,2741.46194 633.032928,2741.34036 633.42297,2741.34036 C633.800606,2741.34036 634.116957,2741.29248 634.116957,2740.93866 C634.116957,2740.59775 633.508323,2740.57393 633.166664,2740.57393 M636.626772,2742.21821 C636.090589,2742.15717 635.98092,2742.76555 635.969011,2742.97273 C635.944447,2743.32581 636.078927,2743.59427 636.578389,2743.61908 C637.065445,2743.64265 637.139137,2743.09555 637.175114,2742.89979 C637.199677,2742.66879 637.101919,2742.26634 636.626772,2742.21821 M652.780859,2742.52205 C652.208202,2742.74114 652.25733,2743.25276 652.25733,2743.25276 C652.390817,2743.6428 652.927249,2743.55844 653.353268,2743.42346 C653.767129,2743.30213 653.97406,2742.88827 653.86464,2742.64388 C653.75646,2742.41238 653.353268,2742.30271 652.780859,2742.52205 M652.829565,2741.3287 C653.10969,2741.18157 652.976699,2740.9265 652.939729,2740.81708 C652.902263,2740.71907 652.731558,2740.56053 652.341764,2740.79301 C651.953459,2741.01285 652.208277,2741.25575 652.208277,2741.25575 C652.317945,2741.43837 652.560853,2741.48725 652.829565,2741.3287 M658.385578,2739.00212 C658.213632,2739.11154 658.044663,2739.36686 658.299233,2739.78196 C658.567696,2740.20748 658.871641,2740.15835 659.030437,2740.05042 C659.201142,2739.95241 659.383261,2739.69636 659.114797,2739.27034 C658.84807,2738.85548 658.554794,2738.90436 658.385578,2739.00212 M608.030274,2693.24003 L608.030274,2695.68747 L608.637668,2695.68747 L610.567035,2695.68747 L610.567035,2693.24003 L608.637668,2693.24003 L608.030274,2693.24003 Z M587.110927,2678.53759 L589.469043,2678.53759 L589.504772,2678.53759 C592.398824,2678.55545 591.827159,2680.62774 591.827159,2684.75444 C591.827159,2688.93473 592.470282,2691.09634 589.647688,2691.02488 L589.504772,2691.02488 L587.110927,2690.97129 L587.110927,2678.53759 Z M592.631062,2695.68752 C596.168236,2695.68752 598.401301,2694.06185 598.401301,2691.9717 L598.472759,2677.78728 C598.472759,2676.5189 595.918133,2674 592.220179,2674 L589.504772,2674 L578.893251,2674 L578.893251,2678.34108 L579.500644,2678.37681 C580.125902,2678.4304 580.501057,2678.59118 580.483192,2679.16284 L580.483192,2690.52468 C580.483192,2690.97129 580.233089,2691.38217 579.589967,2691.34644 L578.893251,2691.34644 L578.893251,2695.68752 L589.504772,2695.68752 L592.631062,2695.68752 Z M606.083017,2693.34727 L605.189792,2693.34727 L605.189792,2689.38135 C605.189792,2688.05937 605.600675,2687.68422 606.136611,2687.66635 C606.672546,2687.66635 607.065566,2687.79141 607.08343,2689.39921 L608.637643,2689.38135 L609.245036,2689.38135 L609.245036,2686.95177 C609.245036,2686.41584 608.959204,2686.07641 608.637643,2685.86204 C608.226759,2685.59407 607.744417,2685.50475 607.63723,2685.50475 C606.279527,2685.55834 605.225521,2686.50516 605.029011,2686.9875 L605.029011,2685.77272 L600.866579,2685.77272 L600.866579,2688.13083 L601.491837,2688.13083 L601.491837,2693.34727 L600.866579,2693.34727 L600.866579,2695.68752 L606.083017,2695.68752 L606.083017,2693.34727 Z M622.643447,2725.84287 C627.002389,2732.68498 634.898505,2737.27616 643.884356,2737.27616 C656.05009,2737.27616 666.232864,2728.826 668.323012,2717.76811 C657.640032,2721.80549 645.456433,2725.69996 628.62806,2725.50345 C635.773866,2732.64925 642.901559,2733.3817 648.707775,2734.8642 C633.665853,2737.40121 626.591505,2728.93343 622.643447,2725.84287 M627.806317,2695.34807 C628.324388,2695.3838 628.824594,2695.41953 629.342665,2695.43739 C630.039381,2694.84786 630.753962,2694.25834 631.450678,2693.66881 C630.950472,2693.57948 630.432401,2693.49016 629.932194,2693.40084 C630.128704,2692.41829 630.325214,2691.43574 630.521723,2690.43533 C630.575317,2690.04231 630.62891,2689.64929 630.700368,2689.25627 C629.789278,2688.93471 628.878188,2688.63101 627.984962,2688.32732 C627.842046,2688.63101 627.69913,2688.93471 627.556214,2689.25627 C627.859911,2689.55997 628.181472,2689.88153 628.485169,2690.18523 C628.270794,2691.91808 628.038556,2693.63308 627.806317,2695.34807 M629.396209,2685.55832 C629.431938,2685.68337 629.574854,2685.77269 629.699906,2685.73696 C630.11079,2685.62977 630.521674,2685.54045 630.932557,2685.43326 C631.075474,2685.4154 631.164796,2685.27248 631.129067,2685.12957 C631.039745,2684.80801 630.968286,2684.46858 630.896828,2684.14702 C630.861099,2684.0041 630.718183,2683.93265 630.575267,2683.95051 C630.164383,2684.0577 629.753499,2684.14702 629.342616,2684.25421 C629.217564,2684.28994 629.128241,2684.43285 629.16397,2684.5579 C629.235429,2684.89733 629.324751,2685.21889 629.396209,2685.55832 M634.755588,2695.27661 C635.184337,2694.88359 635.613085,2694.47271 636.041834,2694.07969 C635.756001,2693.66881 635.470169,2693.24006 635.184337,2692.81131 C635.362982,2691.97168 635.523763,2691.11418 635.702408,2690.27455 C635.970375,2690.18523 636.256208,2690.0959 636.54204,2690.02444 C636.774279,2690.27455 636.988653,2690.52465 637.220891,2690.77475 C637.524588,2690.81048 637.84615,2690.82835 638.149846,2690.86408 C638.239169,2690.38174 638.328491,2689.89939 638.399949,2689.41705 C637.703233,2689.07763 636.988653,2688.7382 636.291937,2688.39877 C635.380846,2688.38091 634.487621,2688.34518 633.57653,2688.32732 C633.665853,2688.77393 633.737311,2689.22054 633.826634,2689.68502 C633.540801,2691.09632 633.272834,2692.50761 632.987001,2693.91891 C633.57653,2694.36552 634.166059,2694.81213 634.755588,2695.27661 M640.34733,2691.88243 C640.954476,2692.6506 641.544253,2693.40091 642.133534,2694.16909 C642.419614,2694.02617 642.705446,2693.88325 642.991031,2693.74034 L642.991031,2692.6506 C643.491485,2692.27545 644.009556,2691.91816 644.509514,2691.543 C644.741753,2692.47196 644.956375,2693.40091 645.188614,2694.34773 C645.920811,2693.63315 646.63564,2692.91857 647.368085,2692.22185 C648.243198,2689.9352 649.118807,2687.64854 649.994168,2685.36188 C650.172814,2685.23683 650.333346,2685.11178 650.512239,2684.98673 C650.762343,2684.79022 651.012198,2684.61157 651.280165,2684.41506 C651.673185,2684.16496 652.066204,2683.91486 652.459223,2683.66475 L652.459223,2682.7358 C651.816349,2682.70007 651.155362,2682.6822 650.512239,2682.66434 C650.369323,2682.64647 650.226159,2682.64647 650.083243,2682.64647 C648.904185,2684.87954 647.707262,2687.1126 646.528204,2689.34567 C646.385536,2689.22062 646.24262,2689.11343 646.099704,2689.00624 C645.992517,2687.32698 645.885082,2685.66558 645.778143,2684.00418 C644.884669,2684.55798 643.973579,2685.12964 643.062489,2685.70131 C643.205653,2686.18365 643.348569,2686.64813 643.491485,2687.13047 C643.152059,2687.59495 642.812633,2688.04156 642.47296,2688.48817 L641.883431,2688.48817 C641.776492,2686.38016 641.65144,2684.25428 641.544253,2682.1284 C640.757966,2682.84298 639.954311,2683.5397 639.168272,2684.25428 C639.471969,2684.8974 639.79353,2685.55839 640.097227,2686.20151 C640.18655,2688.09515 640.275624,2689.98879 640.34733,2691.88243 M658.711952,2684.11129 C658.729817,2684.23634 658.872485,2684.32566 659.015649,2684.28994 C659.426533,2684.20061 659.837417,2684.09343 660.248053,2684.0041 C660.391217,2683.96837 660.462675,2683.82546 660.426946,2683.70041 C660.355488,2683.36098 660.28403,2683.03942 660.194707,2682.69999 C660.158978,2682.57494 660.033927,2682.48562 659.89101,2682.52135 C659.480127,2682.61067 659.068995,2682.71786 658.658359,2682.80718 C658.515443,2682.84291 658.42612,2682.98583 658.461849,2683.12874 C658.551172,2683.4503 658.62263,2683.77186 658.711952,2684.11129 M663.731732,2693.82956 C664.160729,2693.43654 664.571613,2693.04352 665.000113,2692.6505 C664.714281,2692.22176 664.446561,2691.79301 664.160729,2691.38212 C664.321261,2690.52463 664.500155,2689.68499 664.660687,2688.8275 C664.946519,2688.73818 665.2326,2688.66672 665.518184,2688.57739 C665.732558,2688.8275 665.964797,2689.0776 666.197283,2689.34557 C666.500732,2689.36343 666.804677,2689.39916 667.126238,2689.41703 C667.197696,2688.93468 667.286771,2688.47021 667.376093,2687.98787 C666.661761,2687.64844 665.964797,2687.30901 665.250216,2686.96959 C664.357238,2686.93386 663.446148,2686.91599 662.552674,2686.88027 C662.624132,2687.32688 662.713455,2687.79136 662.803026,2688.23797 C662.516945,2689.64927 662.231113,2691.06056 661.945529,2692.47186 C662.552674,2692.91847 663.142203,2693.38295 663.731732,2693.82956 M657.800887,2688.7383 C657.5684,2690.47116 657.354274,2692.18615 657.122035,2693.91901 C657.621994,2693.93687 658.140313,2693.9726 658.640519,2694.00833 C659.3551,2693.40094 660.051568,2692.81141 660.766396,2692.22188 C660.248077,2692.13256 659.748119,2692.04323 659.247913,2691.97178 C659.444422,2690.97136 659.640932,2689.98882 659.837442,2689.00627 C659.891035,2688.61325 659.944629,2688.20236 659.997974,2687.80934 C659.104997,2687.50565 658.193906,2687.18409 657.282816,2686.88039 C657.1399,2687.18409 657.014848,2687.50565 656.871932,2687.80934 C657.175381,2688.13091 657.479326,2688.4346 657.800887,2688.7383 M651.351748,2693.40094 C651.065915,2693.38307 650.797948,2693.36521 650.512115,2693.34734 C650.404928,2693.34734 650.279877,2693.32948 650.17269,2693.32948 C650.226283,2693.09724 650.279877,2692.865 650.33347,2692.65063 C650.404928,2692.59703 650.458522,2692.56131 650.512115,2692.52558 C650.940864,2692.22188 651.351748,2691.91818 651.780496,2691.63235 C651.923412,2691.73954 652.066328,2691.84672 652.209244,2691.97178 C651.923412,2692.45412 651.63758,2692.9186 651.351748,2693.40094 M651.941277,2688.32742 C652.173515,2688.39887 652.405754,2688.4882 652.620128,2688.57752 C652.602264,2688.88122 652.566535,2689.20278 652.54867,2689.50647 C651.869818,2689.98882 651.190967,2690.45329 650.512115,2690.93563 C649.851128,2691.40011 649.208006,2691.84672 648.564883,2692.3112 C648.67207,2692.79354 648.779257,2693.25802 648.904309,2693.74036 C649.404515,2694.16911 649.922586,2694.59786 650.422793,2695.02661 C650.458522,2695.0085 650.476386,2694.99088 650.512115,2694.99088 C651.137373,2694.74078 651.744767,2694.49067 652.370025,2694.25843 C652.798773,2694.68718 653.227522,2695.09807 653.638405,2695.52681 C654.01356,2694.74078 654.370851,2693.93687 654.746005,2693.15083 C654.549496,2692.79354 654.352986,2692.41839 654.156476,2692.04323 C654.442309,2690.48902 654.710276,2688.93481 654.996109,2687.39846 L652.030599,2687.39846 C652.012735,2687.70216 651.977006,2688.00585 651.941277,2688.32742 M622.17897,2691.43574 C622.268293,2691.23923 622.37548,2691.06059 622.464802,2690.86408 C622.607718,2691.59652 622.750634,2692.32897 622.893551,2693.06141 C622.661312,2693.02568 622.411209,2692.98995 622.17897,2692.93636 C621.928867,2692.90063 621.696628,2692.8649 621.446525,2692.81131 C621.696628,2692.34683 621.928867,2691.90022 622.17897,2691.43574 M620.696215,2695.02651 C621.178557,2695.04437 621.678764,2695.06224 622.17897,2695.0801 C622.304022,2695.09797 622.429073,2695.09797 622.554125,2695.09797 C622.92928,2696.11624 623.28657,2697.13452 623.661725,2698.1528 C624.537086,2697.56327 625.412447,2696.97374 626.287808,2696.36635 C625.751873,2695.91973 625.215938,2695.47312 624.680002,2695.02651 L624.680002,2685.27248 C624.340576,2685.29035 624.001151,2685.32608 623.661725,2685.36181 C623.09006,2686.14785 622.607718,2686.98748 622.17897,2687.86284 C621.607306,2689.05976 621.142828,2690.29241 620.696215,2691.54293 C620.106686,2692.98995 619.499293,2694.41912 618.909764,2695.86614 C618.481015,2695.77682 618.070132,2695.6875 617.641383,2695.61604 C617.534196,2695.90187 617.409145,2696.16984 617.301957,2696.45567 C618.070132,2697.11666 618.820441,2697.75978 619.588615,2698.4029 C619.96377,2697.27744 620.32106,2696.15197 620.696215,2695.02651 M702.480113,2697.74192 L707.124887,2694.47271 L706.66041,2693.81172 L702.480113,2696.7415 L701.9082,2697.13452 C701.944178,2697.45608 701.854607,2697.81337 701.586639,2698.04561 L700.425694,2698.86738 C700.175591,2698.90311 699.907623,2698.83165 699.675136,2698.7066 L697.99612,2699.86779 L695.173526,2701.85075 L695.638004,2702.52961 L697.99612,2700.86821 L702.480113,2697.74192 Z M697.996045,2696.25914 L699.175103,2695.4195 C699.818226,2694.95503 700.514694,2694.9193 700.890097,2695.36591 L701.5687,2696.38419 L702.480039,2695.74106 L706.177993,2693.15071 L704.480864,2690.77473 C703.873223,2690.22093 703.230348,2689.9351 702.480039,2690.00656 C701.926239,2690.06015 701.33671,2690.31025 700.639994,2690.79259 L697.996045,2692.59691 L697.495591,2692.9542 C696.942039,2693.38295 696.281052,2693.49014 695.834439,2693.11498 L695.101994,2692.06097 C694.780433,2691.52504 694.851891,2691.41785 695.137475,2691.00697 L696.513043,2690.06015 C696.995633,2689.89937 697.495591,2690.39957 697.996045,2690.56036 L698.013662,2690.57822 L701.836668,2687.84495 L699.192968,2684.03981 L697.996045,2684.8973 L689.545882,2690.82832 C689.010194,2691.34639 688.742227,2691.88233 688.706498,2692.43613 L688.706498,2692.63264 C688.724362,2693.02566 688.867278,2693.43654 689.135246,2693.84743 L691.778946,2697.58111 C693.208355,2698.99241 694.173039,2698.76017 695.352097,2698.11705 L697.996045,2696.25914 Z M702.480113,2700.72526 L697.99612,2703.85155 L697.031188,2704.53041 L697.495665,2705.20926 L697.99612,2704.85197 L702.480113,2701.70781 L707.035316,2698.52793 C707.589364,2697.9384 707.928542,2697.40246 708,2696.84866 L702.480113,2700.72526 Z M698.978594,2698.1886 C698.853542,2698.08142 698.76422,2697.97423 698.674649,2697.88491 L697.996045,2698.34938 L694.458871,2700.83255 L694.708975,2701.18984 L697.996045,2698.88532 L698.978594,2698.1886 Z M702.480113,2699.72493 L707.910926,2695.90192 C707.839467,2695.66968 707.73228,2695.41958 707.5715,2695.15161 L702.480113,2698.72451 L697.99612,2701.86867 L696.102481,2703.19064 L696.566959,2703.86949 L697.99612,2702.85122 L702.480113,2699.72493 Z M622.339726,2719.03659 L622.339726,2718.21457 L614.032726,2718.21457 L606.940514,2718.21457 C607.011972,2718.35774 607.101295,2718.50066 607.190617,2718.62571 C607.27994,2718.76862 607.369262,2718.89367 607.458585,2719.03659 L614.032726,2719.03659 L622.339726,2719.03659 Z M612.085594,2721.21586 C612.800174,2721.21586 613.443297,2721.10868 614.032826,2720.85882 C614.175742,2720.80498 614.318658,2720.73377 614.44371,2720.66206 C614.854593,2720.42982 615.229748,2720.16186 615.569174,2719.8403 L614.032826,2719.8403 L608.1554,2719.8403 C609.120084,2720.76925 610.334871,2721.23373 611.817626,2721.25184 L612.085594,2721.21586 Z M612.246349,2714.28456 C611.871195,2713.62357 611.674685,2712.89112 611.674685,2712.05149 L611.674685,2711.89071 L611.674685,2711.74779 C611.728278,2711.01535 611.942653,2710.35436 612.317807,2709.74697 C612.692962,2709.15744 613.264627,2708.83588 614.014936,2708.78228 L614.032801,2708.78228 C614.711652,2708.81801 615.283317,2709.12171 615.712065,2709.69338 C616.158678,2710.2829 616.373052,2711.06894 616.373052,2712.05149 C616.373052,2713.0519 616.158678,2713.83794 615.712065,2714.40961 C615.283317,2714.99914 614.711652,2715.30283 614.032801,2715.33856 L614.014936,2715.33856 C613.211033,2715.30283 612.621504,2714.94554 612.246349,2714.28456 L612.246349,2714.28456 Z M622.3398,2715.76731 L622.3398,2715.33856 C621.750271,2715.33856 621.07142,2715.33856 621.125013,2714.07018 L621.125013,2704.60199 L616.462375,2704.60199 L616.194407,2704.60199 L616.194407,2706.1562 C615.569149,2705.2987 614.908162,2704.72704 614.229311,2704.44121 C614.175717,2704.40548 614.104259,2704.38761 614.032801,2704.35189 C613.425407,2704.11965 612.76442,2704.01246 612.085569,2704.01246 L611.817601,2704.01246 C609.870369,2704.01246 608.423343,2704.72704 607.440795,2706.1562 C606.476111,2707.60323 605.886582,2709.19317 605.690072,2710.92603 C605.654343,2711.21186 605.618614,2711.49769 605.60075,2711.78352 C605.582885,2712.06936 605.582885,2712.35519 605.582885,2712.60529 C605.582885,2713.73076 605.707937,2714.78476 605.95804,2715.76731 L614.032801,2715.76731 L622.3398,2715.76731 Z M622.053943,2720.66196 L622.339775,2720.66196 L622.339775,2719.8402 L616.194382,2719.8402 L616.194382,2720.66196 L622.053943,2720.66196 Z M622.339726,2717.39281 L622.339726,2716.5889 L614.032726,2716.5889 L606.208069,2716.5889 C606.315256,2716.85687 606.422443,2717.1427 606.52963,2717.39281 L614.032726,2717.39281 L622.339726,2717.39281 Z M661.248614,2704.04809 C661.534447,2703.97663 661.802414,2703.9409 662.017037,2703.95877 C662.320485,2703.95877 662.570588,2704.06595 662.749234,2704.2446 C663.071043,2704.5483 663.356627,2705.15569 663.589114,2706.06678 L663.767511,2706.69204 L662.017037,2707.15651 L660.31966,2707.60313 L660.158879,2706.99573 C659.730131,2705.3522 660.087421,2704.36965 661.248614,2704.04809 L661.248614,2704.04809 Z M654.781908,2706.51339 C654.799524,2706.96001 654.870983,2707.44235 655.013899,2707.92469 L656.889921,2714.96356 C656.925402,2715.10622 656.978995,2715.267 657.032589,2715.40992 L662.017037,2714.07008 L662.088247,2714.05222 C662.07063,2713.98076 662.052517,2713.92717 662.017037,2713.85571 C661.981059,2713.71279 661.927466,2713.56988 661.891737,2713.40909 L661.177156,2710.74728 L662.017037,2710.51504 L664.857246,2709.76473 L667.787275,2708.9787 L669.644936,2708.47849 L668.537336,2704.36965 C668.358691,2703.6908 668.108588,2703.10127 667.787275,2702.5832 C667.179633,2701.63638 666.322137,2700.97539 665.196672,2700.58237 C665.089485,2700.54664 664.964682,2700.51092 664.857246,2700.47519 C663.982133,2700.22508 663.035066,2700.13576 662.017037,2700.24295 C661.462988,2700.29654 660.873459,2700.40373 660.283931,2700.56451 C658.443885,2701.06472 657.014972,2701.88648 656.032424,2703.04768 C655.246385,2703.95877 654.835253,2704.97704 654.781908,2706.10251 L654.781908,2706.51339 Z M665.429084,2713.99862 C665.41122,2714.08795 665.393107,2714.17727 665.357626,2714.26659 C665.268304,2714.53456 665.089659,2714.74869 664.857172,2714.92758 C664.768097,2714.98117 664.678775,2715.0169 664.589204,2715.07049 L664.857172,2714.99904 L667.7872,2714.213 L670.62741,2713.44482 C670.663387,2713.17686 670.663387,2712.89102 670.62741,2712.60519 L667.7872,2713.37337 L665.429084,2713.99862 Z M669.412772,2716.32111 L669.430637,2716.30325 L667.787101,2716.73175 L664.857321,2717.51778 L662.016863,2718.28621 L660.26614,2718.75068 C660.81994,2718.94719 661.409469,2719.07225 662.016863,2719.12584 C662.910089,2719.1973 663.856908,2719.10773 664.857321,2718.87574 C664.946643,2718.85787 665.05383,2718.82189 665.161017,2718.80428 C666.16143,2718.53631 667.036792,2718.16116 667.787101,2717.71454 C668.412359,2717.32152 668.966159,2716.8568 669.412772,2716.32111 M663.785524,2715.28477 C663.338663,2715.32075 662.999486,2715.23142 662.713653,2714.99919 C662.642195,2714.92773 662.570737,2714.85602 662.517144,2714.78456 L662.016937,2714.90961 L657.336434,2716.16013 C657.461486,2716.4281 657.604402,2716.66059 657.764935,2716.89258 L662.016937,2715.7495 L663.785524,2715.28477 Z M670.484717,2714.32016 L667.787176,2715.05261 L664.857147,2715.83864 L662.016937,2716.58895 L658.336847,2717.58961 C658.58695,2717.82161 658.854918,2718.03598 659.140502,2718.21462 L662.016937,2717.4467 L664.857147,2716.67852 L667.787176,2715.89249 L670.127427,2715.26698 C670.270343,2714.96353 670.395395,2714.65959 670.484717,2714.32016 M665.036065,2711.46196 L665.321649,2712.4981 C665.375243,2712.73034 665.429084,2712.94472 665.446701,2713.14123 L667.7872,2712.51597 L670.520471,2711.78352 C670.484742,2711.65847 670.466878,2711.51556 670.413284,2711.37264 L670.091723,2710.12212 L667.7872,2710.72952 L665.036065,2711.46196 Z M643.062563,2719.80469 L643.134021,2720.62646 L647.475098,2720.23344 L652.602214,2719.78683 L652.530756,2718.98267 L647.475098,2719.42954 L643.062563,2719.80469 Z M642.097954,2704.03027 L642.455244,2708.22844 L643.598573,2708.53213 L644.116644,2709.67546 L644.438205,2713.44487 C644.366747,2714.26664 643.884405,2715.10627 642.651505,2715.21346 L642.705347,2715.7494 L647.475173,2715.33851 L652.173292,2714.92763 L652.137811,2714.37383 C650.887295,2714.49888 650.279901,2713.74857 650.065527,2712.96253 L649.726101,2709.19312 L650.047663,2707.97833 L651.119286,2707.47813 L650.744379,2703.27996 C649.95834,2703.22637 649.618914,2702.88695 649.422405,2702.24382 L649.029385,2697.81342 L647.475173,2697.95634 L642.830399,2698.34936 L643.205554,2702.77976 C643.134096,2703.44075 642.848263,2703.85163 642.097954,2704.03027 M647.475148,2717.78583 L642.919697,2718.19671 L642.991155,2719.00061 L647.475148,2718.60784 L652.459347,2718.16123 L652.387889,2717.35708 L647.475148,2717.78583 Z M647.475148,2716.16021 L642.776532,2716.57109 L642.848487,2717.37499 L647.475148,2716.96411 L652.316431,2716.55322 L652.244973,2715.73146 L647.475148,2716.16021 Z M692.118496,2707.08511 L691.850528,2706.31693 L688.956477,2707.37094 L685.222793,2708.72864 L685.490761,2709.49682 L688.956477,2708.22844 L692.118496,2707.08511 Z M691.564845,2705.54878 L691.279013,2704.78061 L688.956378,2705.63811 L684.669142,2707.19232 L684.93711,2707.96049 L688.956378,2706.4956 L691.564845,2705.54878 Z M688.956452,2709.10375 L685.776816,2710.26494 L686.062401,2711.01525 L688.956452,2709.96124 L692.672519,2708.60354 L692.404303,2707.85323 L688.956452,2709.10375 Z M691.010946,2704.01236 L690.814436,2703.51215 C690.207042,2703.85158 689.313817,2703.6908 688.956526,2702.8869 L688.081165,2700.51092 L688.188352,2700.47519 L686.759191,2696.29489 C686.276849,2694.49057 683.400662,2692.63266 680.810308,2694.00823 C680.506611,2694.18688 680.202914,2694.41912 679.952811,2694.66922 C678.809482,2695.79468 678.202089,2697.50968 678.166359,2697.95629 L677.61256,2696.41994 L670.788315,2698.88524 L672.235341,2702.85117 L673.396534,2702.85117 L674.182573,2703.83371 L675.486682,2707.38875 C675.629598,2708.19266 675.772514,2708.99656 674.629434,2709.40744 L674.807831,2709.90765 L679.952811,2708.04974 L682.578895,2707.08506 L682.400249,2706.56699 C682.114665,2706.79922 681.64994,2706.47766 681.29265,2705.67376 L680.202914,2702.67252 C680.095727,2702.38669 680.006405,2702.08299 679.952811,2701.7793 C679.845624,2701.27909 679.827759,2700.76102 679.952811,2700.35013 C680.059998,2700.01071 680.256508,2699.74274 680.595933,2699.61769 C681.185462,2699.42118 681.667804,2699.74274 682.185875,2700.40373 L684.186701,2705.92386 L684.383211,2706.42407 L688.956526,2704.76267 L691.010946,2704.01236 Z M683.132695,2708.62143 L682.864727,2707.85326 L679.952811,2708.90726 L675.093663,2710.67585 L675.361631,2711.44402 L679.952811,2709.78262 L683.132695,2708.62143 Z M679.952712,2712.373 L676.201412,2713.74857 L676.486996,2714.49888 L679.952712,2713.24836 L684.258308,2711.67629 L683.972228,2710.90811 L679.952712,2712.373 Z M683.704285,2710.13994 L683.418701,2709.38963 L679.952737,2710.64014 L675.647388,2712.21222 L675.915356,2712.9804 L679.952737,2711.51551 L683.704285,2710.13994 Z M624.912315,2720.66199 L634.005353,2720.66199 L634.005353,2719.84022 L624.912315,2719.84022 L624.912315,2720.66199 Z M624.912315,2717.39278 L634.005353,2717.39278 L634.005353,2716.58888 L624.912315,2716.58888 L624.912315,2717.39278 Z M624.912315,2719.03657 L634.005353,2719.03657 L634.005353,2718.21455 L624.912315,2718.21455 L624.912315,2719.03657 Z M624.912266,2704.03027 L624.912266,2708.2463 L626.019865,2708.65718 L626.412885,2709.83624 L626.412885,2713.62352 C626.287833,2714.42742 626.144917,2715.23157 624.912266,2715.23157 L624.912266,2715.76726 L634.005304,2715.76726 L634.005304,2715.23157 C633.308588,2715.33851 632.522549,2714.89165 632.468955,2713.99867 L632.468955,2710.81879 C632.468955,2709.56827 632.84411,2708.06765 633.880252,2708.08552 C634.916394,2708.10338 635.220091,2709.44322 635.577381,2711.46191 L639.989916,2711.46191 L640.079239,2707.04938 C639.882481,2705.4773 638.310652,2702.92267 636.006129,2702.88695 C634.058897,2702.85122 632.397497,2705.19147 632.165259,2705.69167 L632.165259,2704.03027 L624.912266,2704.03027 Z M590.022818,2705.60235 L585.753199,2698.47441 L578,2698.47441 L578,2703.10132 L579.357703,2703.10132 C580.233064,2703.15491 580.822593,2703.65512 580.894051,2704.6198 L580.876187,2713.19477 C580.911916,2714.15945 580.590355,2714.96361 579.357703,2715.30278 L578,2715.30278 L578,2715.76726 L588.647251,2715.76726 L588.647251,2715.30278 L587.646838,2715.30278 C586.967986,2714.71325 586.735748,2714.89165 586.592832,2713.92722 L586.574967,2711.2654 L590.451567,2714.69539 L594.203115,2711.49764 L594.18525,2714.21305 C594.095928,2714.85617 593.899418,2715.12414 592.809683,2715.30278 L592.809683,2715.76726 L603.564121,2715.76726 L603.564121,2715.30278 L602.206418,2715.30278 C601.223869,2715.28467 600.670069,2714.55247 600.580747,2713.62352 L600.580747,2704.88777 C600.491424,2703.83376 601.223869,2703.24424 602.206418,2703.10132 L603.564121,2703.10132 L603.564121,2698.47441 L593.399212,2698.47441 L590.022818,2705.60235 Z M592.809782,2720.73369 L603.56422,2720.73369 L603.56422,2719.84022 L592.809782,2719.84022 L592.809782,2720.73369 Z M578.000099,2719.03657 L588.64735,2719.03657 L588.64735,2718.21455 L578.000099,2718.21455 L578.000099,2719.03657 Z M592.809782,2717.39278 L603.56422,2717.39278 L603.56422,2716.58888 L592.809782,2716.58888 L592.809782,2717.39278 Z M578.000099,2717.39278 L588.64735,2717.39278 L588.64735,2716.58888 L578.000099,2716.58888 L578.000099,2717.39278 Z M578.000099,2720.73369 L588.64735,2720.73369 L588.64735,2719.84022 L578.000099,2719.84022 L578.000099,2720.73369 Z M592.809782,2719.03657 L603.56422,2719.03657 L603.56422,2718.21455 L592.809782,2718.21455 L592.809782,2719.03657 Z" id="drmartens"></path>
        </g>
    </g>
</svg>