<?xml version="1.0" encoding="utf-8"?>
<!-- Generator: Adobe Illustrator 21.1.0, SVG Export Plug-In . SVG Version: 6.00 Build 0)  -->
<svg version="1.1" id="Layer_1" xmlns="http://www.w3.org/2000/svg" xmlns:xlink="http://www.w3.org/1999/xlink" x="0px" y="0px"
	 viewBox="0 0 130 40" style="enable-background:new 0 0 130 40;" xml:space="preserve">
<style type="text/css">
	.st0{fill:#999999;}
</style>
<title>mayhew</title>
<desc>Created with Sketch.</desc>
<g>
	<g>
		<g>
			<path class="st0" d="M5.3,5.7c1.7-2.6,4.4-5,7.7-5c1.3-0.3,2.4,0.8,3.7,0.4c1.7-0.6,3.7-0.6,5.3,0.3c1.4-0.6,2.9-0.7,4.4-0.5
				c3,0.6,5.2,3,6.7,5.5c3.3,5.7,3.8,12.5,2.9,18.8c-0.8,4.5-2.5,9.1-6.1,12.1c-2.2,1.8-5.3,2.3-7.9,1.2c-1,0.3-2.1,0.7-3.2,0.6
				c-1,0.1-1.9-0.4-2.9-0.6c-1.8,0.8-3.9,0.9-5.7,0.1c-2.8-1.2-4.7-3.7-6-6.4c-2.4-4.9-3-10.6-2.4-15.9C2.2,12.6,3.3,8.9,5.3,5.7z
				 M7.5,7.6c-2.5,5.4-3,11.5-2.2,17.3c0.8,5.4,3.2,10.9,7.7,14.1c3.7-2.7,6-7.1,7.1-11.5c1.3-5.3,1.2-11-0.3-16.2
				c-0.7-1.7,0.6-3.3,1.3-4.8c2.3,4.1,3.2,8.8,3.2,13.4c-0.1,4.4-0.8,9-3,12.9c-0.2,0.5-0.6,0.9-0.7,1.4c0.1,0.5,0.6,0.8,0.7,1.3
				c-0.3,0.7-0.9,1.1-1.3,1.7c-0.3-0.3-0.7-0.6-1-0.9c-0.6,0.4-1.1,0.9-1.6,1.3c0.4,0.6,1,1,1.6,1.4c2.6-1.9,4.5-4.5,5.7-7.4
				c1.7-3.9,2.4-8.2,2.3-12.5C26.9,14,25.7,8.6,22.5,4.4C23,3.8,23.3,3.1,24,2.7c1.1,1,2.1,2.1,2.9,3.4c2.6,4.2,3.5,9.2,3.4,14.1
				c0.1,3.6-0.6,7.2-1.9,10.5c-1,2.6-2.6,5-4.8,6.8c-0.2,0.8,0.9,1.1,1.4,1.5c2.6-1.9,4.5-4.6,5.8-7.6c1.7-3.8,2.2-7.9,2.2-12
				c-0.1-2-0.2-3.9-0.6-5.8c-1-4.9-3.3-9.7-7.4-12.8c-1.2,0.7-2.2,1.8-3.1,2.8c-3.5,4.5-5,10.4-5,16c-0.1,3.1,0.3,6.2,1.2,9.2
				c0.1,0.3,0.2,0.7,0.1,1c-0.4,1.2-1,2.3-1.5,3.5c-2.1-3.5-3-7.7-3.2-11.8c-0.2-5.5,0.7-11.2,3.7-15.8c-0.3-0.5-0.5-0.9-0.9-1.3
				c0.4-0.6,0.9-1.2,1.4-1.8c0.4,0.3,0.7,0.7,1.1,1c0.5-0.5,1-1,1.6-1.4c-0.5-0.5-1-1-1.6-1.4c-1.3,0.9-2.5,2.1-3.4,3.4
				c-3.3,4.4-4.6,10.1-4.6,15.5C10.9,25,12,30.5,15.1,35c0.6,0.9-0.7,1.6-1.1,2.2c-3-2.5-4.6-6.2-5.6-9.9C7.2,21.9,7.3,16.1,9,10.8
				c1.1-3.3,2.8-6.4,5.5-8.6c-0.3-0.7-1-1-1.5-1.4C10.5,2.5,8.8,5,7.5,7.6z"/>
		</g>
	</g>
	<g>
		<path class="st0" d="M44.2,8.4c2.7-0.2,5.5,0,8.3-0.1c0.5,0,1,0,1.5,0c0,0.2,0,0.7,0,0.9c-0.6,0.1-1.3,0.2-1.8,0.7
			c-0.4,0.4-0.4,1.1-0.4,1.6c0,5,0.1,10-0.1,14.9c-0.2,1.8-0.9,3.6-2.5,4.6c-2,1.2-4.6,1.2-6.7,0.4c-1.9-0.7-2.9-2.7-3.1-4.6
			c0.4,0,0.8,0,1.1,0c0.3,0.7,0.6,1.5,1.2,2c1.2,1.1,3.3,1.2,4.4-0.1c0.7-0.9,0.7-2.2,0.8-3.3c0-4.6,0-9.1,0-13.7
			c0-0.8-0.1-1.8-0.9-2.2c-0.5-0.2-1.1-0.3-1.7-0.4C44.2,9.1,44.2,8.6,44.2,8.4z"/>
		<path class="st0" d="M55.4,8.4c3.3,0,6.6-0.1,9.8,0c0,0.3,0,0.6,0,0.9c-1.1,0.1-2.6,0.4-2.5,1.8c-0.2,4.8,0,9.6-0.1,14.4
			c0,1.3-0.1,2.7,0.6,3.8c1.3,0.5,2.6,0.5,4,0.4c1.6-0.1,2.8-1.3,3.4-2.7c0.4,0,0.8,0,1.2,0c-0.6,1.5-1.1,3-1.6,4.5
			c-4.9,0-9.9,0-14.8,0c0-0.3,0-0.6,0-0.9c0.6-0.2,1.3-0.2,1.8-0.7c0.4-0.5,0.5-1.2,0.5-1.8c0-5.5,0-10.9,0-16.4
			c0-0.6,0-1.3-0.5-1.8c-0.5-0.5-1.2-0.5-1.8-0.7C55.4,9,55.4,8.7,55.4,8.4z"/>
		<path class="st0" d="M71.6,8.5c2.4-0.2,4.8,0,7.1-0.1c0.9,0,1.8,0,2.7,0.1c0,0.3,0,0.6,0,0.8c-0.7,0.2-1.7,0.1-2.2,0.8
			c-0.5,0.7-0.4,1.5-0.4,2.3c0,4.6,0,9.3,0,13.9c0,0.9,0,1.8,0.4,2.6c0.5,0.7,1.4,0.8,2.1,0.8c1.1,0,2.4,0.1,3.4-0.4
			c1-0.5,1.6-1.4,2.1-2.3c0.4,0,0.8,0,1.2,0c-0.5,1.5-1,3-1.5,4.5c-4.9,0-9.9,0-14.8,0c0-0.3,0-0.6-0.1-0.8c0.6-0.2,1.4-0.2,1.8-0.7
			c0.5-0.5,0.5-1.3,0.5-2c0-5.5,0-11,0-16.5c0-0.7-0.3-1.3-0.9-1.8c-0.5-0.1-1-0.2-1.4-0.3C71.6,9.1,71.6,8.7,71.6,8.5z"/>
	</g>
</g>
</svg>
