<?xml version="1.0" encoding="UTF-8"?>
<svg width="130px" height="30px" viewBox="0 0 130 30" version="1.1" xmlns="http://www.w3.org/2000/svg" xmlns:xlink="http://www.w3.org/1999/xlink">
    <!-- Generator: Sketch 54.1 (76490) - https://sketchapp.com -->
    <title>liberty</title>
    <desc>Created with Sketch.</desc>
    <g id="Home" stroke="none" stroke-width="1" fill="none" fill-rule="evenodd">
        <g id="Home-2" transform="translate(-1369.000000, -2916.000000)" fill="#999999">
            <path d="M1435.62793,2935.32057 C1435.78202,2934.27136 1435.36726,2933.33283 1434.42516,2932.96612 C1433.29967,2932.52817 1432.05202,2932.40195 1430.69779,2932.10552 C1430.69779,2933.80759 1430.69467,2935.15012 1430.70067,2936.49265 C1430.70163,2936.72525 1430.74051,2936.95761 1430.78156,2937.40273 C1431.79207,2937.31333 1432.69625,2937.25332 1433.59515,2937.14838 C1434.69446,2937.01953 1435.45991,2936.46492 1435.62793,2935.32057 Z M1430.69827,2927.58715 C1430.58522,2928.95693 1430.7962,2929.01813 1432.20395,2928.89597 C1433.39568,2928.7927 1434.18009,2927.87904 1434.17337,2926.77078 C1434.16689,2925.63909 1433.55842,2925.04552 1432.20827,2924.86743 C1431.77959,2924.81101 1431.34754,2924.7773 1430.71243,2924.71204 C1430.71243,2925.78802 1430.77244,2926.69309 1430.69827,2927.58715 Z M1436.72605,2930.41995 C1439.26,2932.10337 1439.85623,2933.77006 1439.28808,2936.52779 C1438.76963,2939.04432 1436.39481,2940.83317 1433.82917,2940.91349 C1431.75462,2940.97827 1429.67624,2940.90823 1427.60025,2940.94624 C1426.84273,2940.9601 1426.68623,2940.67133 1426.68983,2939.95655 C1426.72008,2934.03063 1426.72296,2928.10422 1426.68791,2922.1783 C1426.68287,2921.32966 1426.92122,2921.07028 1427.77211,2921.12742 C1429.64096,2921.25268 1431.5398,2921.12598 1433.3832,2921.39516 C1436.58275,2921.86227 1438.52144,2924.33266 1437.90073,2927.11191 C1437.67391,2928.1267 1436.92311,2929.02554 1436.3216,2930.14384 C1436.3504,2930.16344 1436.53666,2930.2942 1436.72605,2930.41995 Z M1464.49997,2927.39686 C1464.66847,2926.90106 1464.37011,2926.06198 1463.99495,2925.60491 C1463.00125,2924.39458 1461.58845,2925.06919 1460.25703,2924.87006 L1460.25703,2928.77501 C1461.23825,2928.77501 1462.18588,2928.94139 1463.02981,2928.71812 C1463.61811,2928.56249 1464.31011,2927.95577 1464.49997,2927.39686 Z M1465.23373,2931.85332 C1465.02683,2931.95109 1464.84489,2932.1017 1464.61254,2932.25278 C1466.17151,2935.09801 1467.70768,2937.90116 1469.37082,2940.9362 C1467.93426,2940.9362 1466.71661,2940.99333 1465.51096,2940.89795 C1465.19196,2940.87261 1464.81632,2940.43012 1464.6267,2940.09042 C1463.33056,2937.76777 1462.07907,2935.42073 1460.80645,2933.08517 C1460.70612,2932.90133 1460.55394,2932.74571 1460.22918,2932.31852 C1460.22918,2933.02995 1460.2287,2933.42988 1460.22942,2933.82982 C1460.23255,2935.90147 1460.2095,2937.97359 1460.25463,2940.04429 C1460.26975,2940.73539 1460.0254,2940.91899 1459.36389,2940.9503 C1456.24811,2941.09708 1456.26395,2941.11525 1456.26827,2938.07328 C1456.27571,2932.69479 1456.26227,2927.31654 1456.26011,2921.93805 C1456.26011,2921.70975 1456.28652,2921.48146 1456.31628,2921 C1459.00289,2921.15084 1461.64198,2921.1267 1464.2249,2921.49436 C1466.61796,2921.83502 1468.19205,2923.90571 1468.41119,2926.36893 C1468.63178,2928.84816 1467.5111,2930.7759 1465.23373,2931.85332 Z M1445.6994,2928.3477 L1452.83297,2928.3477 C1452.83297,2929.44783 1452.88506,2930.50732 1452.78737,2931.55319 C1452.76889,2931.75303 1452.16354,2932.03799 1451.82342,2932.04564 C1449.79664,2932.09201 1447.76866,2932.06859 1445.59859,2932.06859 C1445.59859,2933.61168 1445.55394,2935.07565 1445.64299,2936.5315 C1445.65763,2936.77079 1446.25554,2937.15519 1446.59301,2937.16523 C1448.62027,2937.22476 1450.65042,2937.19463 1452.77513,2937.19463 L1452.77513,2940.9399 C1452.39733,2940.9399 1452.01424,2940.94014 1451.63092,2940.9399 C1448.63108,2940.93799 1445.63123,2940.93154 1442.63138,2940.93847 C1442.0594,2940.93966 1441.6636,2940.92508 1441.66792,2940.12784 C1441.70176,2933.91528 1441.68712,2927.70225 1441.69264,2921.48946 C1441.69264,2921.41942 1441.75985,2921.34938 1441.83498,2921.20355 L1452.74704,2921.20355 L1452.74704,2924.89767 L1445.6994,2924.89767 L1445.6994,2928.3477 Z M1496.0184,2921.1239 C1496.94418,2921.23458 1497.89372,2921.14829 1499,2921.14829 C1497.74082,2923.54146 1496.55437,2925.80555 1495.35904,2928.06485 C1494.7285,2929.2563 1494.04442,2930.42145 1493.46188,2931.63489 C1493.23145,2932.11468 1493.1184,2932.69223 1493.11,2933.22771 C1493.07376,2935.49443 1493.06848,2937.76234 1493.11576,2940.02858 C1493.12992,2940.70463 1492.9487,2940.91978 1492.26247,2940.95061 C1489.15677,2941.0907 1488.96595,2941.09739 1489.18173,2938.02889 C1489.45368,2934.15596 1488.68704,2930.69995 1486.49896,2927.45072 C1485.21074,2925.53757 1484.30944,2923.366 1483.14004,2921.1306 C1484.47938,2921.1306 1485.62791,2921.0486 1486.75291,2921.1753 C1487.14559,2921.21952 1487.5966,2921.71365 1487.82054,2922.11359 C1488.82625,2923.91152 1489.75732,2925.75056 1490.7239,2927.57049 C1490.81103,2927.73424 1490.96009,2927.86548 1491.14347,2928.08852 C1492.2315,2926.07305 1493.31642,2924.15201 1494.30701,2922.18363 C1494.69129,2921.42033 1495.08637,2921.0125 1496.0184,2921.1239 Z M1470.43183,2924.20838 C1470.33678,2923.23351 1470.39367,2922.24406 1470.39367,2921.19629 L1481.62089,2921.19629 L1481.62089,2924.85645 L1478.06274,2924.85645 C1478.03418,2925.314 1477.99481,2925.65442 1477.99457,2925.99459 C1477.99217,2930.61145 1477.97369,2935.22855 1478.01617,2939.84518 C1478.02362,2940.66179 1477.84576,2940.95511 1476.97446,2940.96084 C1474.0243,2940.97997 1474.02286,2941.01296 1474.0219,2938.09028 C1474.02046,2933.75693 1474.02166,2929.42383 1474.02166,2924.91478 C1473.02699,2924.91478 1472.12089,2924.97216 1471.22944,2924.88251 C1470.93132,2924.85239 1470.45703,2924.46703 1470.43183,2924.20838 Z M1412.72276,2937.36326 C1414.34966,2937.29896 1415.98088,2937.34533 1417.87492,2937.34533 C1417.87492,2938.34984 1417.90613,2939.40097 1417.84444,2940.44659 C1417.83412,2940.6223 1417.42319,2940.91394 1417.19493,2940.91585 C1413.92577,2940.94669 1410.65638,2940.93689 1407.29457,2940.93689 L1407.29457,2921.16564 L1411.4367,2921.16564 C1411.46479,2921.4941 1411.51207,2921.79435 1411.51255,2922.09437 C1411.52287,2926.78892 1411.56272,2931.48348 1411.50415,2936.17708 C1411.49167,2937.17919 1411.80226,2937.3996 1412.72276,2937.36326 Z M1420.54073,2921.11654 C1421.31865,2921.22244 1422.12322,2921.13686 1423.019,2921.13686 L1423.019,2940.85934 L1419.24891,2940.85934 C1419.24891,2939.75754 1419.24867,2938.73534 1419.24891,2937.71291 C1419.25011,2932.62391 1419.27531,2927.53444 1419.23234,2922.44592 C1419.22394,2921.44524 1419.41452,2920.96307 1420.54073,2921.11654 Z M1395.18556,2936.15284 C1395.67658,2934.49225 1395.60559,2932.8037 1395.05081,2931.15516 C1394.83035,2930.49991 1394.53386,2929.87158 1393.93189,2929.31967 C1394.39004,2931.50876 1394.20786,2932.44449 1393.68649,2933.56468 C1393.10068,2934.82358 1391.3495,2936.37911 1390.59699,2936.33775 C1394.2119,2931.38569 1391.73162,2924.41486 1389.10943,2922.46729 C1389.10219,2922.48943 1389.08312,2922.51582 1389.08945,2922.53317 C1389.54547,2923.78713 1389.62638,2925.07931 1389.49255,2926.39152 C1389.33043,2927.98114 1388.67804,2929.34495 1387.52007,2930.47374 C1386.82765,2931.1488 1385.994,2931.57098 1385.02324,2931.85631 C1385.06267,2931.76232 1385.07457,2931.71342 1385.1011,2931.67394 C1386.11236,2930.16507 1386.752,2928.54352 1386.87463,2926.71417 C1387.00892,2924.70932 1386.51606,2922.90068 1385.23944,2921.35017 C1384.42966,2920.36666 1383.48528,2919.48822 1382.58186,2918.58128 C1382.29887,2918.29714 1381.95266,2918.07341 1381.5915,2917.78733 C1381.8173,2918.45013 1382.02876,2919.03972 1382.21895,2919.63582 C1382.57141,2920.74098 1382.75016,2921.8771 1382.51773,2923.0186 C1382.28186,2924.17671 1381.64358,2925.16245 1380.70462,2925.88074 C1379.32749,2926.93445 1377.88218,2927.90308 1376.45723,2928.89585 C1375.11693,2929.82956 1373.85029,2930.82525 1372.93855,2932.20543 C1372.20236,2933.31987 1371.7712,2934.5188 1371.72751,2935.83924 C1371.67931,2937.29382 1372.21571,2938.59392 1372.96776,2939.8072 C1373.99335,2941.46166 1375.33441,2942.8473 1376.89739,2944.02454 C1377.05448,2944.14291 1377.28035,2944.23473 1377.47466,2944.23533 C1381.71923,2944.24714 1385.96388,2944.24445 1390.20853,2944.24326 C1390.30446,2944.24326 1390.40032,2944.22778 1390.50205,2944.21903 C1390.50205,2944.15427 1390.50998,2944.11562 1390.5009,2944.08144 C1390.20419,2942.97142 1390.58151,2942.05282 1391.35217,2941.25677 C1391.95514,2940.63413 1392.57885,2940.03093 1393.18753,2939.41359 C1394.10979,2938.47824 1394.81922,2937.3914 1395.18556,2936.15284 Z M1369,2946 L1369,2916 L1398.22481,2916 L1398.22481,2946 L1369,2946 Z M1391.89647,2937.58173 C1391.98668,2937.47884 1392.09619,2937.39203 1392.19677,2937.29789 C1392.22766,2937.32159 1392.25862,2937.34544 1392.28958,2937.36922 C1391.92186,2937.81076 1391.60257,2938.30547 1391.17431,2938.68053 C1390.63044,2939.15685 1390.01161,2939.55607 1389.40033,2939.95162 C1388.80308,2940.3382 1388.1918,2940.70019 1387.9522,2941.41383 C1387.87426,2941.6457 1387.84582,2941.89403 1387.80228,2942.13622 C1387.78184,2942.24973 1387.77925,2942.36638 1387.76278,2942.54479 C1387.15882,2941.67389 1387.16827,2940.39428 1388.16953,2939.79609 C1388.76999,2939.43732 1389.42519,2939.16156 1390.07102,2938.88228 C1390.77914,2938.57608 1391.39218,2938.15704 1391.89647,2937.58173 Z M1382.84508,2928.40871 C1382.66779,2928.83365 1382.49438,2929.26016 1382.31258,2929.68316 C1381.57822,2931.39145 1380.22609,2932.62657 1378.94207,2933.915 C1378.26848,2934.59089 1377.59467,2935.27208 1377.14178,2936.11882 C1376.59036,2937.14966 1376.42557,2938.25101 1376.57938,2939.40216 C1376.59272,2939.50236 1376.58113,2939.60577 1376.58113,2939.70761 C1375.83114,2938.5771 1375.4632,2937.3864 1375.85028,2936.0516 C1376.17163,2934.94345 1376.93703,2934.16378 1377.81925,2933.47481 C1379.10701,2932.46902 1380.45258,2931.52358 1381.47931,2930.24 C1381.87539,2929.74485 1382.19468,2929.19047 1382.54669,2928.66159 C1382.61196,2928.56349 1382.66649,2928.45851 1382.72597,2928.35667 C1382.7657,2928.37401 1382.80535,2928.39136 1382.84508,2928.40871 Z M1388.40888,2933.56363 C1388.31218,2933.71999 1388.21564,2933.87641 1388.11879,2934.03262 C1387.39762,2935.1955 1386.38569,2936.05369 1385.20331,2936.74378 C1384.27434,2937.28604 1383.38625,2937.88805 1382.84047,2938.84262 C1382.60949,2939.24655 1382.43379,2939.68098 1382.20929,2940.15131 C1381.76913,2938.91201 1382.11267,2937.03585 1383.60655,2936.46457 C1384.32261,2936.19082 1385.01526,2935.85868 1385.72179,2935.56055 C1386.62574,2935.17905 1387.35095,2934.56987 1388.00303,2933.86423 C1388.11185,2933.74638 1388.22548,2933.6328 1388.40888,2933.56363 Z" id="liberty"></path>
        </g>
    </g>
</svg>