<?xml version="1.0" encoding="UTF-8"?>
<svg width="140px" height="20px" viewBox="0 0 140 20" version="1.1" xmlns="http://www.w3.org/2000/svg" xmlns:xlink="http://www.w3.org/1999/xlink">
    <!-- Generator: Sketch 59.1 (86144) - https://sketch.com -->
    <title>Fill 12</title>
    <desc>Created with Sketch.</desc>
    <g id="Home" stroke="none" stroke-width="1" fill="none" fill-rule="evenodd">
        <g id="Home-2" transform="translate(-568.000000, -2478.000000)" fill="#999999">
            <g id="Group-24" transform="translate(0.000000, 2000.000000)">
                <g id="Group-18" transform="translate(171.000000, 449.000000)">
                    <path d="M507.010232,29 C509.930003,29 512.335144,29.9396731 514.227424,31.8197737 C516.118599,33.6997664 517.064739,35.9826764 517.064739,38.6688268 L517.064739,38.7224916 C517.064739,41.4081032 516.109757,43.699634 514.199792,45.5978384 C512.289826,47.4958272 509.874737,48.4444444 506.954635,48.4444444 C504.034864,48.4444444 501.628176,47.5046636 499.737553,45.6246708 C497.845715,43.7445702 496.899796,41.4617681 496.899796,38.7760487 L496.899796,38.7224916 C496.899796,36.0367723 497.854668,33.7451337 499.764412,31.8466061 C501.67482,29.9490483 504.089909,29 507.010232,29 Z M523.225703,29.3220967 L528.018301,36.1437786 L532.839636,29.3220967 L536.723674,29.3220967 L530.002321,38.5076168 L537,48.12224 L533.004326,48.12224 L527.908876,40.9513057 L522.838847,48.12224 L518.955914,48.12224 L525.92596,38.5607428 L519.231135,29.3220967 L523.225703,29.3220967 Z M400.609149,29.3220967 L406.476102,38.2120293 L412.34416,29.3220967 L415.952756,29.3220967 L415.952756,48.12224 L412.564226,48.12224 L412.564226,34.6397628 L406.476102,43.5029708 L406.366013,43.5029708 L400.332933,34.6934276 L400.332933,48.12224 L397,48.12224 L397,29.3220967 L400.609149,29.3220967 Z M432.562158,29.1881501 L441.047354,48.1223478 L437.466391,48.1223478 L435.510003,43.5840068 L426.39202,43.5840068 L424.40811,48.1223478 L420.937124,48.1223478 L429.422321,29.1881501 L432.562158,29.1881501 Z M450.677978,29.3219889 L450.677978,48.1221323 L447.29,48.1221323 L447.29,29.3219889 L450.677978,29.3219889 Z M462.210829,29.3220967 L462.210829,45.1142085 L472.348787,45.1142085 L472.348787,48.12224 L458.822299,48.12224 L458.822299,29.3220967 L462.210829,29.3220967 Z M485.973978,29.3223122 C488.19586,29.3223122 489.876032,29.8773874 491.015158,30.9873224 C491.878401,31.8290411 492.310243,32.8673152 492.310243,34.1031147 L492.310243,34.1567795 C492.310243,36.0186685 491.391183,37.4154624 489.555494,38.3465146 C492.10753,39.1882333 493.384156,40.7097063 493.384156,42.912119 L493.384156,42.9657838 C493.384156,44.6132291 492.741312,45.8840507 491.455733,46.7794342 C490.170154,47.6748177 488.434937,48.1224555 486.249641,48.1224555 L477.324201,48.1224555 L477.324201,29.3223122 L485.973978,29.3223122 Z M506.954635,32.034864 C505.062797,32.034864 503.50664,32.6751779 502.285611,33.9553748 C501.064029,35.2354639 500.453348,36.8068301 500.453348,38.6688268 L500.453348,38.7224916 C500.453348,40.5849194 501.073092,42.1600572 502.31258,43.4489827 C503.552731,44.7385547 505.118394,45.3827481 507.010232,45.3827481 C508.90207,45.3827481 510.457233,44.7478222 511.679699,43.4763539 C512.899954,42.2049934 513.511187,40.6385842 513.511187,38.7760487 L513.511187,38.7224916 C513.511187,36.8604949 512.891112,35.2804001 511.652066,33.9822072 C510.411915,32.6840143 508.8457,32.034864 506.954635,32.034864 Z M486.029022,40.0382495 L480.657135,40.0382495 L480.657135,45.1949212 L486.277052,45.1949212 C487.452101,45.1949212 488.365966,44.9755205 489.018316,44.53715 C489.669451,44.0982408 489.996179,43.4583579 489.996179,42.6166392 L489.996179,42.5629744 C489.996179,40.8799682 488.674125,40.0382495 486.029022,40.0382495 Z M430.936919,33.1363936 L427.630955,40.6559337 L434.270405,40.6559337 L430.936919,33.1363936 Z M485.533183,32.2499543 L480.657135,32.2499543 L480.657135,37.2452005 L485.285705,37.2452005 C486.405599,37.2452005 487.29139,37.0301102 487.943851,36.6004684 C488.595538,36.1709343 488.921713,35.5354696 488.921713,34.6937509 L488.921713,34.6400861 C488.921713,33.8880243 488.627481,33.301914 488.040344,32.8810008 C487.452101,32.4606264 486.616712,32.2499543 485.533183,32.2499543 Z" id="Fill-12"></path>
                </g>
            </g>
        </g>
    </g>
</svg>