<?xml version="1.0" encoding="UTF-8"?>
<svg width="130px" height="40px" viewBox="0 0 130 40" version="1.1" xmlns="http://www.w3.org/2000/svg" xmlns:xlink="http://www.w3.org/1999/xlink">
    <!-- Generator: Sketch 54.1 (76490) - https://sketchapp.com -->
    <title>mayhew</title>
    <desc>Created with Sketch.</desc>
    <g id="Home" stroke="none" stroke-width="1" fill="none" fill-rule="evenodd">
        <g id="Home-2" transform="translate(-973.000000, -2689.000000)" fill="#999999">
            <path d="M1101.13571,2702.26877 C1100.774,2702.17852 1100.36734,2702.13288 1099.91538,2702.13288 C1098.92087,2702.13288 1098.18698,2702.37627 1097.71237,2702.8617 C1097.23776,2703.34814 1096.85341,2704.11076 1096.55999,2705.14955 C1096.35649,2705.89561 1096.14758,2706.64133 1095.93293,2707.38671 C1095.71793,2708.13242 1095.50902,2708.84434 1095.30586,2709.52211 C1095.10236,2710.20022 1094.91035,2710.82187 1094.72984,2711.3864 C1094.54831,2711.9516 1094.39045,2712.43737 1094.25489,2712.84403 C1094.11934,2712.36942 1093.94423,2711.76534 1093.72992,2711.03044 C1093.51458,2710.29656 1093.28303,2709.4883 1093.03457,2708.60703 C1092.78611,2707.72576 1092.52074,2706.78263 1092.23814,2705.77662 C1091.95554,2704.77162 1091.66753,2703.76021 1091.37411,2702.74304 C1091.26053,2702.67544 1090.95562,2702.55678 1090.45904,2702.38709 C1089.96144,2702.21773 1089.41922,2702.13288 1088.83205,2702.13288 C1087.85984,2702.13288 1087.18782,2702.33638 1086.81496,2702.74304 C1086.4421,2703.15004 1086.15375,2703.69226 1085.95059,2704.37003 C1085.83735,2704.77703 1085.66799,2705.36996 1085.44218,2706.14982 C1085.21603,2706.929 1084.98481,2707.74841 1084.7475,2708.60703 C1084.5102,2709.46633 1084.2783,2710.28506 1084.05249,2711.06459 C1083.82634,2711.84411 1083.64549,2712.43737 1083.51027,2712.84403 C1083.35207,2712.36942 1083.15973,2711.75926 1082.93392,2711.01388 C1082.70777,2710.26782 1082.45964,2709.44334 1082.1882,2708.53909 C1081.91709,2707.63584 1081.64023,2706.68088 1081.35797,2705.67487 C1081.07503,2704.66987 1080.78668,2703.65846 1080.4936,2702.64163 C1080.35805,2702.57368 1080.08694,2702.47193 1079.68028,2702.33638 C1079.27328,2702.20083 1078.70841,2702.13288 1077.98534,2702.13288 C1077.08142,2702.13288 1076.4094,2702.37052 1075.96859,2702.84479 C1075.52812,2703.3194 1075.30738,2703.87311 1075.30738,2704.50592 C1075.30738,2705.1384 1075.40339,2705.72591 1075.59573,2706.26847 C1075.7874,2706.81068 1075.9402,2707.24 1076.0531,2707.5564 C1076.14336,2707.82751 1076.34145,2708.36973 1076.64636,2709.18339 C1076.95161,2709.99672 1077.31839,2710.95168 1077.74804,2712.04761 C1078.17667,2713.14387 1078.6577,2714.33547 1079.18876,2715.6234 C1079.71915,2716.91133 1080.26745,2718.17696 1080.83232,2719.4196 L1086.08614,2719.4196 C1086.19905,2719.08054 1086.36841,2718.53325 1086.59489,2717.7757 C1086.82003,2717.01917 1087.06342,2716.19435 1087.32337,2715.30125 C1087.58332,2714.40916 1087.84328,2713.51065 1088.10323,2712.60673 C1088.36251,2711.70314 1088.5944,2710.93444 1088.7979,2710.30197 C1089.00107,2710.93444 1089.23262,2711.69165 1089.49258,2712.57292 C1089.75219,2713.45386 1090.01248,2714.34121 1090.27244,2715.23398 C1090.53171,2716.1264 1090.7751,2716.95697 1091.00125,2717.725 C1091.22673,2718.49336 1091.40758,2719.05823 1091.54347,2719.4196 L1096.76315,2719.4196 C1097.35067,2718.17696 1097.97199,2716.74806 1098.62745,2715.13189 C1099.28257,2713.51673 1099.90997,2711.92355 1100.50898,2710.35267 C1101.10731,2708.78247 1101.63263,2707.34175 1102.08492,2706.03116 C1102.53688,2704.72092 1102.8418,2703.7379 1103,2703.0821 C1102.9547,2703.05979 1102.8587,2702.99725 1102.71199,2702.89584 C1102.56494,2702.79409 1101.49707,2702.35903 1101.13571,2702.26877 Z M1068.30004,2708.91215 C1067.89338,2709.09334 1067.27138,2709.23971 1066.43575,2709.35261 C1065.59977,2709.46586 1064.42441,2709.52197 1062.91066,2709.52197 C1062.93263,2709.07035 1063.02323,2708.62414 1063.18177,2708.18299 C1063.33963,2707.74287 1063.57187,2707.35243 1063.87644,2707.01371 C1064.18136,2706.675 1064.55962,2706.39848 1065.01226,2706.18315 C1065.46388,2705.96917 1065.99494,2705.86167 1066.60544,2705.86167 C1067.46339,2705.86167 1068.1077,2706.03677 1068.53735,2706.38698 C1068.96632,2706.73753 1069.18131,2707.1496 1069.18131,2707.62421 C1069.18131,2707.85036 1069.13602,2708.07651 1069.04576,2708.30232 C1068.95516,2708.52813 1068.7067,2708.73163 1068.30004,2708.91215 Z M1069.92703,2702.14998 C1070.89856,2702.47788 1071.71763,2702.92444 1072.38458,2703.48896 C1073.05052,2704.05383 1073.55894,2704.6978 1073.90948,2705.42086 C1074.25969,2706.14427 1074.4348,2706.89033 1074.4348,2707.65802 C1074.4348,2708.49365 1074.28775,2709.24579 1073.99467,2709.91173 C1073.70058,2710.57835 1073.17526,2711.14389 1072.41839,2711.60633 C1071.66118,2712.07012 1070.63286,2712.42642 1069.33377,2712.67454 C1068.034,2712.92334 1066.37896,2713.0474 1064.36829,2713.0474 L1063.18177,2713.0474 C1063.22673,2713.31851 1063.34538,2713.58454 1063.53773,2713.84416 C1063.72973,2714.10411 1064.0005,2714.34716 1064.35105,2714.57264 C1064.70126,2714.79878 1065.14781,2714.97964 1065.69003,2715.11451 C1066.23259,2715.25074 1066.88737,2715.31835 1067.65607,2715.31835 C1068.24325,2715.31835 1068.79696,2715.26731 1069.31653,2715.1659 C1069.83643,2715.06415 1070.28806,2714.95733 1070.67275,2714.84374 C1071.05676,2714.73118 1071.37283,2714.61827 1071.62163,2714.50503 C1071.87009,2714.39178 1072.0168,2714.31336 1072.06243,2714.26738 L1073.96053,2718.06392 C1073.77934,2718.17716 1073.48017,2718.33503 1073.06236,2718.53853 C1072.64352,2718.74203 1072.11821,2718.94485 1071.48607,2719.14869 C1070.85326,2719.35185 1070.11363,2719.52696 1069.26582,2719.674 C1068.41869,2719.82038 1067.48672,2719.89441 1066.46955,2719.89441 C1065.20393,2719.89441 1064.01774,2719.69057 1062.91066,2719.28424 C1061.80324,2718.87724 1060.83712,2718.28364 1060.01264,2717.50446 C1059.18714,2716.72494 1058.53811,2715.77065 1058.0635,2714.64058 C1057.58923,2713.51051 1057.35159,2712.22292 1057.35159,2710.7761 C1057.35159,2709.42056 1057.58923,2708.17826 1058.0635,2707.04819 C1058.53811,2705.91812 1059.19357,2704.95809 1060.02954,2704.16673 C1060.86518,2703.37606 1061.8482,2702.75981 1062.97827,2702.31934 C1064.108,2701.87854 1065.32799,2701.65847 1066.63891,2701.65847 C1067.85924,2701.65847 1068.95516,2701.82276 1069.92703,2702.14998 Z M1050.50373,2719.41953 L1050.50373,2709.99699 C1050.50373,2708.84427 1050.24952,2708.00863 1049.74111,2707.48839 C1049.2327,2706.96916 1048.47008,2706.70887 1047.45291,2706.70887 C1046.43643,2706.70887 1045.64541,2707.01378 1045.08055,2707.62394 C1044.51534,2708.23444 1044.23308,2709.18332 1044.23308,2710.47126 L1044.23308,2719.41953 L1038.77609,2719.41953 L1038.77609,2719.40296 C1038.77474,2719.40702 1038.77034,2719.41953 1038.77034,2719.41953 C1038.77034,2719.41953 1038.7646,2707.7666 1038.76798,2704.65054 C1038.77237,2700.58763 1037.89245,2698.19092 1039.05734,2694.34774 C1039.05734,2694.34774 1039.13205,2695.14721 1039.52012,2695.67387 C1039.52012,2695.67387 1039.20101,2693.29812 1040.18707,2692.14541 C1040.18707,2692.14541 1040.10222,2693.4232 1040.51193,2694.08779 C1040.51193,2694.08779 1040.28815,2691.50516 1041.57338,2690.29058 C1041.57338,2690.29058 1041.42193,2691.55755 1041.71231,2692.29786 C1041.71231,2692.29786 1041.77012,2689.8998 1043.22707,2689.22879 C1043.22707,2689.22879 1043.13986,2690.13542 1043.22707,2690.50321 C1043.22707,2690.50321 1043.48736,2689.62599 1044.49067,2689.12028 C1044.49067,2689.12028 1045.25971,2688.75858 1045.92734,2689.28964 C1046.59463,2689.8207 1046.43812,2690.8879 1045.99326,2691.5562 C1041.29044,2697.74572 1044.29562,2703.07392 1044.29562,2703.07392 C1044.29562,2703.07392 1045.26681,2702.39412 1045.96182,2702.09901 C1046.70753,2701.78294 1047.66757,2701.62474 1048.84294,2701.62474 C1049.85942,2701.62474 1050.79715,2701.76604 1051.65611,2702.0483 C1052.51473,2702.33124 1053.2662,2702.77171 1053.91016,2703.37004 C1054.55413,2703.96939 1055.05646,2704.72592 1055.4185,2705.64133 C1055.77953,2706.55641 1055.96072,2707.63577 1055.96072,2708.87807 L1055.96072,2719.41953 L1050.50373,2719.41953 Z M1032.34413,2726.89989 C1032.34413,2726.89989 1032.84713,2726.16161 1032.57535,2725.29893 C1032.57535,2725.29893 1032.03786,2727.13618 1028.94445,2728.26422 C1029.7224,2727.49777 1030.06224,2726.83938 1029.96398,2726.28905 C1029.96398,2726.28905 1028.19975,2728.48057 1025.69521,2727.69091 C1025.69521,2727.69091 1026.70426,2727.33292 1027.09706,2726.2255 C1027.09706,2726.2255 1024.68514,2727.14632 1022.91347,2725.56734 C1022.91347,2725.56734 1023.55812,2725.48722 1024.0983,2725.20529 C1024.0983,2725.20529 1022.27863,2724.20706 1021.70565,2722.27212 C1021.70565,2722.27212 1030.69685,2725.06636 1031.50376,2719.41736 L1031.58861,2718.65272 L1031.58861,2718.4908 C1031.60517,2718.25958 1031.6001,2717.63826 1031.6001,2717.38608 C1031.17045,2717.90565 1030.51533,2718.31806 1029.63406,2718.62297 C1028.75245,2718.92788 1027.87151,2719.08068 1026.99024,2719.08068 C1025.95077,2719.08068 1024.98465,2718.95121 1024.09222,2718.69092 C1023.19912,2718.4313 1022.41959,2718.03005 1021.75332,2717.48749 C1021.0867,2716.94527 1020.56713,2716.26209 1020.19427,2715.43694 C1019.82142,2714.61212 1019.63482,2713.63518 1019.63482,2712.50511 L1019.63482,2704.53953 C1019.63482,2703.65825 1019.89477,2703.03694 1020.41468,2702.67523 C1020.93424,2702.31421 1021.62317,2702.13302 1022.48213,2702.13302 C1023.0923,2702.13302 1023.64567,2702.20671 1024.14293,2702.35342 C1024.63984,2702.50047 1024.95659,2702.59647 1025.09214,2702.64143 L1025.09214,2711.3862 C1025.09214,2712.47097 1025.34635,2713.25049 1025.85476,2713.7251 C1026.36318,2714.19971 1027.1596,2714.43701 1028.24471,2714.43701 C1029.2612,2714.43701 1030.05187,2714.14359 1030.61708,2713.55574 C1031.1816,2712.96823 1031.46421,2712.06431 1031.46421,2710.84398 L1031.46421,2704.53953 C1031.46421,2703.65825 1031.72382,2703.03694 1032.24407,2702.67523 C1032.76363,2702.31421 1033.4529,2702.13302 1034.31152,2702.13302 C1034.92168,2702.13302 1035.47506,2702.20671 1035.97231,2702.35342 C1036.46923,2702.50047 1036.78564,2702.59647 1036.92153,2702.64143 L1036.92153,2717.01288 C1036.92153,2717.33808 1036.88502,2718.65272 1036.88502,2718.65272 C1036.70181,2724.49304 1032.34413,2726.89989 1032.34413,2726.89989 Z M1012.69485,2715.8607 C1012.53664,2715.90634 1012.20908,2715.94555 1011.71182,2715.97902 C1011.2149,2716.01316 1010.67235,2716.03006 1010.08483,2716.03006 C1009.33946,2716.03006 1008.74011,2715.9682 1008.28849,2715.8438 C1007.83619,2715.71974 1007.49713,2715.56762 1007.27166,2715.3861 C1007.04551,2715.20524 1006.8988,2715.00208 1006.8312,2714.77593 C1006.76325,2714.55012 1006.72944,2714.33547 1006.72944,2714.13197 C1006.72944,2713.86086 1006.7744,2713.60158 1006.86466,2713.35244 C1006.95526,2713.10398 1007.11887,2712.88392 1007.35651,2712.69158 C1007.59381,2712.49991 1007.92678,2712.34677 1008.35643,2712.23387 C1008.78541,2712.12096 1009.33946,2712.06451 1010.01723,2712.06451 C1010.8079,2712.06451 1011.40083,2712.08141 1011.79667,2712.11522 C1012.19184,2712.14936 1012.49135,2712.18891 1012.69485,2712.23387 L1012.69485,2715.8607 Z M1017.23676,2719.47064 C1016.76215,2719.52675 1016.16923,2719.58929 1015.45731,2719.65656 C1014.7454,2719.72485 1013.93207,2719.78096 1013.017,2719.8266 C1012.10192,2719.87122 1011.1358,2719.8942 1010.11898,2719.8942 C1008.40139,2719.8942 1006.97757,2719.74209 1005.84817,2719.4365 C1004.7181,2719.13192 1003.81418,2718.71951 1003.13641,2718.19961 C1002.45864,2717.68004 1001.98403,2717.07562 1001.71259,2716.38636 C1001.44148,2715.69709 1001.30626,2714.96828 1001.30626,2714.19991 C1001.30626,2712.12096 1001.9722,2710.63561 1003.30577,2709.74251 C1004.639,2708.85042 1006.75176,2708.40387 1009.64403,2708.40387 C1010.3671,2708.40387 1010.97152,2708.41536 1011.45762,2708.43767 C1011.94338,2708.46032 1012.34396,2708.49413 1012.6607,2708.53942 C1012.6607,2707.74841 1012.33889,2707.12743 1011.69526,2706.67513 C1011.05095,2706.22317 1009.98308,2705.99736 1008.49165,2705.99736 C1007.79123,2705.99736 1007.17532,2706.03657 1006.6446,2706.11567 C1006.1132,2706.19511 1005.66157,2706.29112 1005.28872,2706.40402 C1004.9162,2706.51727 1004.61635,2706.62983 1004.39054,2706.74274 C1004.16439,2706.85632 1004.00619,2706.94624 1003.91593,2707.01385 C1003.8703,2706.96889 1003.78038,2706.87863 1003.64483,2706.74274 C1003.50927,2706.60752 1003.37372,2706.43242 1003.23816,2706.21742 C1003.10261,2706.00311 1002.97821,2705.75972 1002.86497,2705.48861 C1002.75172,2705.2175 1002.69561,2704.92374 1002.69561,2704.60734 C1002.69561,2702.64163 1004.70695,2701.65861 1008.72895,2701.65861 C1010.03954,2701.65861 1011.27136,2701.77692 1012.42374,2702.01423 C1013.57612,2702.25187 1014.57604,2702.65853 1015.42351,2703.23489 C1016.27098,2703.81091 1016.93692,2704.57353 1017.42336,2705.52275 C1017.90878,2706.47163 1018.15217,2707.65815 1018.15217,2709.08164 L1018.15217,2719.31785 C1018.01628,2719.36348 1017.71137,2719.41419 1017.23676,2719.47064 Z M994.332384,2719.39417 L994.332384,2709.86955 C994.332384,2708.71717 994.094742,2707.89268 993.620471,2707.39509 C993.145862,2706.89851 992.721621,2706.64971 991.863336,2706.64971 C990.982065,2706.64971 990.507118,2706.94313 989.953745,2707.53098 C989.399697,2708.11883 989.12318,2709.05622 989.12318,2710.34415 L989.12318,2719.39417 L983.666192,2719.39417 L983.666192,2710.34415 C983.666192,2709.05622 983.395084,2708.11883 982.852529,2707.53098 C982.310312,2706.94313 981.841111,2706.64971 980.960178,2706.64971 C980.100879,2706.64971 979.671567,2706.89851 979.185803,2707.39509 C978.699701,2707.89268 978.456988,2708.71717 978.456988,2709.86955 L978.456988,2719.39417 L973,2719.39417 L973,2708.3105 C973,2707.20342 973.197416,2706.23764 973.593261,2705.41248 C973.988092,2704.58766 974.530647,2703.89299 975.219912,2703.32779 C975.909177,2702.76326 976.72284,2702.33936 977.660564,2702.05709 C978.598289,2701.77449 979.37781,2701.63319 980.485231,2701.63319 C981.841111,2701.63319 982.807231,2701.859 983.869354,2702.31096 C984.93114,2702.76326 985.789762,2703.39539 986.445561,2704.20906 C987.100684,2703.39539 987.947813,2702.76326 988.987626,2702.31096 C990.026762,2701.859 990.982065,2701.63319 992.337945,2701.63319 C993.422717,2701.63319 994.190745,2701.77449 995.128469,2702.05709 C996.066194,2702.33936 996.879857,2702.76326 997.569122,2703.32779 C998.258048,2703.89299 998.800603,2704.58766 999.196111,2705.41248 C999.59128,2706.23764 999.789372,2707.20342 999.789372,2708.3105 L999.789372,2719.39417 L994.332384,2719.39417 Z" id="mayhew"></path>
        </g>
    </g>
</svg>