<?xml version="1.0" encoding="UTF-8"?>
<svg width="120px" height="60px" viewBox="0 0 120 60" version="1.1" xmlns="http://www.w3.org/2000/svg" xmlns:xlink="http://www.w3.org/1999/xlink">
    <!-- Generator: Sketch 54.1 (76490) - https://sketchapp.com -->
    <title>national-express</title>
    <desc>Created with Sketch.</desc>
    <g id="Home" stroke="none" stroke-width="1" fill="none" fill-rule="evenodd">
        <g id="Home-2" transform="translate(-175.000000, -2680.000000)" fill="#999999">
            <path d="M225.659212,2683.42158 C225.139821,2683.2886 224.776046,2683.03032 224.839504,2682.39654 C224.882349,2681.97173 224.874669,2681.53641 224.841121,2681.10958 C224.800297,2680.59019 225.0222,2680.24501 225.508447,2680.17468 C226.126058,2680.08616 226.770749,2679.99845 227.379467,2680.08495 C228.27476,2680.21227 228.334581,2680.40264 228.334985,2681.77367 C228.334985,2683.24979 227.957062,2683.60508 226.447393,2683.53031 C226.183049,2683.51656 225.914664,2683.48706 225.659212,2683.42158 Z M291.370731,2721.72462 C293.104324,2722.46914 294.509307,2723.55117 295,2725.5002 L295,2726.9743 C294.818921,2727.44842 294.682707,2727.9468 294.448273,2728.39262 C293.623715,2729.9609 292.238134,2730.83801 290.588209,2731.28585 C286.838894,2732.30483 283.34503,2731.5696 280.071452,2729.59591 C279.875418,2729.47748 279.675341,2729.045 279.746075,2728.8627 C279.976871,2728.26692 280.295781,2727.69498 280.651877,2727.16064 C280.879034,2726.82031 281.219771,2726.80697 281.619924,2727.03412 C283.500241,2728.09877 285.489286,2728.77904 287.694575,2728.61089 C288.660197,2728.53733 289.606418,2728.3902 290.437848,2727.84858 C291.637095,2727.06767 291.713893,2725.6441 290.470588,2724.97475 C289.169888,2724.27388 287.734186,2723.82481 286.369219,2723.23873 C285.209987,2722.74076 283.991742,2722.32485 282.931942,2721.66156 C279.657556,2719.61189 279.896436,2715.56145 283.328862,2713.78986 C285.368431,2712.73693 287.55149,2712.667 289.734953,2712.96773 C290.948751,2713.13506 292.118896,2713.63061 293.304805,2713.99115 C293.770842,2714.13342 293.957985,2714.49963 293.861382,2714.9503 C293.768417,2715.3832 293.638266,2715.82336 293.433339,2716.2122 C293.004084,2717.02746 292.724785,2717.08809 291.869912,2716.75099 C289.871975,2715.96281 287.816642,2715.78982 285.73544,2716.32497 C284.556807,2716.62771 284.013973,2717.54807 284.459396,2718.53471 C284.654622,2718.9676 285.133594,2719.37139 285.580634,2719.57066 C286.602035,2720.02619 287.685683,2720.34025 288.73942,2720.72464 C289.62097,2721.04638 290.509391,2721.35478 291.370731,2721.72462 Z M178.53437,2719.66419 C178.451914,2720.49037 178.517394,2721.3315 178.517394,2722.25549 C182.066228,2721.07443 185.521289,2719.9253 189.110139,2718.7305 C188.696243,2718.30003 188.387438,2717.89381 187.99941,2717.58905 C185.914167,2715.95085 182.196379,2715.89386 180.039997,2717.4492 C179.272431,2718.00295 178.632185,2718.68685 178.53437,2719.66419 Z M191.533694,2724.70774 C193.133094,2725.41185 193.333171,2726.01652 192.363911,2727.43484 C190.295239,2730.46065 187.328446,2731.75407 183.749297,2731.72255 C181.145876,2731.69951 178.803564,2730.89112 176.903846,2729.03909 C175.662563,2727.82813 175.013021,2726.34635 175.015446,2724.59618 C175.017467,2723.24576 175.058695,2721.89373 175.006554,2720.54493 C174.890146,2717.54257 176.330293,2715.48845 178.861768,2714.09155 C182.519735,2712.07259 187.433133,2712.5257 190.555541,2715.15741 C191.915658,2716.30331 192.703839,2717.75801 192.844903,2719.54455 C192.921296,2720.51219 192.412414,2721.32018 191.489636,2721.62858 C188.336105,2722.68393 185.177723,2723.72433 182.021362,2724.7712 C180.981772,2725.11557 179.943395,2725.46278 178.740105,2725.86333 C179.217056,2726.3326 179.572748,2726.77924 180.017767,2727.10421 C182.638164,2729.0205 186.977201,2728.50232 189.073357,2726.0339 C189.361953,2725.69397 189.600428,2725.30393 189.813439,2724.91064 C190.051105,2724.47331 190.390225,2724.35771 190.838074,2724.47573 C191.074124,2724.53838 191.310982,2724.60911 191.533694,2724.70774 Z M251.556528,2716.51114 C248.653193,2717.06287 247.202941,2719.2819 247.907049,2722.22768 C251.364131,2721.07855 254.816363,2719.93064 258.268594,2718.78313 C258.336903,2718.69137 258.404808,2718.59962 258.472713,2718.50746 C258.043862,2718.16713 257.634412,2717.79729 257.182522,2717.49051 C255.458629,2716.32036 253.563761,2716.12958 251.556528,2716.51114 Z M260.709125,2724.63628 C262.417254,2725.29875 262.661793,2726.0263 261.625032,2727.51132 C259.55636,2730.47447 256.62069,2731.7396 253.08964,2731.72667 C250.754604,2731.71778 248.615603,2731.04035 246.780961,2729.5521 C245.200962,2728.2704 244.327091,2726.62653 244.32507,2724.5615 C244.323858,2723.29233 244.374786,2722.02113 244.314966,2720.75479 C244.150458,2717.28396 245.898198,2715.08433 248.923196,2713.73715 C252.755775,2712.03023 257.510324,2712.79942 260.301292,2715.55563 C261.420913,2716.6607 262.053479,2718.00586 262.16059,2719.5806 C262.226878,2720.5539 261.697787,2721.33319 260.768138,2721.64361 C257.651792,2722.68442 254.533022,2723.71835 251.414655,2724.75228 C250.351622,2725.10474 249.286567,2725.45033 248.142695,2725.82542 C248.864992,2726.9798 249.857291,2727.62207 251.059772,2727.93491 C253.53668,2728.5788 255.86242,2728.30879 257.847019,2726.56833 C258.3559,2726.12169 258.733015,2725.50691 259.101641,2724.92528 C259.362751,2724.51259 259.663472,2724.35698 260.119404,2724.46773 C260.317864,2724.51583 260.519153,2724.56271 260.709125,2724.63628 Z M207.839698,2724.11034 C209.422527,2725.68225 210.982721,2727.27721 212.579292,2728.83498 C212.9944,2729.24038 213.081707,2729.6563 212.751479,2730.07424 C212.352538,2730.58029 211.900244,2731.06088 211.400659,2731.46507 C210.954427,2731.82643 210.505366,2731.75569 210.055901,2731.29612 C207.996122,2729.18905 205.901582,2727.11593 203.819168,2725.03069 C203.720544,2724.93207 203.615454,2724.83951 203.465497,2724.69885 C201.318008,2726.84351 199.219022,2728.93805 197.122057,2731.03501 C196.27931,2731.87776 195.922001,2731.89433 195.027113,2731.10372 C194.843608,2730.94124 194.671421,2730.76339 194.515402,2730.57504 C193.818165,2729.7335 193.836758,2729.38549 194.608771,2728.61226 C196.589732,2726.62767 198.571501,2724.64388 200.551654,2722.65806 C200.692314,2722.5174 200.820444,2722.36381 201.00314,2722.16212 C199.337047,2720.50977 197.697631,2718.8849 196.059428,2717.25842 C195.565905,2716.76813 195.092997,2716.25521 194.579265,2715.78715 C194.210234,2715.45086 194.156476,2715.09476 194.408694,2714.70027 C194.62696,2714.35832 194.858563,2714.01314 195.143117,2713.72777 C196.09338,2712.77549 196.533953,2712.78438 197.464006,2713.71605 C199.31522,2715.56929 201.169264,2717.4201 203.011586,2719.28223 C203.151033,2719.42329 203.209237,2719.64479 203.343026,2719.90105 C203.952148,2719.27535 204.358365,2718.84893 204.773877,2718.4322 C206.449671,2716.75035 208.141632,2715.08385 209.79762,2713.383 C210.24466,2712.92343 210.660577,2712.89473 211.149653,2713.22334 C211.40268,2713.3931 211.658131,2713.57175 211.873163,2713.78557 C212.921241,2714.82597 212.921645,2715.2144 211.895798,2716.23702 C209.925346,2718.201 207.952065,2720.16175 205.87248,2722.23083 C206.550315,2722.87673 207.206729,2723.48181 207.839698,2724.11034 Z M276.584662,2722.57209 C279.571261,2724.35015 279.247905,2728.30116 276.612147,2730.1839 C275.205952,2731.18792 273.416175,2731.70367 270.882275,2731.73843 C268.480951,2731.72065 266.069522,2730.99107 263.827855,2729.65117 C263.465292,2729.43452 263.310485,2729.14875 263.474185,2728.79064 C263.733274,2728.22517 264.025103,2727.66738 264.373519,2727.15445 C264.604719,2726.81412 264.947072,2726.80846 265.343992,2727.03602 C267.24088,2728.12088 269.254581,2728.78781 271.48008,2728.60834 C272.445298,2728.53033 273.391924,2728.37108 274.212844,2727.8145 C275.351058,2727.04249 275.391478,2725.61204 274.184146,2724.97018 C272.895976,2724.28548 271.486951,2723.83156 270.140981,2723.25316 C268.96356,2722.7467 267.723489,2722.32998 266.645096,2721.65901 C263.375561,2719.62389 263.621716,2715.5488 267.051313,2713.7865 C269.092499,2712.73762 271.275153,2712.66688 273.458212,2712.96841 C274.672414,2713.13615 275.841347,2713.63453 277.028064,2713.99264 C277.471466,2714.12643 277.663459,2714.47647 277.571707,2714.89723 C277.464191,2715.38793 277.322722,2715.89196 277.082226,2716.32768 C276.688944,2717.04028 276.399541,2717.08312 275.633186,2716.7727 C273.640504,2715.96592 271.587192,2715.79899 269.501948,2716.30989 C268.375052,2716.58596 267.91912,2717.30502 268.088073,2718.3244 C268.199227,2718.99658 268.683453,2719.35672 269.24003,2719.57135 C270.514458,2720.06325 271.830517,2720.44845 273.097265,2720.95774 C274.285195,2721.43509 275.489293,2721.91972 276.584662,2722.57209 Z M243.088758,2713.07904 C243.551966,2713.05721 243.887852,2713.22819 243.953332,2713.66593 C244.048722,2714.30254 244.141283,2714.96421 244.065698,2715.59556 C243.973542,2716.37081 243.710815,2716.49328 242.915359,2716.54502 C241.575856,2716.63232 240.27758,2716.88333 239.143813,2717.66625 C238.379884,2718.19332 237.944565,2718.84246 237.959925,2719.85942 C238.01247,2723.39895 237.963967,2726.94011 237.994686,2730.48005 C238.000344,2731.14697 237.738022,2731.50549 237.133345,2731.58835 C236.592936,2731.66273 236.02868,2731.7084 235.492717,2731.63565 C234.64229,2731.52045 234.494355,2731.28238 234.494355,2730.41174 C234.494355,2725.02948 234.503247,2719.64762 234.482229,2714.26576 C234.479804,2713.6336 234.706153,2713.28397 235.307191,2713.20313 C235.788992,2713.13805 236.28494,2713.06691 236.763103,2713.11421 C237.708111,2713.20757 237.9094,2713.46181 238.036722,2714.5495 C239.613488,2713.52729 241.309087,2713.16311 243.088758,2713.07904 Z M193.747148,2695.01458 C193.724513,2698.4943 193.728151,2701.97523 193.761295,2705.45535 C193.767762,2706.11783 193.465828,2706.42906 192.904401,2706.49413 C192.323572,2706.56163 191.720513,2706.57416 191.142514,2706.49696 C190.42628,2706.40157 190.275919,2706.1534 190.27511,2705.41857 C190.271877,2702.16359 190.269856,2698.9082 190.266218,2695.65321 C190.263793,2693.57848 189.467933,2692.36791 187.486972,2691.67634 C185.096157,2690.84167 182.774055,2690.95202 180.673452,2692.52515 C179.789073,2693.18722 179.357797,2694.08574 179.366689,2695.2276 C179.39377,2698.62647 179.377198,2702.02495 179.37639,2705.42302 C179.375985,2706.16472 179.226029,2706.3753 178.507774,2706.50949 C177.584592,2706.68168 176.670707,2706.73301 175.902331,2706.03093 L175.902331,2693.8691 C176.073306,2693.37113 176.203457,2692.85335 176.423339,2692.37721 C177.46778,2690.1125 179.356584,2688.84939 181.660901,2688.1853 C185.18225,2687.16996 188.479675,2687.6647 191.383414,2689.98195 C192.971901,2691.2491 193.760486,2692.9451 193.747148,2695.01458 Z M208.914534,2702.46693 C210.304562,2701.52112 210.422183,2699.66344 209.110569,2698.6101 C208.707182,2698.28553 208.214468,2698.02079 207.719329,2697.87123 C206.022113,2697.35669 204.273969,2697.50665 202.542396,2697.62912 C201.943379,2697.67197 201.31728,2697.82758 200.776467,2698.08546 C199.854902,2698.52441 199.051766,2699.10888 199.079251,2700.32591 C199.106736,2701.55507 199.593792,2702.46532 200.843968,2702.81858 C202.022601,2703.15124 203.282073,2703.19893 204.505977,2703.37193 C204.512848,2703.32019 204.520124,2703.26886 204.527399,2703.21753 C205.182195,2703.21753 205.837396,2703.22723 206.491788,2703.2155 C207.369296,2703.19934 208.18092,2702.96571 208.914534,2702.46693 Z M213.463348,2694.4865 C213.407165,2696.34742 213.388168,2698.2144 213.465773,2700.0741 C213.613304,2703.62091 211.345769,2705.48789 208.835716,2706.27122 C208.009541,2706.5295 207.110611,2706.65278 206.243612,2706.66086 C204.528207,2706.67703 202.782892,2706.74736 201.103461,2706.47049 C198.687182,2706.07236 196.603959,2704.86179 195.907531,2702.36063 C194.975861,2699.0147 195.970585,2696.54709 199.257501,2694.99134 C201.645083,2693.86121 204.195555,2693.94529 206.729051,2694.18376 C207.806231,2694.28481 208.858755,2694.64939 209.952912,2694.90121 C210.223319,2693.66962 209.66755,2692.8289 208.651403,2692.19795 C207.596454,2691.54235 206.429138,2691.25335 205.213318,2691.20484 C203.367763,2691.13128 201.533121,2691.17978 199.801548,2691.98817 C199.594196,2692.08478 199.183534,2691.9813 198.986286,2691.82245 C198.32381,2691.29013 197.976202,2690.54964 197.850902,2689.71215 C197.787847,2689.29138 197.989541,2689.02219 198.374335,2688.84596 C199.786189,2688.19884 201.270798,2687.87629 202.814824,2687.76716 C205.453815,2687.58042 208.001457,2687.85002 210.347811,2689.19195 C212.394656,2690.3625 213.536911,2692.04436 213.463348,2694.4865 Z M279.116784,2703.21769 C279.79179,2703.21769 280.467604,2703.23264 281.142206,2703.21405 C282.018501,2703.19061 282.817191,2702.9303 283.560102,2702.44608 C284.857973,2701.59929 284.996208,2699.44291 283.722993,2698.61431 C283.282824,2698.32814 282.826488,2698.00923 282.331753,2697.87584 C280.362918,2697.34513 278.349621,2697.40495 276.373106,2697.76388 C275.635046,2697.89807 274.901835,2698.37219 274.30686,2698.86208 C273.953593,2699.1531 273.735328,2699.76667 273.698546,2700.25372 C273.590222,2701.68013 274.510979,2702.77428 276.065109,2703.04469 C277.06428,2703.2189 278.095382,2703.21243 279.111933,2703.28721 C279.11355,2703.26377 279.115167,2703.24113 279.116784,2703.21769 Z M283.309905,2706.29927 C282.407337,2706.52562 281.457478,2706.64567 280.527425,2706.65658 C278.9353,2706.67436 277.315285,2706.73014 275.755092,2706.4759 C273.359022,2706.08464 271.304902,2704.9145 270.541781,2702.46386 C269.472685,2699.02901 270.712352,2696.40538 273.873563,2695.00484 C274.77411,2694.60509 275.770451,2694.32499 276.748199,2694.21505 C279.360918,2693.92039 281.97404,2693.88118 284.514407,2695.02263 C284.741565,2693.91069 284.48288,2693.07077 283.598501,2692.43052 C282.370151,2691.54008 280.967998,2691.21309 279.498344,2691.1852 C277.737265,2691.15205 275.978207,2691.20905 274.340408,2692.02067 C274.177113,2692.1011 273.845673,2692.01178 273.678741,2691.88648 C272.97827,2691.35819 272.601964,2690.62013 272.460496,2689.76081 C272.381678,2689.28225 272.607623,2689.0175 273.042133,2688.81783 C275.384445,2687.74186 277.857715,2687.58624 280.367364,2687.79319 C282.418655,2687.96174 284.330094,2688.58622 285.971531,2689.88288 C287.337711,2690.96208 288.064454,2692.3509 288.043032,2694.1241 C288.01878,2696.15033 288.038181,2698.17697 288.037777,2700.2036 C288.037373,2703.30297 286.334094,2705.54221 283.309905,2706.29927 Z M233.990404,2699.07865 C233.921691,2700.46827 234.571637,2701.42298 235.658114,2702.14851 C237.774076,2703.56238 241.106666,2703.5543 243.218586,2702.12749 C244.280003,2701.41085 244.948542,2700.4711 244.84911,2699.10452 C244.802627,2698.47357 244.841026,2697.83655 244.841026,2697.20156 C244.841026,2696.60861 244.798989,2696.01121 244.84911,2695.42189 C244.993407,2693.72831 244.106199,2692.63658 242.716575,2691.95107 C240.556556,2690.88642 238.319739,2690.88197 236.154465,2691.94015 C234.762417,2692.62041 233.890568,2693.70002 233.988383,2695.39643 C234.059117,2696.61993 234.050629,2697.85394 233.990404,2699.07865 Z M245.581916,2704.74263 C241.984578,2707.44468 236.336353,2707.30564 232.887759,2704.43019 C231.475097,2703.25237 230.578592,2701.77301 230.535343,2699.89189 C230.494519,2698.11222 230.493307,2696.33052 230.52928,2694.55085 C230.571721,2692.44499 231.633541,2690.86459 233.265682,2689.64069 C236.797136,2686.99361 242.297829,2687.06718 245.769462,2689.79145 C247.448894,2691.10913 248.358333,2692.81362 248.33974,2694.97728 C248.333273,2695.71413 248.338931,2696.45097 248.339336,2697.18823 C248.339336,2697.90486 248.328422,2698.6211 248.341357,2699.33774 C248.382585,2701.63195 247.374117,2703.39586 245.581916,2704.74263 Z M250.521384,2699.81954 C250.521788,2698.22297 250.541189,2696.62639 250.516938,2695.02982 C250.483389,2692.8116 251.415868,2691.09013 253.13491,2689.74659 C256.667577,2686.98553 262.427359,2687.0405 265.882016,2689.87148 C267.457973,2691.16289 268.343565,2692.80594 268.355287,2694.86289 C268.375901,2698.42506 268.363371,2701.98643 268.386814,2705.5482 C268.390452,2706.09467 268.089326,2706.40145 267.657646,2706.45602 C266.97981,2706.5413 266.275702,2706.54494 265.597058,2706.46249 C265.082114,2706.39984 264.857381,2706.01585 264.861019,2705.43947 C264.880824,2702.18529 264.864252,2698.93031 264.85819,2695.67573 C264.853743,2693.5339 264.094261,2692.40821 262.055904,2691.66005 C260.06403,2690.92805 258.066092,2690.98625 256.163141,2691.93571 C254.777156,2692.62729 253.952193,2693.69032 253.989379,2695.38996 C254.062134,2698.72498 254.010801,2702.06282 254.009993,2705.39945 C254.009993,2706.13105 253.811937,2706.37599 253.083577,2706.5118 C252.80347,2706.56394 252.516492,2706.60719 252.231938,2706.60759 C250.824126,2706.60921 250.521384,2706.30323 250.521384,2704.91644 C250.521384,2703.21761 250.521384,2701.51877 250.521384,2699.81954 Z M216.002543,2704.92998 C216.002543,2697.03241 216.011435,2689.13443 215.985971,2681.23646 C215.983546,2680.53437 216.256377,2680.18312 216.882072,2680.0938 C217.382061,2680.02185 217.904686,2679.98669 218.403058,2680.04934 C219.29148,2680.1613 219.488727,2680.4406 219.488727,2681.34114 C219.488323,2683.34636 219.488323,2685.35157 219.488323,2687.35638 L219.488323,2688.04796 C220.476984,2688.04796 221.37551,2688.08595 222.26959,2688.03543 C222.898518,2687.99945 223.177817,2688.30866 223.298671,2688.84099 C223.370618,2689.15788 223.415484,2689.48891 223.415888,2689.81348 C223.416696,2691.21766 223.103849,2691.52727 221.72999,2691.52727 L219.488727,2691.52727 L219.488727,2692.1954 C219.488727,2696.59466 219.488727,2700.99393 219.488727,2705.39319 C219.488323,2706.14014 219.303606,2706.37579 218.576458,2706.50998 C218.276141,2706.56576 217.96774,2706.61103 217.663785,2706.60699 C216.288309,2706.58839 216.002543,2706.29131 216.002543,2704.92998 Z M292.306443,2706.60796 C290.905502,2706.60311 290.602356,2706.29268 290.601951,2704.90427 C290.601547,2697.02934 290.601143,2689.15359 290.600739,2681.27866 C290.600739,2680.4351 290.737761,2680.24068 291.561915,2680.06849 C291.897397,2679.99857 292.253493,2679.99291 292.598272,2680.00504 C293.814495,2680.04707 294.097836,2680.34658 294.097836,2681.543 L294.097836,2693.32529 C294.097836,2697.35471 294.09824,2701.38454 294.097432,2705.41437 C294.097432,2706.12373 293.905035,2706.37271 293.218307,2706.50691 C292.918799,2706.56552 292.610398,2706.60876 292.306443,2706.60796 Z M228.334055,2689.59703 C228.334055,2692.15519 228.334055,2694.71334 228.334055,2697.27149 C228.334055,2700.01395 228.317079,2702.75682 228.347798,2705.49888 C228.354265,2706.10396 228.064053,2706.3679 227.566084,2706.48512 C227.210797,2706.56838 226.836108,2706.61365 226.472332,2706.60476 C225.121915,2706.57162 224.847871,2706.27858 224.847871,2704.94473 C224.847871,2699.68454 224.847871,2694.42474 224.847871,2689.16535 C224.847871,2688.39536 224.991765,2688.20539 225.748418,2688.04088 C226.045906,2687.97621 226.353903,2687.92003 226.656241,2687.92245 C228.026058,2687.93579 228.334055,2688.25268 228.334055,2689.59703 Z M226.37387,2727.57086 C227.995501,2726.872 228.940106,2725.65497 228.772769,2723.76899 C228.727903,2723.26133 228.765897,2722.74598 228.765897,2722.23467 C228.765897,2721.66192 228.731137,2721.08635 228.772769,2720.51644 C228.881497,2719.03385 228.19194,2717.97526 226.976525,2717.27317 C224.65604,2715.93327 222.251887,2715.92437 219.888961,2717.13575 C218.515506,2717.83985 217.762086,2718.98009 217.864751,2720.62274 C217.937506,2721.7848 217.913659,2722.95575 217.869602,2724.12064 C217.819886,2725.44438 218.39546,2726.429 219.461323,2727.10805 C221.667824,2728.51465 224.01539,2728.587 226.37387,2727.57086 Z M232.241572,2720.14215 C232.218533,2721.43113 232.199132,2722.72132 232.244402,2724.00868 C232.362023,2727.32834 230.651468,2729.45238 227.781278,2730.74015 C224.611578,2732.16171 221.432583,2732.04206 218.315025,2730.49642 C218.209126,2730.44428 218.101205,2730.39618 217.93589,2730.31857 C217.912042,2730.494 217.879706,2730.62293 217.879706,2730.75147 C217.877281,2733.1245 217.856667,2735.49834 217.892641,2737.87096 C217.902746,2738.55446 217.838074,2739.11467 217.116182,2739.38185 L215.15058,2739.38185 C214.457789,2739.09002 214.381801,2738.54112 214.385034,2737.85358 C214.410499,2732.16615 214.473957,2726.4771 214.372504,2720.79129 C214.30945,2717.27115 215.94442,2714.97088 219.047831,2713.69281 C222.767236,2712.16091 226.381954,2712.48791 229.668465,2714.90823 C231.398421,2716.18185 232.280375,2717.9506 232.241572,2720.14215 Z" id="national-express"></path>
        </g>
    </g>
</svg>