<?xml version="1.0" encoding="UTF-8"?>
<svg width="160px" height="31px" viewBox="0 0 160 31" version="1.1" xmlns="http://www.w3.org/2000/svg" xmlns:xlink="http://www.w3.org/1999/xlink">
    <title>spacemade</title>
    <g id="Home" stroke="none" stroke-width="1" fill="none" fill-rule="evenodd">
        <g id="Home-2" transform="translate(-563.000000, -2914.000000)" fill="#999999" fill-rule="nonzero">
            <g id="Group-24" transform="translate(0.000000, 2000.000000)">
                <g id="Group-18" transform="translate(171.000000, 449.000000)">
                    <path d="M513.837756,465 L513.837,480.046 L513.842778,479.789335 C513.98327,475.416727 516.976749,472.337692 521.058816,472.21628 L521.310083,472.212556 C525.604246,472.212556 528.75815,475.453333 528.75815,480.083015 L528.75815,480.083015 L528.75815,481.301352 L517.464746,481.301352 C517.675361,483.359725 519.459264,484.888565 521.5163,484.773613 L521.5163,484.773613 L547.523882,484.773613 C549.57392,484.87108 551.539045,485.797016 552,487.953473 L552,487.953473 L521.297953,487.953473 C519.248016,487.984455 517.278036,487.155631 515.862115,485.666468 C514.715894,484.460956 514.01679,482.911079 513.858471,481.274053 L513.837,480.997 L513.837756,487.600155 L510.198635,487.600155 L510.198635,485.699549 C509.116197,487.090876 507.456285,487.904235 505.698256,487.90474 C502.147054,487.90474 499.381955,485.579992 498.625893,482.04711 L498.626232,487.661072 L494.987111,487.661072 L494.987111,485.407148 C494.043953,487.086495 492.233763,488.082905 490.316907,487.97784 C487.797929,487.97784 485.458336,486.772965 485.281386,483.962665 L485.28279,487.648889 L481.643669,487.648889 L481.643669,479.023061 C481.643669,476.683854 480.527672,475.36805 478.756634,475.36805 C476.985595,475.36805 475.905989,476.671671 475.905989,479.023061 L475.905989,479.023061 L475.905989,487.648889 L472.266869,487.648889 L472.266869,479.023061 C472.266869,476.659487 471.175133,475.36805 469.404094,475.36805 C467.633055,475.36805 466.55345,476.671671 466.55345,479.023061 L466.55345,479.023061 L466.55345,487.563605 L462.914329,487.563605 L462.914329,481.264802 L451.608795,481.264802 C451.819545,483.328151 453.610878,484.858775 455.672479,484.737063 C456.925196,484.888388 458.133229,484.21542 458.668688,483.067941 L458.668688,483.067941 L462.562547,483.067941 C461.652767,486.247801 459.044731,487.94129 455.490523,487.94129 C451.680514,488.008379 448.463958,485.112527 448.115239,481.301352 C447.933283,485.285315 444.730857,487.953473 440.570129,487.953473 C438.506649,487.990563 436.520926,487.163253 435.089469,485.670071 C433.862507,484.390201 433.13769,482.720142 433.02805,480.965796 L433.025,480.897 L433.025019,487.661072 L429.482942,487.661072 L429.482942,485.407148 C428.523292,487.091381 426.692225,488.079464 424.764215,487.953473 C422.144049,487.953473 419.717968,486.649852 419.717968,483.591826 C419.717968,483.30198 419.737422,483.030849 419.774594,482.777069 C418.81125,485.921824 416.154084,487.953473 412.888552,487.953473 C411.129175,487.944089 409.469203,487.132888 408.376042,485.748283 L408.376042,485.748283 L408.376042,493.350707 C408.376042,494.605594 406.689917,494.824895 404.736922,495.153846 L404.736922,495.153846 L404.736,483.345 L404.732292,483.531341 C404.612238,486.204064 402.169862,487.880348 398.866822,487.962492 L398.611069,487.965657 C394.850644,487.965657 392,486.040684 392,482.678073 L392,482.678073 L395.711903,482.678073 C395.711903,484.298462 397.034117,485.114747 398.562547,485.114747 C400.090978,485.114747 400.988628,484.566496 400.988628,483.457809 C400.988628,480.241399 392.242608,482.970474 392.242608,476.805688 C392.242608,473.991329 394.802123,472.236923 398.137983,472.236923 C401.740713,472.236923 404.445792,474.46648 404.445792,477.341756 L404.445792,477.341756 L400.673237,477.341756 C400.645933,476.696551 400.356966,476.090664 399.8735,475.664921 C399.390034,475.239178 398.754178,475.03066 398.113723,475.087832 C396.779378,475.087832 395.881729,475.672634 395.881729,476.63512 C395.881729,479.534763 404.712661,477.061538 404.712661,483.275058 L404.712661,483.275058 L404.712661,472.517141 L408.351782,472.517141 L408.351782,474.42993 C409.434219,473.038604 411.094132,472.225245 412.852161,472.22474 C416.976497,472.22474 420.166793,475.453333 420.166793,480.083015 C420.166793,480.718461 420.107377,481.327742 419.994191,481.906069 L420.042866,481.778146 C421.737239,477.661552 429.482942,479.667257 429.482942,476.976255 C429.482942,475.794468 428.269901,475.124382 426.668688,475.124382 C425.939128,475.007686 425.196379,475.231213 424.650922,475.73162 C424.105465,476.232027 423.81674,476.954783 423.866566,477.695074 L423.866566,477.695074 L420.118271,477.695074 C420.118271,473.759845 423.357089,472.249106 426.668688,472.249106 C429.980288,472.249106 433.037149,473.589277 433.037149,477.122455 L433.037149,477.122455 L433.037,479.238 L433.040129,479.176333 C433.143636,477.520343 433.796171,475.939626 434.902273,474.69227 L435.102157,474.475662 C436.534027,472.984361 438.519905,472.159842 440.582259,472.200373 C444.645944,472.200373 447.739196,474.734514 448.103108,478.51136 L448.103108,478.51136 L444.318423,478.51136 C444.078461,476.66714 442.425383,475.34645 440.582259,475.526434 C438.338135,475.526434 436.652009,477.329573 436.652009,480.058648 C436.652009,482.787723 438.350265,484.603046 440.582259,484.603046 C442.540088,484.709243 444.229728,483.238494 444.403336,481.276985 L444.403336,481.276985 L448.090978,481.276985 C448.042918,480.872661 448.018615,480.465844 448.018196,480.058648 C448.018196,475.44115 451.18423,472.18819 455.466262,472.18819 C457.509492,472.157905 459.473362,472.981793 460.888087,474.462766 C462.100708,475.732171 462.816387,477.386467 462.923899,479.123638 L462.926,479.18 L462.926459,472.529324 L466.56558,472.529324 L466.56558,474.490847 C467.402079,473.060473 468.941502,472.194259 470.592873,472.22474 C472.554968,472.123038 474.384474,473.219763 475.226687,475.002549 C476.117017,473.241052 477.943273,472.15762 479.909022,472.22474 C482.953753,472.22474 485.210008,474.247179 485.28279,478.304242 L485.28279,478.304242 L485.281498,483.248361 C485.643939,477.232851 494.974981,479.963417 494.974981,477.000622 C494.974981,475.818834 493.774071,475.124382 492.209249,475.124382 C491.486034,475.012976 490.751385,475.235338 490.209884,475.729545 C489.668384,476.223753 489.377875,476.937016 489.419257,477.670707 L489.419257,477.670707 L485.658832,477.670707 C485.658832,473.735478 488.849128,472.22474 492.209249,472.22474 C495.520849,472.22474 498.626232,473.589277 498.626232,477.122455 L498.626232,477.122455 L498.625985,478.061015 C499.389126,474.516546 502.19326,472.176006 505.698256,472.176006 C507.455029,472.181951 509.112702,472.994213 510.198635,474.381197 L510.198635,474.381197 L510.198635,466.778772 C510.198635,465.548252 511.921152,465.304584 513.837756,465 L513.837756,465 Z M494.987111,480.71655 C492.585292,481.715587 488.849128,481.423186 488.849128,483.348159 C488.849128,484.408112 489.746778,484.919814 490.959818,484.919814 C493.070508,484.919814 494.987111,483.71366 494.987111,481.423186 L494.987111,481.423186 Z M429.482942,480.71655 C427.056861,481.715587 423.417741,481.423186 423.357089,483.299425 C423.357089,484.359378 424.254738,484.87108 425.467779,484.87108 C427.578469,484.87108 429.482942,483.71366 429.482942,481.423186 L429.482942,481.423186 Z M414.557497,476.217705 C413.241677,475.39813 411.577125,475.39813 410.261305,476.217705 C408.945485,477.03728 408.205644,478.534888 408.351782,480.083015 C408.351782,482.81209 410.086429,484.627413 412.403336,484.627413 C413.557154,484.608475 414.650982,484.107714 415.422058,483.245424 C416.193134,482.383134 416.571774,481.237241 416.46702,480.083015 C416.613158,478.534888 415.873317,477.03728 414.557497,476.217705 Z M508.398285,476.132421 C507.082466,475.312846 505.417914,475.312846 504.102094,476.132421 C502.786274,476.951997 502.046432,478.449604 502.19257,479.997731 C502.069724,481.158664 502.438892,482.317935 503.209711,483.191791 C503.980531,484.065647 505.081859,484.573435 506.244124,484.590862 C507.408515,484.576829 508.513084,484.070508 509.286576,483.19624 C510.060068,482.321972 510.430829,481.160746 510.307809,479.997731 C510.453947,478.449604 509.714105,476.951997 508.398285,476.132421 Z M455.508719,475.421912 C453.56697,475.421912 451.918132,476.850299 451.633055,478.779394 L451.633055,478.779394 L459.384382,478.779394 C459.099306,476.850299 457.450468,475.421912 455.508719,475.421912 Z M521.562784,475.39684 L521.370735,475.4046 C519.383789,475.298135 517.668849,476.789112 517.489007,478.779394 L517.489007,478.779394 L525.240334,478.779394 C525.091531,476.778324 523.364284,475.271939 521.370735,475.4046 Z" id="spacemade"></path>
                </g>
            </g>
        </g>
    </g>
</svg>