<?xml version="1.0" encoding="UTF-8"?>
<svg width="140px" height="71px" viewBox="0 0 140 71" version="1.1" xmlns="http://www.w3.org/2000/svg" xmlns:xlink="http://www.w3.org/1999/xlink">
    <!-- Generator: Sketch 54.1 (76490) - https://sketchapp.com -->
    <title>stphilips</title>
    <desc>Created with Sketch.</desc>
    <g id="Home" stroke="none" stroke-width="1" fill="none" fill-rule="evenodd">
        <g id="Home-2" transform="translate(-1364.000000, -2449.000000)" fill="#999999">
            <path d="M1427.32912,2467.49418 L1420.90371,2469.17046 L1418.01197,2466.30238 L1423.7497,2460.6118 L1427.32912,2467.49418 Z M1434.70723,2460.1714 L1427.939,2466.88472 L1424.36077,2460.00507 L1429.45026,2454.95693 L1434.70723,2460.1714 Z M1435.4555,2449 L1436.26064,2449.79869 L1435.11268,2459.41784 L1430.03293,2454.37978 L1435.4555,2449 Z M1439.93818,2464.20417 L1435.8546,2460.15299 L1437.00307,2450.53452 L1448.52514,2461.96384 L1439.93818,2464.20417 Z M1439.69027,2465.11382 L1443.98179,2469.37112 L1438.32037,2474.98656 L1434.08246,2474.98656 L1435.11927,2466.30613 L1439.69027,2465.11382 Z M1440.61258,2464.87317 L1449.19954,2462.63283 L1449.98795,2463.41462 L1444.56418,2468.79337 L1440.61258,2464.87317 Z M1433.25298,2474.98731 L1432.15299,2474.98731 L1428.53225,2468.02535 L1434.26316,2466.53042 L1433.25298,2474.98731 Z M1421.57806,2469.83959 L1427.71614,2468.23828 L1431.22608,2474.98627 L1426.76742,2474.98627 L1421.57806,2469.83959 Z M1461.47565,2498.50057 C1461.64654,2498.50057 1461.64654,2498.63787 1461.64654,2498.81308 C1461.62811,2499.51563 1461.45721,2500.54896 1461.45721,2501.81778 C1461.45721,2502.03176 1461.45721,2502.24676 1461.47565,2502.44195 C1460.63892,2502.38303 1460.20084,2502.38303 1453.86387,2502.38303 C1452.78028,2502.38303 1451.40969,2502.44195 1451.0872,2502.44195 C1450.95335,2502.44195 1450.87754,2502.34427 1450.87754,2502.24676 C1450.87754,2502.1682 1450.95335,2502.07069 1451.0872,2502.07069 L1452.95032,2502.07069 L1452.95032,2488.80577 L1451.0872,2488.80577 C1450.95335,2488.80577 1450.87754,2488.70792 1450.87754,2488.61041 C1450.87754,2488.5129 1450.95335,2488.43537 1451.0872,2488.43537 C1452.03848,2488.45432 1452.85608,2488.49497 1453.80736,2488.49497 C1454.98792,2488.49497 1456.30063,2488.43537 1456.64293,2488.43537 C1456.7761,2488.43537 1456.8519,2488.5129 1456.8519,2488.61041 C1456.8519,2488.70792 1456.7761,2488.80577 1456.64293,2488.80577 L1454.83547,2488.80577 L1454.83547,2502.07069 L1457.84211,2502.07069 C1460.65634,2502.07069 1461.05737,2500.49107 1461.28461,2498.83306 C1461.30492,2498.657 1461.32319,2498.50057 1461.47565,2498.50057 Z M1444.80818,2502.24684 C1444.80818,2502.34435 1444.75099,2502.44186 1444.61714,2502.44186 C1443.66586,2502.42188 1442.84843,2502.38312 1441.89698,2502.38312 C1440.71744,2502.38312 1439.38544,2502.44186 1439.04194,2502.44186 C1438.92755,2502.44186 1438.85261,2502.34435 1438.85261,2502.24684 C1438.85261,2502.16812 1438.92755,2502.07061 1439.04194,2502.07061 L1440.90762,2502.07061 L1440.90762,2488.80568 L1439.04194,2488.80568 C1438.92755,2488.80568 1438.85261,2488.708 1438.85261,2488.61049 C1438.85261,2488.51298 1438.92755,2488.43528 1439.04194,2488.43528 C1440.01268,2488.45424 1440.81253,2488.49488 1441.78242,2488.49488 C1442.96196,2488.49488 1444.27535,2488.43528 1444.61714,2488.43528 C1444.75099,2488.43528 1444.80818,2488.51298 1444.80818,2488.61049 C1444.80818,2488.708 1444.75099,2488.80568 1444.61714,2488.80568 L1442.81036,2488.80568 L1442.81036,2502.07061 L1444.61714,2502.07061 C1444.75099,2502.07061 1444.80818,2502.16812 1444.80818,2502.24684 Z M1406.48698,2488.80568 L1406.48698,2495.36053 L1406.60137,2495.36053 C1408.4469,2495.36053 1411.11073,2495.3216 1411.11073,2492.12187 C1411.11073,2488.88407 1408.38971,2488.80568 1406.48698,2488.80568 Z M1413.08909,2491.92668 C1413.08909,2495.7697 1408.19935,2495.71181 1406.48698,2495.73076 L1406.48698,2502.07061 L1408.29445,2502.07061 C1408.409,2502.07061 1408.48481,2502.16812 1408.48481,2502.24684 C1408.48481,2502.34435 1408.409,2502.44186 1408.29445,2502.44186 C1407.32473,2502.42188 1406.52488,2502.38312 1405.55499,2502.38312 C1404.39389,2502.38312 1403.06206,2502.44186 1402.71942,2502.44186 C1402.60589,2502.44186 1402.52906,2502.34435 1402.52906,2502.24684 C1402.52906,2502.16812 1402.60589,2502.07061 1402.71942,2502.07061 L1404.58425,2502.07061 L1404.58425,2488.80568 L1402.71942,2488.80568 C1402.60589,2488.80568 1402.52906,2488.708 1402.52906,2488.61049 C1402.52906,2488.51298 1402.58625,2488.43528 1402.77661,2488.43528 C1402.92907,2488.43528 1405.40253,2488.49488 1406.04907,2488.49488 C1406.58207,2488.49488 1407.22946,2488.45424 1407.85671,2488.45424 C1409.9119,2488.45424 1413.08909,2488.84445 1413.08909,2491.92668 Z M1473.17648,2488.80568 L1471.3697,2488.80568 L1471.3697,2502.07061 L1473.17648,2502.07061 C1473.31033,2502.07061 1473.3677,2502.16812 1473.3677,2502.24684 C1473.3677,2502.34435 1473.31033,2502.44186 1473.17648,2502.44186 C1472.22606,2502.42188 1471.40777,2502.38312 1470.45547,2502.38312 C1469.27661,2502.38312 1467.94478,2502.44186 1467.60231,2502.44186 C1467.48775,2502.44186 1467.4111,2502.34435 1467.4111,2502.24684 C1467.4111,2502.16812 1467.48775,2502.07061 1467.60231,2502.07061 L1469.46628,2502.07061 L1469.46628,2488.80568 L1467.60231,2488.80568 C1467.48775,2488.80568 1467.4111,2488.708 1467.4111,2488.61049 C1467.4111,2488.51298 1467.48775,2488.43528 1467.60231,2488.43528 C1468.57288,2488.45424 1469.37204,2488.49488 1470.34262,2488.49488 C1471.5213,2488.49488 1472.83486,2488.43528 1473.17648,2488.43528 C1473.31033,2488.43528 1473.3677,2488.51298 1473.3677,2488.61049 C1473.3677,2488.708 1473.31033,2488.80568 1473.17648,2488.80568 Z M1495.97063,2491.02995 C1495.97063,2494.81422 1504,2492.23935 1504,2498.20811 C1504,2499.82735 1502.80117,2502.63687 1499.60434,2502.63687 C1497.64339,2502.63687 1496.54068,2501.09515 1495.87536,2501.09515 C1495.64659,2501.09515 1495.51257,2501.48536 1495.51257,2501.83664 L1495.51257,2501.99306 C1495.51257,2502.20704 1495.45623,2502.3054 1495.30463,2502.3054 C1495.17078,2502.3054 1495.13305,2502.20704 1495.13305,2501.99306 L1495.13305,2497.99396 C1495.13305,2497.8179 1495.15149,2497.68145 1495.28517,2497.68145 C1495.39989,2497.68145 1495.49499,2497.68145 1495.49499,2497.99396 C1495.49499,2500.47116 1497.81617,2502.26561 1499.60434,2502.26561 C1501.5448,2502.26561 1502.93416,2501.15407 1502.93416,2499.00817 C1502.93416,2494.46277 1495.22814,2497.05746 1495.22814,2491.81037 C1495.22814,2489.35213 1497.03561,2488.08399 1499.015,2488.08399 C1499.98506,2488.08399 1500.89844,2488.3965 1501.8294,2489.02135 C1502.26731,2489.29339 1502.30521,2489.3132 1502.42062,2489.3132 C1502.55362,2489.3132 1502.55362,2489.21552 1502.55362,2489.06029 L1502.55362,2488.49487 C1502.55362,2488.27918 1502.61098,2488.18167 1502.7631,2488.18167 C1502.93416,2488.18167 1502.99136,2488.27918 1502.99136,2488.49487 C1503.01065,2490.89265 1503.35261,2491.65395 1503.35261,2491.82916 C1503.35261,2491.90788 1503.35261,2491.98541 1503.21859,2491.98541 C1503.12435,2491.98541 1502.99136,2491.94682 1502.93416,2491.67307 C1502.55362,2489.62554 1500.70808,2488.49487 1498.97624,2488.49487 C1497.49281,2488.49487 1495.97063,2489.41071 1495.97063,2491.02995 Z M1483.52704,2495.3605 C1485.37411,2495.3605 1488.03708,2495.32156 1488.03708,2492.12201 C1488.03708,2488.8842 1485.31675,2488.80565 1483.41333,2488.80565 L1483.41333,2495.3605 L1483.52704,2495.3605 Z M1484.78391,2488.45438 C1486.83893,2488.45438 1490.01647,2488.84442 1490.01647,2491.92682 C1490.01647,2495.76966 1485.12656,2495.71194 1483.41333,2495.73073 L1483.41333,2502.07057 L1485.22182,2502.07057 C1485.33553,2502.07057 1485.41218,2502.16808 1485.41218,2502.24681 C1485.41218,2502.34432 1485.33553,2502.44183 1485.22182,2502.44183 C1484.25091,2502.42202 1483.45123,2502.38308 1482.48134,2502.38308 C1481.32041,2502.38308 1479.98927,2502.44183 1479.64662,2502.44183 C1479.53224,2502.44183 1479.45644,2502.34432 1479.45644,2502.24681 C1479.45644,2502.16808 1479.53224,2502.07057 1479.64662,2502.07057 L1481.51145,2502.07057 L1481.51145,2488.80565 L1479.64662,2488.80565 C1479.53224,2488.80565 1479.45644,2488.70797 1479.45644,2488.61046 C1479.45644,2488.51295 1479.51363,2488.43525 1479.70382,2488.43525 C1479.85525,2488.43525 1482.32974,2488.49485 1482.97559,2488.49485 C1483.50928,2488.49485 1484.15599,2488.45438 1484.78391,2488.45438 Z M1432.7639,2502.24684 C1432.7639,2502.34435 1432.6881,2502.44186 1432.55425,2502.44186 C1431.60297,2502.42188 1430.78537,2502.38312 1429.83391,2502.38312 C1428.65352,2502.38312 1427.34099,2502.44186 1426.99834,2502.44186 C1426.86552,2502.44186 1426.78954,2502.34435 1426.78954,2502.24684 C1426.78954,2502.16812 1426.86552,2502.07061 1426.99834,2502.07061 L1428.86317,2502.07061 L1428.86317,2495.63325 L1422.75514,2495.63325 L1422.75514,2502.07061 L1424.56278,2502.07061 C1424.69662,2502.07061 1424.77243,2502.16812 1424.77243,2502.24684 C1424.77243,2502.34435 1424.69662,2502.44186 1424.56278,2502.44186 C1423.6115,2502.42188 1422.79389,2502.38312 1421.84244,2502.38312 C1420.66222,2502.38312 1419.34968,2502.44186 1419.00704,2502.44186 C1418.87404,2502.44186 1418.79824,2502.34435 1418.79824,2502.24684 C1418.79824,2502.16812 1418.87404,2502.07061 1419.00704,2502.07061 L1420.87187,2502.07061 L1420.87187,2488.80568 L1419.00704,2488.80568 C1418.87404,2488.80568 1418.79824,2488.708 1418.79824,2488.61049 C1418.79824,2488.51298 1418.87404,2488.43528 1419.00704,2488.43528 C1419.95832,2488.45424 1420.77678,2488.49488 1421.72806,2488.49488 C1422.90777,2488.49488 1424.22098,2488.43528 1424.56278,2488.43528 C1424.69662,2488.43528 1424.77243,2488.51298 1424.77243,2488.61049 C1424.77243,2488.708 1424.69662,2488.80568 1424.56278,2488.80568 L1422.75514,2488.80568 L1422.75514,2495.26302 L1428.86317,2495.26302 L1428.86317,2488.80568 L1426.99834,2488.80568 C1426.86552,2488.80568 1426.78954,2488.708 1426.78954,2488.61049 C1426.78954,2488.51298 1426.86552,2488.43528 1426.99834,2488.43528 C1427.94979,2488.45424 1428.76825,2488.49488 1429.71953,2488.49488 C1430.8989,2488.49488 1432.21246,2488.43528 1432.55425,2488.43528 C1432.6881,2488.43528 1432.7639,2488.51298 1432.7639,2488.61049 C1432.7639,2488.708 1432.6881,2488.80568 1432.55425,2488.80568 L1430.74661,2488.80568 L1430.74661,2502.07061 L1432.55425,2502.07061 C1432.6881,2502.07061 1432.7639,2502.16812 1432.7639,2502.24684 Z M1364.83672,2491.02995 C1364.83672,2494.81422 1372.86695,2492.23935 1372.86695,2498.20811 C1372.86695,2499.82735 1371.66812,2502.63687 1368.47129,2502.63687 C1366.51137,2502.63687 1365.40746,2501.09515 1364.74163,2501.09515 C1364.51337,2501.09515 1364.38055,2501.48536 1364.38055,2501.83664 L1364.38055,2501.99306 C1364.38055,2502.20704 1364.32318,2502.3054 1364.1709,2502.3054 C1364.0379,2502.3054 1364,2502.20704 1364,2501.99306 L1364,2497.99396 C1364,2497.8179 1364.01929,2497.68145 1364.15229,2497.68145 C1364.26582,2497.68145 1364.36108,2497.68145 1364.36108,2497.99396 C1364.36108,2500.47116 1366.68312,2502.26561 1368.47129,2502.26561 C1370.41192,2502.26561 1371.80111,2501.15407 1371.80111,2499.00817 C1371.80111,2494.46277 1364.09492,2497.05746 1364.09492,2491.81037 C1364.09492,2489.35213 1365.90273,2488.08399 1367.88109,2488.08399 C1368.85184,2488.08399 1369.76539,2488.3965 1370.69738,2489.02135 C1371.13512,2489.29339 1371.17302,2489.3132 1371.28757,2489.3132 C1371.42057,2489.3132 1371.42057,2489.21552 1371.42057,2489.06029 L1371.42057,2488.49487 C1371.42057,2488.27918 1371.47776,2488.18167 1371.63022,2488.18167 C1371.80111,2488.18167 1371.85831,2488.27918 1371.85831,2488.49487 C1371.87675,2490.89265 1372.21956,2491.65395 1372.21956,2491.82916 C1372.21956,2491.90788 1372.21956,2491.98541 1372.0864,2491.98541 C1371.9913,2491.98541 1371.85831,2491.94682 1371.80111,2491.67307 C1371.42057,2489.62554 1369.57503,2488.49487 1367.84319,2488.49487 C1366.35891,2488.49487 1364.83672,2489.41071 1364.83672,2491.02995 Z M1385.89818,2488.49492 C1387.42036,2488.49492 1387.97266,2488.47425 1388.84745,2488.43532 L1389.0764,2492.04421 C1389.0764,2492.23923 1389.0764,2492.35569 1388.90465,2492.35569 C1388.73375,2492.35569 1388.71446,2492.25921 1388.71446,2492.04421 C1388.54356,2490.46373 1388.35321,2488.80572 1385.17601,2488.80572 L1384.33826,2488.80572 L1384.33826,2502.07064 L1386.14573,2502.07064 C1386.26029,2502.07064 1386.33592,2502.16815 1386.33592,2502.24688 C1386.33592,2502.34439 1386.26029,2502.4419 1386.14573,2502.4419 C1385.17601,2502.42192 1384.37599,2502.38315 1383.40627,2502.38315 C1382.22673,2502.38315 1380.91335,2502.4419 1380.57053,2502.4419 C1380.43753,2502.4419 1380.38034,2502.34439 1380.38034,2502.24688 C1380.38034,2502.16815 1380.43753,2502.07064 1380.57053,2502.07064 L1382.43553,2502.07064 L1382.43553,2488.80572 L1381.57917,2488.80572 C1378.40181,2488.80572 1378.23091,2490.46373 1378.05916,2492.04421 C1378.04072,2492.31693 1377.98336,2492.35569 1377.86898,2492.35569 C1377.69808,2492.35569 1377.69808,2492.23923 1377.69808,2492.04421 L1377.90671,2488.43532 C1378.80182,2488.47425 1379.3338,2488.49492 1380.85598,2488.49492 L1385.89818,2488.49492 Z M1391.84855,2501.00659 C1392.29772,2501.00659 1392.66171,2501.37084 1392.66171,2501.82031 C1392.66171,2502.26944 1392.29772,2502.63352 1391.84855,2502.63352 C1391.39937,2502.63352 1391.03538,2502.26944 1391.03538,2501.82031 C1391.03538,2501.37084 1391.39937,2501.00659 1391.84855,2501.00659 Z M1414.66562,2516.53535 L1414.66562,2514.05901 L1415.52778,2514.05901 L1415.52778,2519.92531 L1414.66562,2519.92531 L1414.66562,2517.33797 L1411.46435,2517.33797 L1411.46435,2519.92531 L1410.60202,2519.92531 L1410.60202,2514.05901 L1411.46435,2514.05901 L1411.46435,2516.53535 L1414.66562,2516.53535 Z M1423.80791,2519.23365 C1424.97738,2519.23365 1425.95922,2518.20903 1425.95922,2516.98785 C1425.95922,2515.77539 1424.97738,2514.75076 1423.80791,2514.75076 C1422.63828,2514.75076 1421.64807,2515.77539 1421.64807,2516.98785 C1421.64807,2518.20903 1422.63828,2519.23365 1423.80791,2519.23365 Z M1423.80791,2513.95651 C1425.45541,2513.95651 1426.83846,2515.33992 1426.83846,2516.98785 C1426.83846,2518.63596 1425.45541,2520.02774 1423.80791,2520.02774 C1422.16025,2520.02774 1420.76013,2518.63596 1420.76013,2516.98785 C1420.76013,2515.33992 1422.16025,2513.95651 1423.80791,2513.95651 Z M1435.10111,2517.89301 L1437.15852,2514.05904 L1438.02085,2514.05904 L1438.02085,2519.92534 L1437.15852,2519.92534 L1437.15852,2515.74967 L1435.10111,2519.5838 L1433.0437,2515.74967 L1433.0437,2519.92534 L1432.18154,2519.92534 L1432.18154,2514.05904 L1433.0437,2514.05904 L1435.10111,2517.89301 Z M1443.58593,2519.92533 L1443.58593,2514.05902 L1447.89708,2514.05902 L1447.89708,2514.86165 L1444.45679,2514.86165 L1444.45679,2516.53536 L1447.56416,2516.53536 L1447.56416,2517.33799 L1444.45679,2517.33799 L1444.45679,2519.12271 L1447.89708,2519.12271 L1447.89708,2519.92533 L1443.58593,2519.92533 Z M1455.4174,2516.56095 C1456.58704,2516.83418 1457.39798,2517.22695 1457.39798,2518.27736 C1457.39798,2519.26783 1456.64662,2520.01922 1455.26375,2520.01922 C1454.28208,2520.01922 1453.47113,2519.67767 1452.84782,2519.07998 L1453.36853,2518.43942 C1453.88941,2518.93482 1454.50385,2519.25929 1455.29789,2519.25929 C1456.10901,2519.25929 1456.52728,2518.83236 1456.52728,2518.36274 C1456.52728,2517.80757 1456.04055,2517.59411 1455.05888,2517.37211 C1453.86363,2517.09033 1453.06976,2516.73172 1453.06976,2515.67294 C1453.06976,2514.69084 1453.92355,2513.94799 1455.10156,2513.94799 C1456.0064,2513.94799 1456.68076,2514.28099 1457.24433,2514.77623 L1456.74923,2515.42532 C1456.25395,2514.97261 1455.66495,2514.70792 1455.06741,2514.70792 C1454.41012,2514.70792 1453.94899,2515.12648 1453.94899,2515.59609 C1453.94899,2516.14256 1454.4528,2516.33041 1455.4174,2516.56095 Z" id="stphilips"></path>
        </g>
    </g>
</svg>